<?xml version="1.0" encoding="utf-8"?>
<!-- Generator: Adobe Illustrator 23.0.1, SVG Export Plug-In . SVG Version: 6.00 Build 0)  -->
<svg version="1.1" id="Слой_1" xmlns="http://www.w3.org/2000/svg" xmlns:xlink="http://www.w3.org/1999/xlink" x="0px" y="0px"
	 viewBox="0 0 143.73 143.73" style="enable-background:new 0 0 143.73 143.73;" xml:space="preserve">
<style type="text/css">
	.st0{fill:#ffffff;}
</style>
<g>
	<g>
		<path class="st0" d="M97.01,50.49c-2.08,0-3.77-1.69-3.77-3.77s1.69-3.77,3.77-3.77s3.77,1.69,3.77,3.77S99.09,50.49,97.01,50.49z
			 M97.01,44.95c-0.98,0-1.77,0.79-1.77,1.77s0.79,1.77,1.77,1.77s1.77-0.79,1.77-1.77S97.99,44.95,97.01,44.95z"/>
	</g>
	<g>
		<g>
			<path class="st0" d="M46.72,100.78c-2.08,0-3.77-1.69-3.77-3.77c0-2.08,1.69-3.77,3.77-3.77c2.08,0,3.77,1.69,3.77,3.77
				C50.48,99.09,48.79,100.78,46.72,100.78z M46.72,95.25c-0.98,0-1.77,0.79-1.77,1.77s0.79,1.77,1.77,1.77s1.77-0.79,1.77-1.77
				S47.69,95.25,46.72,95.25z"/>
		</g>
		<g>
			<path class="st0" d="M126.12,143.73c-4.7,0-9.12-1.83-12.45-5.16l-0.11-0.11L79.2,101.14l-0.82,0.82c-1.47,1.47-3.86,1.47-5.33,0
				c-1.47-1.47-1.47-3.86,0-5.33l1.04-1.04l-2.38-2.59l-15.17,15.17c2.03,8.15,0.37,16.72-4.58,23.61
				c-5.45,7.59-13.94,11.94-23.28,11.94c-3.13,0-6.22-0.5-9.16-1.5c-1.23-0.41-2.17-1.45-2.47-2.72c-0.3-1.28,0.08-2.6,1.02-3.53
				l11.27-11.18v-4.7l-5.72-5.72h-4.7L7.74,125.66c-0.91,0.92-2.26,1.31-3.53,1.02c-1.26-0.29-2.3-1.24-2.72-2.47
				c-0.99-2.95-1.5-6.03-1.5-9.16c0-9.34,4.35-17.83,11.94-23.28c6.89-4.95,15.46-6.6,23.61-4.58l19.2-19.2L21.78,34.94l-6.27,0
				c-1.32,0-2.55-0.7-3.23-1.83L0.54,13.54c-0.89-1.49-0.66-3.38,0.57-4.6l7.83-7.83c1.22-1.23,3.12-1.46,4.6-0.57l19.57,11.75
				c1.13,0.68,1.83,1.91,1.83,3.23v6.27l32.97,33.05l19.28-19.28c-2.03-8.15-0.37-16.72,4.57-23.6C97.22,4.36,105.71,0,115.05,0
				c3.13,0,6.21,0.5,9.16,1.5c1.24,0.42,2.16,1.43,2.46,2.7c0.3,1.27-0.06,2.59-0.98,3.52L114.66,18.9v4.76l5.48,5.68h4.66
				l11.18-11.27c0.91-0.92,2.26-1.31,3.53-1.02c1.26,0.29,2.3,1.24,2.72,2.47c0.99,2.94,1.5,6.02,1.5,9.16
				c0,15.81-12.87,28.68-28.68,28.68c-2.32,0-4.63-0.28-6.87-0.83L92.93,71.79l2.59,2.38l1.03-1.03c1.47-1.47,3.86-1.47,5.33,0
				c0.71,0.71,1.1,1.66,1.1,2.66c0,1.01-0.39,1.95-1.1,2.66l-0.8,0.8l37.49,34.4c6.86,6.87,6.86,18.04,0,24.9
				C135.25,141.9,130.82,143.73,126.12,143.73z M18.09,112.39h6.36l6.89,6.89v6.36l-11.86,11.77c-0.44,0.44-0.62,1.05-0.48,1.65
				c0.14,0.59,0.58,1.08,1.16,1.28c2.74,0.92,5.6,1.39,8.52,1.39c8.69,0,16.58-4.05,21.66-11.11c4.71-6.56,6.21-14.75,4.12-22.48
				l-0.15-0.56l17.46-17.46l5.09,5.53l-2.39,2.39c-0.69,0.69-0.69,1.81,0,2.5c0.69,0.69,1.81,0.69,2.5,0l2.29-2.29l35.77,38.85
				c6.14,6.14,16.04,6.14,22.13,0.05c6.08-6.09,6.08-15.99,0-22.08L98.19,79.33l2.27-2.27c0.69-0.69,0.69-1.81,0-2.5
				c-0.69-0.69-1.81-0.69-2.5,0l-2.38,2.38l-5.54-5.09l17.54-17.54l0.56,0.15c2.24,0.6,4.57,0.9,6.91,0.9
				c14.71,0,26.68-11.97,26.68-26.68c0-2.92-0.47-5.78-1.39-8.52c-0.19-0.58-0.68-1.02-1.27-1.16l0,0
				c-0.59-0.14-1.23,0.04-1.65,0.48l-11.77,11.86h-6.34l-6.63-6.87v-6.39l11.6-11.77c0.43-0.44,0.6-1.05,0.46-1.65
				c-0.14-0.6-0.57-1.07-1.16-1.27c-2.74-0.92-5.6-1.39-8.52-1.39c-8.69,0-16.59,4.05-21.66,11.12c-4.71,6.55-6.21,14.74-4.12,22.47
				l0.15,0.56L67.91,57.66L32.94,22.61v-7.1c0-0.62-0.33-1.2-0.86-1.52L12.51,2.25c-0.7-0.42-1.59-0.31-2.16,0.27l-7.83,7.83
				c-0.57,0.58-0.68,1.46-0.27,2.16L14,32.08c0.32,0.53,0.9,0.86,1.52,0.86l7.09,0l34.97,35.05L36.15,89.42l-0.56-0.15
				c-7.73-2.09-15.92-0.59-22.48,4.12C6.05,98.47,2,106.36,2,115.05c0,2.91,0.47,5.78,1.39,8.52c0.19,0.58,0.68,1.02,1.27,1.16
				c0.59,0.14,1.23-0.04,1.66-0.48L18.09,112.39z M28.68,138.19c-0.83,0-1.68-0.05-2.52-0.14l-2.09-0.22l10.29-10.21
				c0.34-0.33,0.52-0.78,0.52-1.26v-7.83c0-0.47-0.18-0.92-0.52-1.25l-7.93-7.93c-0.33-0.33-0.79-0.52-1.25-0.52h-7.83
				c-0.47,0-0.92,0.19-1.26,0.52L5.9,119.66l-0.23-2.09c-0.09-0.83-0.14-1.68-0.14-2.52c0-7.54,3.51-14.38,9.64-18.78
				c6.14-4.41,13.76-5.56,20.9-3.16c0.64,0.22,1.33,0.05,1.81-0.43c0.54-0.54,54.53-54.53,54.79-54.79
				c0.48-0.48,0.64-1.18,0.43-1.82c-2.41-7.14-1.26-14.76,3.15-20.9c4.4-6.13,11.25-9.64,18.79-9.64c0.87,0,1.74,0.05,2.6,0.14
				l2.05,0.23l-10.06,10.2c-0.33,0.33-0.51,0.77-0.51,1.24v7.83c0,0.46,0.18,0.9,0.49,1.23l7.65,7.93c0.33,0.34,0.79,0.54,1.27,0.54
				h7.83c0.47,0,0.92-0.19,1.25-0.52l10.2-10.28l0.23,2.09c0.09,0.83,0.14,1.68,0.14,2.52c0,12.76-10.38,23.14-23.14,23.14
				c-2.53,0-5.02-0.41-7.39-1.21c-0.64-0.22-1.34-0.05-1.81,0.43l-54.79,54.79c-0.48,0.48-0.64,1.17-0.43,1.82
				c2.4,7.14,1.25,14.76-3.16,20.9C43.06,134.68,36.22,138.19,28.68,138.19z M28.57,136.19c0.04,0,0.08,0,0.12,0
				c6.88,0,13.14-3.21,17.16-8.8c4.03-5.61,5.08-12.57,2.88-19.1c-0.46-1.37-0.11-2.85,0.91-3.87l54.79-54.79
				c1.02-1.02,2.5-1.36,3.87-0.91c2.17,0.73,4.44,1.1,6.76,1.1c11.66,0,21.14-9.49,21.14-21.14c0-0.04,0-0.08,0-0.12l-7.14,7.2
				c-0.7,0.71-1.68,1.11-2.67,1.11h-7.83c-1.02,0-2.01-0.42-2.71-1.15l-7.65-7.92c-0.68-0.7-1.06-1.63-1.06-2.62v-7.83
				c0-0.99,0.38-1.93,1.08-2.64l7.07-7.17c-6.94-0.07-13.33,3.15-17.4,8.81c-4.03,5.61-5.08,12.57-2.88,19.09
				c0.46,1.37,0.11,2.85-0.91,3.87c-0.02,0.02-29.81,29.81-54.79,54.79c-1.02,1.02-2.51,1.37-3.87,0.91
				c-6.53-2.2-13.49-1.15-19.1,2.89c-5.6,4.02-8.8,10.27-8.8,17.16c0,0.04,0,0.08,0,0.12l7.14-7.2c0.72-0.72,1.67-1.11,2.68-1.11
				h7.83c1.01,0,1.95,0.39,2.66,1.1l7.93,7.93c0.71,0.71,1.1,1.66,1.1,2.66v7.83c0,1.01-0.4,1.96-1.11,2.68L28.57,136.19z
				 M126.12,138.19c-3.07,0-6.15-1.16-8.5-3.48L81.76,95.75l13.92-13.92l38.98,35.76c4.69,4.74,4.67,12.38-0.01,17.07
				C132.31,137.01,129.21,138.19,126.12,138.19z M84.54,95.81l34.53,37.51c3.9,3.86,10.27,3.84,14.18-0.07
				c3.91-3.91,3.92-10.28,0.04-14.21L95.74,84.6L84.54,95.81z M79.37,93.15l-5.09-5.53l13.26-13.26l5.54,5.09L79.37,93.15z
				 M77.05,87.67l2.38,2.59L90.19,79.5l-2.59-2.38L77.05,87.67z"/>
		</g>
	</g>
</g>
</svg>
