<svg id="svg2" xmlns="http://www.w3.org/2000/svg" viewBox="0 0 311.9 37.3"><style>.st0{fill:none}.st1{fill:#2b2b2b}</style><path class="st0" d="M0-75.8h311.9v178.3H0z"/><path id="path22" class="st1" d="M18.6 14.9c2.1 0 3.7-1.7 3.7-3.7s-1.7-3.7-3.7-3.7H7.4v7.4h11.2zm2.5 14.9c2.1 0 3.7-1.7 3.7-3.7s-1.7-3.7-3.7-3.7H7.4v7.5h13.7zm11.2-3.7c0 6.2-5 11.1-11.2 11.2H0V0h18.6c6.2 0 11.2 5.1 11.2 11.3 0 2.1-.6 4.2-1.8 6 2.7 2.1 4.3 5.3 4.3 8.8"/><path id="path24" class="st1" d="M62.3 19.9c3.4.1 6.3-2.5 6.5-6 .1-3.4-2.5-6.3-6-6.5h-6.7v12.4h6.2zm15 17.3h-8.8L62 27.3h-5.9v9.9h-7.4V0h13.6C69.8 0 76 6.1 76 13.7c0 4.7-2.4 9.1-6.5 11.6l7.8 11.9"/><path id="path26" class="st1" d="M96.4 18.6c0 6.2 5 11.2 11.2 11.2s11.2-5 11.2-11.2c0-6.2-5-11.2-11.2-11.2-6.1.1-11.1 5.1-11.2 11.2zm11.2 18.6C97.3 37.2 89 28.9 89 18.6S97.3 0 107.6 0s18.6 8.3 18.6 18.6-8.3 18.6-18.6 18.6"/><path id="path28" class="st1" d="M154.3 29.8c6.2 0 11.2-5 11.2-11.2s-5-11.2-11.2-11.2h-6.2v22.3h6.2zm-13.7 7.4V0h13.6c10.3-.2 18.8 7.9 19 18.2.2 10.3-7.9 18.8-18.2 19h-14.4"/><path id="path30" class="st1" d="M219.1 21.1c-.2 8.9-7.6 16-16.5 15.7-8.6-.2-15.5-7.1-15.7-15.7V0h7.4v21.1c0 4.8 3.9 8.7 8.7 8.7s8.7-3.9 8.7-8.7V0h7.4v21.1"/><path id="path32" class="st1" d="M251.1 29.8c6.2 0 11.2-5 11.2-11.2s-5-11.2-11.2-11.2h-6.2v22.3h6.2zm-13.7 7.4V0H251c10.3.2 18.4 8.8 18.2 19-.2 10-8.2 18-18.1 18.2h-13.7"/><path id="path34" class="st1" d="M284.6 0h27.3v7.4H292v11.2h14.9V26H292v3.7h19.9v7.4h-27.3V0"/></svg>