<?xml version="1.0" encoding="utf-8"?>
<!-- Generator: Adobe Illustrator 23.0.1, SVG Export Plug-In . SVG Version: 6.00 Build 0)  -->
<svg version="1.1" id="Слой_1" xmlns="http://www.w3.org/2000/svg" xmlns:xlink="http://www.w3.org/1999/xlink" x="0px" y="0px"
	 viewBox="0 0 118.87 141.73" style="enable-background:new 0 0 118.87 141.73;" xml:space="preserve">
<style type="text/css">
	.st0{fill:#ffffff;}
</style>
<g>
	<path class="st0" d="M118.87,80.01c0-6.3-5.13-11.43-11.43-11.43H93.73V11.43C93.73,5.13,88.6,0,82.3,0
		c-6.3,0-11.43,5.13-11.43,11.43v57.15H57.15c-6.01,0-10.9,4.67-11.34,10.57l-2.37-2.37V9.14c0-5.04-4.1-9.14-9.14-9.14
		s-9.14,4.1-9.14,9.14v67.63L11.43,90.49v11c0,12.39-3.81,24.26-11,34.34L0,136.43v5.3h68.58v-5.3l-0.43-0.6
		c-0.31-0.43-0.58-0.89-0.88-1.33c0.21-0.05,0.43-0.06,0.64-0.11c2.34,4.47,6.96,7.34,12.1,7.34c3.93,0,7.66-1.71,10.25-4.64
		c0.4,0.05,0.79,0.07,1.18,0.07c6.3,0,11.43-5.13,11.43-11.43c0-0.78-0.1-1.54-0.25-2.29h16.25V80.01z M75.44,11.43
		c0-3.78,3.08-6.86,6.86-6.86c3.78,0,6.86,3.08,6.86,6.86v57.15H75.44V11.43z M16,98.3v-4.57h36.58v4.57H16z M38.86,27.43h-9.14
		v-4.57h9.14V27.43z M34.29,4.57c2.52,0,4.57,2.05,4.57,4.57v9.14h-9.14V9.14C29.72,6.62,31.77,4.57,34.29,4.57L34.29,4.57z
		 M29.72,78.67V32h9.14v46.67l10.48,10.48H19.23L29.72,78.67z M52.36,137.16l-2.08-20.8l-4.55,0.46l2.03,20.35h-4.55l-2.08-20.8
		l-4.55,0.46l2.03,20.35h-8.66l2.03-20.35l-4.55-0.46l-2.08,20.8h-4.55l2.03-20.35l-4.55-0.46l-2.08,20.8H5.07
		c6.9-10.19,10.62-21.99,10.88-34.29h36.68c0.26,12.3,3.98,24.1,10.88,34.29H52.36z M91.44,132.59c-0.48,0-0.99-0.07-1.58-0.21
		l-1.5-0.36l-0.89,1.26c-1.72,2.43-4.51,3.88-7.45,3.88c-3.93,0-7.4-2.53-8.64-6.31l-0.77-2.33l-2.27,0.93
		c-1.17,0.48-2.41,0.76-3.65,0.84c-3.64-6.49-6-13.56-6.98-20.92c1.55-1.03,3.3-1.68,5.17-1.87l1.34-0.13l0.53-1.24
		c1.44-3.36,4.74-5.54,8.4-5.54c3.76,0,7.19,2.39,8.53,5.94l0.79,2.1l2.11-0.75c0.81-0.29,1.56-0.43,2.29-0.43
		c3.78,0,6.86,3.08,6.86,6.86c0,0.79-0.15,1.58-0.47,2.41l-0.74,1.95l1.88,0.91c2.4,1.16,3.9,3.52,3.9,6.15
		C98.3,129.51,95.22,132.59,91.44,132.59L91.44,132.59z M98.08,116.46c0.15-0.72,0.22-1.44,0.22-2.16c0-6.3-5.13-11.43-11.43-11.43
		c-0.6,0-1.19,0.05-1.79,0.15c-2.4-4.26-6.97-7.01-11.93-7.01c-5.04,0-9.63,2.75-12.02,7.12c-0.2,0.04-0.39,0.1-0.59,0.15
		l3.08-16.41h37.35l6,32h-6.42C99.86,117.96,99.04,117.14,98.08,116.46L98.08,116.46z M114.3,118.87h-2.68l-6.86-36.58H59.82
		l-2.67,14.27v-6.07l-6.86-6.86v-3.63c0-3.78,3.08-6.86,6.86-6.86h50.29c3.78,0,6.86,3.08,6.86,6.86V118.87z M67.44,106.5h4.57v4.57
		h-4.57V106.5z M62.87,115.65h4.57v4.57h-4.57V115.65z M74.3,127.08h4.57v4.57H74.3V127.08z M72.01,117.93h4.57v4.57h-4.57V117.93z
		 M78.87,111.08h4.57v4.57h-4.57V111.08z M83.44,122.51h4.57v4.57h-4.57V122.51z"/>
</g>
</svg>
