<?xml version="1.0" encoding="utf-8"?>
<!-- Generator: Adobe Illustrator 23.0.1, SVG Export Plug-In . SVG Version: 6.00 Build 0)  -->
<svg version="1.1" id="Слой_1" xmlns="http://www.w3.org/2000/svg" xmlns:xlink="http://www.w3.org/1999/xlink" x="0px" y="0px"
	 viewBox="0 0 119.31 142.73" style="enable-background:new 0 0 119.31 142.73;" xml:space="preserve">
<style type="text/css">
	.st0{fill:#ffffff;}
</style>
<g>
	<g>
		<g>
			<g>
				<path class="st0" d="M115.15,142.23h-111c-2.01,0-3.65-1.38-3.65-3.09V3.58c0-1.7,1.64-3.08,3.65-3.08h111
					c2.01,0,3.65,1.38,3.65,3.08v135.56C118.81,140.85,117.17,142.23,115.15,142.23z M4.15,1.67c-1.37,0-2.48,0.86-2.48,1.91v135.56
					c0,1.06,1.11,1.91,2.48,1.91h111c1.37,0,2.48-0.86,2.48-1.91V3.58c0-1.05-1.11-1.91-2.48-1.91H4.15z"/>
				<path class="st0" d="M115.15,142.73h-111c-2.29,0-4.15-1.61-4.15-3.59V3.58C0,1.61,1.86,0,4.15,0h111
					c2.29,0,4.15,1.61,4.15,3.58v135.56C119.31,141.12,117.44,142.73,115.15,142.73z M4.15,1C2.41,1,1,2.16,1,3.58v135.56
					c0,1.43,1.41,2.59,3.15,2.59h111c1.74,0,3.15-1.16,3.15-2.59V3.58c0-1.42-1.41-2.58-3.15-2.58H4.15z M115.15,141.56h-111
					c-1.64,0-2.98-1.08-2.98-2.41V3.58c0-1.33,1.34-2.41,2.98-2.41h111c1.64,0,2.98,1.08,2.98,2.41v135.56
					C118.13,140.48,116.8,141.56,115.15,141.56z M4.15,2.17c-1.07,0-1.98,0.65-1.98,1.41v135.56c0,0.77,0.91,1.41,1.98,1.41h111
					c1.07,0,1.98-0.65,1.98-1.41V3.58c0-0.77-0.91-1.41-1.98-1.41H4.15z"/>
			</g>
		</g>
		<g>
			<g>
				<path class="st0" d="M43.11,80.62c-4.7,0-8.39-4.06-8.39-9.25s3.68-9.25,8.39-9.25c4.7,0,8.39,4.06,8.39,9.25
					S47.81,80.62,43.11,80.62z M43.11,63.29c-4.05,0-7.22,3.55-7.22,8.08s3.17,8.08,7.22,8.08c4.05,0,7.22-3.55,7.22-8.08
					S47.15,63.29,43.11,63.29z M43.11,75.63l-0.12-0.02c-0.74-0.15-2.13-1.74-2.13-4.24c0-2.49,1.39-4.08,2.13-4.24l0.12-0.03
					l0.12,0.03c0.74,0.15,2.13,1.75,2.13,4.24s-1.39,4.08-2.13,4.24L43.11,75.63z M43.1,68.37c-0.34,0.31-1.07,1.32-1.07,3
					c0,1.65,0.7,2.65,1.08,2.99c0.38-0.34,1.08-1.34,1.08-2.99C44.19,69.71,43.47,68.7,43.1,68.37z"/>
			</g>
		</g>
		<g>
			<g>
				<path class="st0" d="M7.81,136.35V6.38l50.53,15.16v99.64l-0.42,0.12L7.81,136.35z M8.98,7.96v126.82l48.19-14.47V22.42
					L8.98,7.96z"/>
				<path class="st0" d="M7.81,136.85c-0.11,0-0.21-0.03-0.3-0.1c-0.13-0.09-0.2-0.24-0.2-0.4V6.38c0-0.16,0.07-0.31,0.2-0.4
					C7.64,5.89,7.8,5.86,7.95,5.9l50.53,15.17c0.21,0.06,0.36,0.26,0.36,0.48v99.64c0,0.22-0.15,0.42-0.36,0.48L7.95,136.83
					C7.9,136.84,7.85,136.85,7.81,136.85z M8.31,7.05v128.63l49.53-14.87V21.92L8.31,7.05z M8.98,135.28c-0.11,0-0.21-0.03-0.3-0.1
					c-0.13-0.09-0.2-0.24-0.2-0.4V7.96c0-0.16,0.07-0.31,0.2-0.4c0.13-0.09,0.29-0.12,0.44-0.08l48.19,14.46
					c0.21,0.06,0.36,0.26,0.36,0.48v97.89c0,0.22-0.15,0.42-0.36,0.48L9.12,135.26C9.07,135.27,9.03,135.28,8.98,135.28z M9.48,8.63
					v125.48l47.19-14.17V22.79L9.48,8.63z"/>
			</g>
		</g>
	</g>
	<g>
		<g>
			<path class="st0" d="M112.67,137.23H17.36l43.19-12.96c0.95-0.29,1.59-1,1.59-1.78V20.24c0-0.78-0.64-1.5-1.59-1.78L17.36,5.5
				h95.31V137.23z M25.34,136.06h86.16V6.67H25.34l35.54,10.67c1.45,0.43,2.43,1.6,2.43,2.9v102.25c0,1.3-0.97,2.47-2.43,2.9
				L25.34,136.06z"/>
			<path class="st0" d="M112.67,137.73H17.36c-0.25,0-0.46-0.18-0.49-0.43c-0.04-0.25,0.11-0.48,0.35-0.55L60.4,123.8
				c0.74-0.22,1.23-0.75,1.23-1.3V20.24c0-0.56-0.5-1.08-1.23-1.3L17.22,5.97c-0.24-0.07-0.39-0.31-0.35-0.55
				C16.91,5.18,17.12,5,17.36,5h95.31c0.28,0,0.5,0.22,0.5,0.5v131.74C113.17,137.51,112.95,137.73,112.67,137.73z M20.77,136.73
				h91.4V6h-91.4l39.92,11.98c1.16,0.35,1.95,1.26,1.95,2.26v102.25c0,1-0.78,1.91-1.95,2.26L20.77,136.73z M111.5,136.56H25.34
				c-0.25,0-0.46-0.18-0.49-0.43c-0.04-0.25,0.11-0.48,0.35-0.55l35.54-10.67c1.24-0.37,2.07-1.35,2.07-2.43V20.24
				c0-1.08-0.83-2.05-2.07-2.42L25.2,7.15c-0.24-0.07-0.39-0.31-0.35-0.55c0.04-0.25,0.25-0.43,0.49-0.43h86.16
				c0.28,0,0.5,0.22,0.5,0.5v129.4C112,136.34,111.78,136.56,111.5,136.56z M28.75,135.56H111V7.17H28.75l32.28,9.69
				c1.66,0.5,2.78,1.86,2.78,3.38v102.25c0,1.52-1.12,2.88-2.78,3.38L28.75,135.56z"/>
		</g>
	</g>
</g>
</svg>
