<?xml version="1.0" encoding="utf-8"?>
<!-- Generator: Adobe Illustrator 23.0.1, SVG Export Plug-In . SVG Version: 6.00 Build 0)  -->
<svg version="1.1" id="Слой_1" xmlns="http://www.w3.org/2000/svg" xmlns:xlink="http://www.w3.org/1999/xlink" x="0px" y="0px"
	 viewBox="0 0 142.73 143.73" style="enable-background:new 0 0 142.73 143.73;" xml:space="preserve">
<style type="text/css">
	.st0{fill:#ffffff;}
</style>
<g>
	<g>
		<g>
			<path class="st0" d="M121.66,142.73H21.08C11.37,142.73,1,135.81,1,116.4V27.33C1,7.92,11.37,1,21.08,1h100.58
				c9.7,0,20.07,6.92,20.07,26.33v89.06C141.73,129.13,136.46,142.73,121.66,142.73z M21.08,2.12c-9.17,0-18.96,6.62-18.96,25.22
				v89.06c0,18.59,9.79,25.22,18.96,25.22h100.58c13.98,0,18.96-13.03,18.96-25.22V27.33c0-18.59-9.79-25.22-18.96-25.22H21.08z
				 M101.67,137.76c-0.31,0-0.56-0.25-0.56-0.56v-2.4H90.69v1.78c0,0.31-0.25,0.56-0.56,0.56s-0.56-0.25-0.56-0.56v-1.78h-9.86v0.67
				c0,0.31-0.25,0.56-0.56,0.56s-0.56-0.25-0.56-0.56v-0.67h-8.64v1.78c0,0.31-0.25,0.56-0.56,0.56c-0.31,0-0.56-0.25-0.56-0.56
				v-1.78h-9.2v1.78c0,0.31-0.25,0.56-0.56,0.56c-0.31,0-0.56-0.25-0.56-0.56v-1.78h-8.83v2.4c0,0.31-0.25,0.56-0.56,0.56
				c-0.31,0-0.56-0.25-0.56-0.56v-2.4h-9.11v2.4c0,0.31-0.25,0.56-0.56,0.56c-0.31,0-0.56-0.25-0.56-0.56v-2.4h-9.95v2.4
				c0,0.31-0.25,0.56-0.56,0.56s-0.56-0.25-0.56-0.56v-2.4h-6.2c-0.8,0-1.81-0.06-2.91-0.28v0.95c0,0.31-0.25,0.56-0.56,0.56
				s-0.56-0.25-0.56-0.56v-1.22C12.5,132.95,7,128.81,7,116.4v-6.23h10.04v-2.83c0-0.31,0.25-0.56,0.56-0.56s0.56,0.25,0.56,0.56
				v2.83h9.11v-1.1c0-0.31,0.25-0.56,0.56-0.56s0.56,0.25,0.56,0.56v1.1h9.95v-1.1c0-0.31,0.25-0.56,0.56-0.56
				c0.31,0,0.56,0.25,0.56,0.56v1.1h9.11v-1.1c0-0.31,0.25-0.56,0.56-0.56c0.31,0,0.56,0.25,0.56,0.56v1.1h8.83v-1.72
				c0-0.31,0.25-0.56,0.56-0.56c0.31,0,0.56,0.25,0.56,0.56v1.72h9.2v-1.72c0-0.31,0.25-0.56,0.56-0.56c0.31,0,0.56,0.25,0.56,0.56
				v1.72h8.64v-2.83c0-0.31,0.25-0.56,0.56-0.56s0.56,0.25,0.56,0.56v2.83h9.86v-1.72c0-0.31,0.25-0.56,0.56-0.56
				s0.56,0.25,0.56,0.56v1.72h10.42v-1.1c0-0.31,0.25-0.56,0.56-0.56c0.31,0,0.56,0.25,0.56,0.56v1.1h9.95v-1.72
				c0-0.31,0.25-0.56,0.56-0.56s0.56,0.25,0.56,0.56v1.72h10.24v-2.83c0-0.31,0.25-0.56,0.56-0.56c0.31,0,0.56,0.25,0.56,0.56v2.83
				h11.07v6.23c0,5.06-1.15,16.27-11.07,18.14v0.93c0,0.31-0.25,0.56-0.56,0.56c-0.31,0-0.56-0.25-0.56-0.56v-0.77
				c-0.6,0.07-1.22,0.1-1.88,0.1h-8.35v1.78c0,0.31-0.25,0.56-0.56,0.56s-0.56-0.25-0.56-0.56v-1.78h-9.95v2.4
				C102.23,137.51,101.98,137.76,101.67,137.76z M113.3,133.68h8.35c0.66,0,1.29-0.04,1.88-0.11v-22.29H113.3V133.68z
				 M102.23,133.68h9.95v-22.4h-9.95V133.68z M90.69,133.68h10.42v-22.4H90.69V133.68z M79.71,133.68h9.86v-22.4h-9.86V133.68z
				 M69.95,133.68h8.64v-22.4h-8.64V133.68z M59.63,133.68h9.2v-22.4h-9.2V133.68z M49.69,133.68h8.83v-22.4h-8.83V133.68z
				 M39.46,133.68h9.11v-22.4h-9.11V133.68z M28.39,133.68h9.95v-22.4h-9.95V133.68z M18.16,133.37c1.11,0.25,2.12,0.32,2.91,0.32
				h6.2v-22.4h-9.11V133.37z M124.65,111.29v22.1c8.92-1.89,9.95-12.27,9.95-16.99v-5.11H124.65z M8.12,111.29v5.11
				c0,11.36,4.81,15.34,8.92,16.67v-21.78H8.12z M135.73,103.39H7v-75.9c0-16.61,9.84-18.4,14.07-18.4h100.58
				c4.23,0,14.07,1.79,14.07,18.4V103.39z M8.12,102.28h126.49V27.49c0-15.6-9.06-17.29-12.95-17.29H21.08
				c-3.89,0-12.95,1.68-12.95,17.29V102.28z M62.43,87.51c-0.52,0-1.02-0.17-1.46-0.51c-1.28-0.97-1.66-3-0.86-4.62l0.63-1.28
				l0.04,0.14l14.13-28.53l-14.3,4.19l-0.17-0.06c-0.82-0.27-1.47-0.98-1.79-1.93c-0.3-0.91-0.26-1.94,0.12-2.84l13.37-34.08l0,0
				c0,0,0.1-0.34,0.29-0.66c0.26-0.44,1.21-1.88,2.57-1.88c0.01,0,0.03,0,0.04,0l0,0c0.52,0.01,1.05,0.31,1.5,0.83
				c0.69,0.81,1.04,1.97,0.89,3.03c-0.05,0.35-0.14,0.68-0.27,1L65.49,50.64l14.72-4.16l0.18,0.08c0.79,0.34,1.44,1.07,1.77,2.01
				c0.29,1,0.2,2.07-0.25,2.98L64.94,85.77c-0.43,0.87-1.14,1.48-1.96,1.67C62.8,87.49,62.61,87.51,62.43,87.51z M60.88,83.56
				c-0.21,0.98,0.08,2.05,0.76,2.56c0.33,0.25,0.7,0.33,1.09,0.24c0.49-0.12,0.93-0.51,1.21-1.08l16.98-34.23
				c0.32-0.64,0.39-1.44,0.19-2.14c-0.2-0.54-0.55-1-0.99-1.24l-16.47,4.66l12.5-32.43c0.1-0.24,0.16-0.48,0.2-0.74
				c0.1-0.74-0.15-1.59-0.64-2.16c-0.23-0.27-0.48-0.43-0.68-0.44l0,0c-0.69,0-1.33,0.83-1.62,1.33c-0.12,0.21-0.2,0.45-0.2,0.45
				L59.81,52.49c-0.27,0.66-0.31,1.41-0.09,2.07c0.18,0.55,0.52,0.96,0.93,1.16l16.39-4.8L60.88,83.56z"/>
			<path class="st0" d="M121.66,143.73H21.08C10.89,143.73,0,136.55,0,116.4V27.33C0,7.18,10.89,0,21.08,0h100.58
				c10.19,0,21.07,7.18,21.07,27.33v89.06C142.73,129.61,137.19,143.73,121.66,143.73z M21.08,3.12c-8.68,0-17.96,6.36-17.96,24.22
				v89.06c0,17.86,9.28,24.22,17.96,24.22h100.58c13.24,0,17.96-12.51,17.96-24.22V27.33c0-17.86-9.28-24.22-17.96-24.22H21.08z
				 M101.67,138.76c-0.86,0-1.56-0.7-1.56-1.56v-1.4h-8.42v0.78c0,0.86-0.7,1.56-1.56,1.56s-1.56-0.7-1.56-1.56v-0.78h-7.9
				c-0.15,0.7-0.78,1.22-1.52,1.22s-1.37-0.52-1.52-1.22h-6.68v0.78c0,0.86-0.7,1.56-1.56,1.56s-1.56-0.7-1.56-1.56v-0.78h-7.2v0.78
				c0,0.86-0.7,1.56-1.56,1.56s-1.56-0.7-1.56-1.56v-0.78h-6.83v1.4c0,0.86-0.7,1.56-1.56,1.56s-1.56-0.7-1.56-1.56v-1.4h-7.11v1.4
				c0,0.86-0.7,1.56-1.56,1.56s-1.56-0.7-1.56-1.56v-1.4h-7.95v1.4c0,0.86-0.7,1.56-1.56,1.56s-1.56-0.7-1.56-1.56v-1.4h-5.2
				c-0.65,0-1.29-0.04-1.93-0.12c-0.11,0.76-0.76,1.34-1.54,1.34c-0.86,0-1.56-0.7-1.56-1.56v-0.48C11.3,133.35,6,128.77,6,116.4
				v-7.23h10.04v-1.83c0-0.86,0.7-1.56,1.56-1.56s1.56,0.7,1.56,1.56v1.83h7.11v-0.1c0-0.86,0.7-1.56,1.56-1.56s1.56,0.7,1.56,1.56
				v0.1h7.95v-0.1c0-0.86,0.7-1.56,1.56-1.56s1.56,0.7,1.56,1.56v0.1h7.11v-0.1c0-0.86,0.7-1.56,1.56-1.56s1.56,0.7,1.56,1.56v0.1
				h6.83v-0.72c0-0.86,0.7-1.56,1.56-1.56s1.56,0.7,1.56,1.56v0.72h7.2v-0.72c0-0.86,0.7-1.56,1.56-1.56s1.56,0.7,1.56,1.56v0.72
				h6.64v-1.83c0-0.86,0.7-1.56,1.56-1.56s1.56,0.7,1.56,1.56v1.83h7.86v-0.72c0-0.86,0.7-1.56,1.56-1.56s1.56,0.7,1.56,1.56v0.72
				h8.42v-0.1c0-0.86,0.7-1.56,1.56-1.56s1.56,0.7,1.56,1.56v0.1h7.95v-0.72c0-0.86,0.7-1.56,1.56-1.56s1.56,0.7,1.56,1.56v0.72
				h8.24v-1.83c0-0.86,0.7-1.56,1.56-1.56s1.56,0.7,1.56,1.56v1.83h11.07v7.23c0,4.94-1.1,16.48-11.07,18.94v0.13
				c0,0.86-0.7,1.56-1.56,1.56c-0.75,0-1.38-0.54-1.53-1.25c-0.3,0.01-0.61,0.02-0.91,0.02h-7.35v0.78c0,0.86-0.7,1.56-1.56,1.56
				s-1.56-0.7-1.56-1.56v-0.78h-7.95v1.4C103.23,138.06,102.53,138.76,101.67,138.76z M114.3,132.68h7.35c0.3,0,0.59-0.01,0.88-0.03
				v-20.37h-8.24V132.68z M103.23,132.68h7.95v-20.4h-7.95V132.68z M91.69,132.68h8.42v-20.4h-8.42V132.68z M80.71,132.68h7.86
				v-20.4h-7.86V132.68z M70.95,132.68h6.64v-20.4h-6.64V132.68z M60.63,132.68h7.2v-20.4h-7.2V132.68z M50.69,132.68h6.83v-20.4
				h-6.83V132.68z M40.46,132.68h7.11v-20.4h-7.11V132.68z M29.39,132.68h7.95v-20.4h-7.95V132.68z M19.16,132.54
				c0.63,0.1,1.27,0.15,1.91,0.15h5.2v-20.4h-7.11V132.54z M125.65,112.29v19.79c7.15-2.43,7.95-11.67,7.95-15.68v-4.11H125.65z
				 M9.12,112.29v4.11c0,7.83,2.39,13.05,6.92,15.2v-19.31H9.12z M136.73,104.39H6v-76.9C6,9.98,16.54,8.09,21.08,8.09h100.58
				c4.53,0,15.07,1.89,15.07,19.4V104.39z M9.12,101.28h124.49V27.49c0-14.17-7.49-16.29-11.95-16.29H21.08
				c-4.46,0-11.95,2.12-11.95,16.29V101.28z M62.43,88.52c-0.74,0-1.45-0.24-2.07-0.71c-1.68-1.27-2.17-3.79-1.15-5.86l1.76-3.58
				l0.04,0.15L73,54.31l-12.41,3.63l-0.47-0.16c-1.12-0.38-2-1.31-2.42-2.56c-0.37-1.14-0.32-2.42,0.14-3.54L71.18,17.7
				c0.06-0.23,0.17-0.51,0.39-0.88c0.32-0.55,1.54-2.37,3.43-2.37c0.88,0.02,1.67,0.44,2.3,1.18c0.87,1.02,1.3,2.49,1.13,3.82
				c-0.06,0.43-0.17,0.85-0.33,1.24L67.14,49.14l13.14-3.71l0.51,0.22c1.04,0.45,1.89,1.39,2.32,2.59c0.38,1.28,0.26,2.63-0.29,3.76
				L65.84,86.22c-0.56,1.14-1.52,1.94-2.62,2.2C62.96,88.48,62.69,88.52,62.43,88.52z M61.84,83.88c-0.1,0.64,0.12,1.23,0.41,1.45
				c0.11,0.08,0.18,0.08,0.26,0.07c0.15-0.03,0.37-0.2,0.54-0.55L80.02,50.6c0.21-0.42,0.25-0.96,0.12-1.41
				c-0.05-0.15-0.14-0.3-0.25-0.42l-17.9,5.06L75.2,19.54c0.07-0.18,0.12-0.34,0.14-0.51c0.06-0.45-0.11-1.02-0.41-1.37
				c-0.01-0.01-0.02-0.02-0.03-0.03c-0.15,0.11-0.42,0.4-0.65,0.79c-0.02,0.03-0.04,0.08-0.06,0.12v0.02l-0.07,0.18L60.74,52.86
				c-0.19,0.46-0.21,0.96-0.07,1.39c0.05,0.15,0.11,0.27,0.19,0.37l18.1-5.3L61.84,83.88z"/>
		</g>
	</g>
	<g>
		<g>
			<path class="st0" d="M17.6,133.39c-0.25,0-0.45-0.2-0.45-0.45v-22.56c0-0.25,0.2-0.45,0.45-0.45c0.25,0,0.45,0.2,0.45,0.45v22.56
				C18.05,133.19,17.85,133.39,17.6,133.39z"/>
			<path class="st0" d="M17.6,134.39c-0.8,0-1.45-0.65-1.45-1.45v-22.56c0-0.8,0.65-1.45,1.45-1.45s1.45,0.65,1.45,1.45v22.56
				C19.05,133.74,18.4,134.39,17.6,134.39z"/>
		</g>
	</g>
	<g>
		<g>
			<path class="st0" d="M27.83,137.76c-0.31,0-0.56-0.25-0.56-0.56v-28.13c0-0.31,0.25-0.56,0.56-0.56s0.56,0.25,0.56,0.56v28.13
				C28.39,137.51,28.14,137.76,27.83,137.76z"/>
			<path class="st0" d="M27.83,138.76c-0.86,0-1.56-0.7-1.56-1.56v-28.13c0-0.86,0.7-1.56,1.56-1.56s1.56,0.7,1.56,1.56v28.13
				C29.39,138.06,28.69,138.76,27.83,138.76z"/>
		</g>
	</g>
	<g>
		<g>
			<path class="st0" d="M38.9,137.76c-0.31,0-0.56-0.25-0.56-0.56v-28.13c0-0.31,0.25-0.56,0.56-0.56c0.31,0,0.56,0.25,0.56,0.56
				v28.13C39.46,137.51,39.21,137.76,38.9,137.76z"/>
			<path class="st0" d="M38.9,138.76c-0.86,0-1.56-0.7-1.56-1.56v-28.13c0-0.86,0.7-1.56,1.56-1.56s1.56,0.7,1.56,1.56v28.13
				C40.46,138.06,39.76,138.76,38.9,138.76z"/>
		</g>
	</g>
	<g>
		<g>
			<path class="st0" d="M49.13,137.76c-0.31,0-0.56-0.25-0.56-0.56v-28.13c0-0.31,0.25-0.56,0.56-0.56c0.31,0,0.56,0.25,0.56,0.56
				v28.13C49.69,137.51,49.44,137.76,49.13,137.76z"/>
			<path class="st0" d="M49.13,138.76c-0.86,0-1.56-0.7-1.56-1.56v-28.13c0-0.86,0.7-1.56,1.56-1.56s1.56,0.7,1.56,1.56v28.13
				C50.69,138.06,49.99,138.76,49.13,138.76z"/>
		</g>
	</g>
	<g>
		<g>
			<path class="st0" d="M59.07,137.14c-0.31,0-0.56-0.25-0.56-0.56v-28.13c0-0.31,0.25-0.56,0.56-0.56c0.31,0,0.56,0.25,0.56,0.56
				v28.13C59.63,136.89,59.38,137.14,59.07,137.14z"/>
			<path class="st0" d="M59.07,138.14c-0.86,0-1.56-0.7-1.56-1.56v-28.13c0-0.86,0.7-1.56,1.56-1.56s1.56,0.7,1.56,1.56v28.13
				C60.63,137.44,59.93,138.14,59.07,138.14z"/>
		</g>
	</g>
	<g>
		<g>
			<path class="st0" d="M69.4,137.14c-0.31,0-0.56-0.25-0.56-0.56v-28.13c0-0.31,0.25-0.56,0.56-0.56c0.31,0,0.56,0.25,0.56,0.56
				v28.13C69.95,136.89,69.7,137.14,69.4,137.14z"/>
			<path class="st0" d="M69.4,138.14c-0.86,0-1.56-0.7-1.56-1.56v-28.13c0-0.86,0.7-1.56,1.56-1.56s1.56,0.7,1.56,1.56v28.13
				C70.95,137.44,70.25,138.14,69.4,138.14z"/>
		</g>
	</g>
	<g>
		<g>
			<path class="st0" d="M79.15,136.02c-0.31,0-0.56-0.25-0.56-0.56v-28.13c0-0.31,0.25-0.56,0.56-0.56s0.56,0.25,0.56,0.56v28.13
				C79.71,135.78,79.46,136.02,79.15,136.02z"/>
			<path class="st0" d="M79.15,137.02c-0.86,0-1.56-0.7-1.56-1.56v-28.13c0-0.86,0.7-1.56,1.56-1.56s1.56,0.7,1.56,1.56v28.13
				C80.71,136.33,80.01,137.02,79.15,137.02z"/>
		</g>
	</g>
	<g>
		<g>
			<path class="st0" d="M90.13,137.14c-0.31,0-0.56-0.25-0.56-0.56v-28.13c0-0.31,0.25-0.56,0.56-0.56s0.56,0.25,0.56,0.56v28.13
				C90.69,136.89,90.44,137.14,90.13,137.14z"/>
			<path class="st0" d="M90.13,138.14c-0.86,0-1.56-0.7-1.56-1.56v-28.13c0-0.86,0.7-1.56,1.56-1.56s1.56,0.7,1.56,1.56v28.13
				C91.69,137.44,90.99,138.14,90.13,138.14z"/>
		</g>
	</g>
	<g>
		<g>
			<path class="st0" d="M101.67,137.76c-0.31,0-0.56-0.25-0.56-0.56v-28.13c0-0.31,0.25-0.56,0.56-0.56c0.31,0,0.56,0.25,0.56,0.56
				v28.13C102.23,137.51,101.98,137.76,101.67,137.76z"/>
			<path class="st0" d="M101.67,138.76c-0.86,0-1.56-0.7-1.56-1.56v-28.13c0-0.86,0.7-1.56,1.56-1.56s1.56,0.7,1.56,1.56v28.13
				C103.23,138.06,102.53,138.76,101.67,138.76z"/>
		</g>
	</g>
	<g>
		<g>
			<path class="st0" d="M112.74,137.14c-0.31,0-0.56-0.25-0.56-0.56v-28.13c0-0.31,0.25-0.56,0.56-0.56s0.56,0.25,0.56,0.56v28.13
				C113.3,136.89,113.05,137.14,112.74,137.14z"/>
			<path class="st0" d="M112.74,138.14c-0.86,0-1.56-0.7-1.56-1.56v-28.13c0-0.86,0.7-1.56,1.56-1.56s1.56,0.7,1.56,1.56v28.13
				C114.3,137.44,113.6,138.14,112.74,138.14z"/>
		</g>
	</g>
	<g>
		<g>
			<path class="st0" d="M124.1,136.02c-0.31,0-0.56-0.23-0.56-0.52v-26.18c0-0.29,0.25-0.52,0.56-0.52c0.31,0,0.56,0.23,0.56,0.52
				v26.18C124.65,135.79,124.4,136.02,124.1,136.02z"/>
			<path class="st0" d="M124.1,137.02c-0.86,0-1.56-0.68-1.56-1.52v-26.18c0-0.84,0.7-1.52,1.56-1.52s1.56,0.68,1.56,1.52v26.18
				C125.65,136.34,124.96,137.02,124.1,137.02z"/>
		</g>
	</g>
</g>
</svg>
