<?xml version="1.0" encoding="utf-8"?>
<!-- Generator: Adobe Illustrator 23.0.1, SVG Export Plug-In . SVG Version: 6.00 Build 0)  -->
<svg version="1.1" id="Слой_1" xmlns="http://www.w3.org/2000/svg" xmlns:xlink="http://www.w3.org/1999/xlink" x="0px" y="0px"
	 viewBox="0 0 197.64 144.73" style="enable-background:new 0 0 197.64 144.73;" xml:space="preserve">
<style type="text/css">
	.st0{fill:#ffffff;}
</style>
<g>
	<g>
		<path class="st0" d="M114.5,144.73h-0.88c-0.06,0-0.12,0-0.18-0.01l-78.6-9.51c-2.61-0.32-4.57-2.54-4.55-5.17v-14.47L9.06,136.8
			c-0.16,0.18-0.34,0.36-0.52,0.52c-1.05,0.9-2.39,1.34-3.76,1.23c-1.38-0.11-2.63-0.74-3.53-1.79s-1.33-2.38-1.23-3.76
			c0.1-1.36,0.72-2.59,1.75-3.49l26.88-26.81c-9.97-13.23-9.3-32.02,1.68-44.5V5.2c0-0.21,0.01-0.43,0.04-0.64
			c0.34-2.83,2.93-4.85,5.75-4.52l77.87,9.45l77.87-9.45c0.13-0.02,0.26-0.01,0.39,0c0.09,0,0.18-0.01,0.27,0
			c1.37,0.01,2.67,0.56,3.64,1.54c0.97,0.98,1.5,2.29,1.49,3.67v124.81c0.02,2.62-1.94,4.84-4.55,5.16l-78.41,9.51
			C114.62,144.73,114.56,144.73,114.5,144.73z M113.7,141.73h0.7l78.32-9.5c1.1-0.13,1.92-1.07,1.91-2.17V5.23
			c0-0.59-0.22-1.14-0.62-1.55c-0.41-0.41-0.95-0.64-1.53-0.65c-0.1,0-0.19,0-0.28,0.02c-0.11,0.01-0.22,0.01-0.33,0l-77.72,9.43
			c-0.12,0.01-0.24,0.01-0.36,0L35.75,3.02c-1.19-0.14-2.27,0.71-2.42,1.9C33.33,5,33.32,5.09,33.32,5.19v53.57
			c0,0.37-0.14,0.73-0.39,1.01c-10.67,11.72-11.15,29.82-1.12,42.09c0.49,0.6,0.44,1.47-0.1,2.01L3.84,131.67
			c-0.03,0.03-0.05,0.05-0.08,0.08c-0.44,0.38-0.71,0.9-0.75,1.48c-0.04,0.58,0.14,1.14,0.52,1.58c0.38,0.44,0.9,0.71,1.48,0.75
			c0.58,0.04,1.14-0.14,1.58-0.52c0.08-0.07,0.16-0.15,0.24-0.24c0.02-0.03,0.05-0.06,0.08-0.08l23.83-23.83
			c0.43-0.43,1.07-0.56,1.63-0.33c0.56,0.23,0.93,0.78,0.93,1.39v18.1c-0.01,1.12,0.81,2.05,1.91,2.18L113.7,141.73z M117.65,136.95
			c-0.36,0-0.72-0.13-0.99-0.38c-0.32-0.29-0.51-0.69-0.51-1.12V17.97c0-0.76,0.57-1.4,1.32-1.49l71.15-8.63
			c0.43-0.05,0.85,0.08,1.18,0.37c0.32,0.29,0.51,0.69,0.51,1.12v117.48c0,0.76-0.57,1.4-1.32,1.49l-71.15,8.63
			C117.77,136.95,117.71,136.95,117.65,136.95z M119.15,19.3v114.45l68.15-8.26V11.04L119.15,19.3z M188.8,126.82L188.8,126.82
			L188.8,126.82z M110.31,136.95c-0.06,0-0.12,0-0.18-0.01l-71.15-8.63c-0.75-0.09-1.32-0.73-1.32-1.49v-16.7
			c0-0.54,0.29-1.04,0.77-1.31c0.47-0.26,1.05-0.25,1.52,0.03c15.14,9.27,35.01,4.49,44.27-10.66c9.27-15.14,4.49-35.01-10.66-44.27
			c-10.37-6.34-23.25-6.34-33.62,0c-0.46,0.28-1.04,0.29-1.52,0.03c-0.47-0.27-0.77-0.77-0.77-1.31V9.31c0-0.43,0.18-0.84,0.51-1.12
			c0.32-0.29,0.75-0.42,1.18-0.37l71.15,8.63c0.75,0.09,1.32,0.73,1.32,1.49v117.51c0,0.43-0.18,0.84-0.51,1.12
			C111.03,136.82,110.68,136.95,110.31,136.95z M40.66,125.49l68.15,8.26V19.27L40.66,11v39.06c10.9-5.62,23.88-5.19,34.47,1.29
			c16.56,10.13,21.78,31.84,11.65,48.4c-9.67,15.8-29.9,21.29-46.12,12.93V125.49z M56.69,109.25c-7.13,0-14.26-2.71-19.69-8.13
			c-10.87-10.73-10.97-28.31-0.24-39.18L37,61.7c10.87-10.85,28.54-10.84,39.4,0.02c10.86,10.87,10.85,28.54-0.02,39.4
			C70.95,106.54,63.82,109.25,56.69,109.25z M56.69,56.56c-6.36,0-12.72,2.42-17.57,7.26c0,0,0,0-0.01,0.01l-0.22,0.22
			c-9.58,9.69-9.48,25.37,0.22,34.95c9.69,9.68,25.45,9.68,35.14,0.01c9.7-9.69,9.71-25.46,0.02-35.16
			C69.43,58.99,63.06,56.56,56.69,56.56z M38.06,62.76L38.06,62.76L38.06,62.76z"/>
	</g>
	<g>
		<path class="st0" d="M99.15,46.28c-0.1,0-0.21,0-0.31-0.01l-0.24,0c-0.06,0-0.12,0-0.18-0.01l-51.33-6.23
			c-0.06,0-0.12,0-0.18-0.01c-1.38-0.17-2.61-0.86-3.47-1.95s-1.24-2.45-1.07-3.83c0.17-1.38,0.86-2.61,1.95-3.47
			c1.09-0.86,2.45-1.24,3.83-1.07l51.4,6.24c2.76,0.16,4.94,2.62,4.77,5.47C104.15,44.16,101.87,46.28,99.15,46.28z M98.69,43.27
			h0.24c1.29,0.06,2.32-0.84,2.39-2.04c0.07-1.2-0.85-2.23-2.04-2.3l-51.49-6.25c-0.58-0.07-1.16,0.09-1.62,0.45
			c-0.46,0.36-0.75,0.88-0.82,1.47s0.09,1.16,0.45,1.62c0.35,0.44,0.84,0.73,1.39,0.81h0.01c0.06,0,0.12,0,0.18,0.01L98.69,43.27z"
			/>
	</g>
	<g>
		<path class="st0" d="M127.34,46.28c-2.71,0-5-2.12-5.17-4.87c-0.17-2.85,2.01-5.31,4.86-5.48l51.31-6.23
			c1.38-0.17,2.74,0.21,3.83,1.07s1.78,2.09,1.95,3.47c0.17,1.38-0.22,2.74-1.07,3.83s-2.09,1.78-3.47,1.95l-51.39,6.24
			c-0.06,0.01-0.12,0.01-0.18,0.01h-0.4C127.52,46.28,127.43,46.28,127.34,46.28z M178.97,32.66c-0.09,0-0.18,0-0.27,0.02
			l-51.39,6.24c-1.29,0.08-2.21,1.11-2.13,2.31c0.07,1.2,1.1,2.09,2.3,2.04c0.03,0,0.06,0,0.09,0h0.35l51.31-6.23
			c0.58-0.07,1.11-0.36,1.47-0.82c0.36-0.46,0.52-1.04,0.45-1.62s-0.36-1.1-0.82-1.47C179.93,32.83,179.45,32.66,178.97,32.66z"/>
	</g>
	<g>
		<path class="st0" d="M127.34,77.19c-2.71,0-5-2.12-5.17-4.87c-0.17-2.85,2.01-5.31,4.86-5.48l51.31-6.23
			c1.38-0.17,2.74,0.21,3.83,1.07c1.09,0.86,1.78,2.09,1.95,3.47c0.17,1.38-0.22,2.74-1.07,3.83s-2.09,1.78-3.47,1.95l-51.39,6.24
			c-0.06,0.01-0.12,0.01-0.18,0.01h-0.4C127.52,77.19,127.43,77.19,127.34,77.19z M178.97,63.57c-0.09,0-0.18,0-0.27,0.02
			l-51.39,6.24c-1.29,0.08-2.21,1.11-2.13,2.31c0.07,1.2,1.1,2.09,2.3,2.04c0.03,0,0.06,0,0.09,0h0.35l51.31-6.23
			c0.58-0.07,1.11-0.36,1.47-0.82c0.36-0.46,0.52-1.04,0.45-1.62s-0.36-1.1-0.82-1.47C179.93,63.74,179.45,63.57,178.97,63.57z"/>
	</g>
	<g>
		<path class="st0" d="M127.34,108.1c-1.27,0-2.47-0.46-3.43-1.3c-1.03-0.92-1.65-2.18-1.73-3.56c-0.08-1.38,0.38-2.71,1.29-3.75
			s2.18-1.65,3.56-1.73l51.3-6.23c1.38-0.17,2.74,0.22,3.83,1.07c1.09,0.86,1.78,2.09,1.95,3.47c0.34,2.84-1.69,5.44-4.54,5.78
			l-51.39,6.24c-0.06,0.01-0.12,0.01-0.18,0.01h-0.4C127.52,108.1,127.43,108.1,127.34,108.1z M178.97,94.48
			c-0.09,0-0.18,0-0.27,0.02l-51.39,6.24c-0.67,0.04-1.2,0.3-1.59,0.74c-0.39,0.44-0.58,1-0.54,1.58c0.03,0.58,0.29,1.11,0.73,1.5
			c0.44,0.39,1,0.59,1.57,0.54c0.03,0,0.06,0,0.09,0h0.35l51.31-6.23c1.21-0.14,2.07-1.24,1.92-2.44c-0.07-0.58-0.36-1.1-0.82-1.47
			C179.93,94.65,179.45,94.48,178.97,94.48z"/>
	</g>
</g>
</svg>
