<svg xmlns="http://www.w3.org/2000/svg" viewBox="0 0 302.66 79.25"><defs><style>.cls-1{fill:#0066b3;}.cls-2{fill:#fff;}.cls-3{fill:#ed1c24;}.cls-4{fill:#be1e2d;}.cls-5{fill:#808d9c;}.cls-6{fill:none;stroke:#fff;stroke-miterlimit:10;stroke-width:0.03px;}.cls-7{fill:#fabc42;}.cls-8{fill:#3e4040;}</style></defs><title>icon-Asset 1</title><g id="Layer_2" data-name="Layer 2"><g id="Layer_1-2" data-name="Layer 1"><path class="cls-1" d="M50.07,1.93A38.42,38.42,0,0,0,7.92,14.67,38.38,38.38,0,0,0,6,58.61,38,38,0,0,0,21.49,72.2c.1.17.26.19.57.33v-.06A38.18,38.18,0,0,0,46.73,75a39,39,0,0,0,4.68-1.44v0a2.57,2.57,0,0,0,.37-.18A38.45,38.45,0,0,0,75.71,42.74,37.83,37.83,0,0,0,76,36.91,38.39,38.39,0,0,0,50.07,1.93Zm-19.23,62a15.68,15.68,0,0,0,3.59-.67,51.36,51.36,0,0,1,7.18-2.11c1.46-.24,5.11-.72,5.22,1.54a15.74,15.74,0,0,1,4-1.06c-.21.11-.4.24-.61.35A27.14,27.14,0,0,1,30.84,63.93ZM52,61a4.34,4.34,0,0,0-.8-.08,8.37,8.37,0,0,0-2.28.38,5.91,5.91,0,0,1-1.26.39c-.27.23-.44.17-.51-.15a2.18,2.18,0,0,0-.34-.4c-2-1.88-6.22-.6-8.49.07-3.23.95-6.33,2.56-9.79,1.92-.18,0-.35-.08-.52-.12a26.31,26.31,0,0,1-8.93-5.75A27,27,0,0,1,38,11.07a28.11,28.11,0,0,1,3.88.27A27,27,0,0,1,64,30.84,27.3,27.3,0,0,1,52,61Z"/><path class="cls-2" d="M38,65.62A27.59,27.59,0,0,1,18.44,18.48a27.59,27.59,0,0,1,47.15,19.7,27.87,27.87,0,0,1-23,27.06,27.28,27.28,0,0,1-4.6.38m0,.69A28.3,28.3,0,0,0,56,16.2a28.31,28.31,0,0,0-45.8,27.44A28.25,28.25,0,0,0,38,66.31"/><path class="cls-2" d="M64.82,59.58c-.39-.63-.8-1.24-1.21-1.86l-.87,1.1Zm-4.25-.48c-.66-.21.19-1,.62-.9s.5.4.87.29c.18-.06.41-.45.52-.58.43-.56.64-.74.26-1.32-.23-.34-.4-.44-.15-.83s.36-.32.65-.11c.61.43.88,1.41,1.29,2S66,59.16,65.75,60c-.34,1-1.58.51-2.26.23C62.53,59.79,61.55,59.45,60.57,59.1Zm4.6-4.44c.38.21,1-.19,1.22-.51s.1-.59-.3-.83-.69-.49-1,0-.46,1,.07,1.34m-.44.92c-1.25-.7-.59-2.09-.06-3,.41-.75.68-.75,1.44-.36s1.24.76,1.89,1.09,1.38.56,1.23,1.28a7.69,7.69,0,0,1-.82,1.65c-.24.41-.82,1.09-1.06.29-.19-.6.66-1.4.93-1.87-.21-.11-.81-.61-1-.54s-.46.58-.58.74c-.52.7-1,1.26-1.92.76m1.12-4.79c-.2-.08,0-.64.07-.76.25-.33.51-.26.91-.25.7,0,1.47,0,1.71-.78-.51-.17-2.09-.27-2-1.08.19-1.25,2.88,1.09,2.33-.61-.18-.57-.91-.72-1.29-1.11s-.44-.94,0-1.14c.68-.29,2,1.44,2,2a2.51,2.51,0,0,1,2.25-.49.57.57,0,0,1,.07,1c-.29.2-.86,0-1.2.07s-1.65.36-.78.88c.3.17,2.18.36,1.3,1.19-.53.5-1.26-.5-1.83-.35-.92.24.47,1.27.8,1.51s.59.43.39.89-.36.42-.73.26a2.93,2.93,0,0,1-1.33-1.7,3.08,3.08,0,0,1-2.75.49m3.38-7.59A2.06,2.06,0,0,1,68,41.77c0-.41.23-1.1.75-1.06.79,0,.11.65.19,1,.14.62,1,.18,1.36,0s3.4-1.57,2.77-.21c-.41.89-2,1-2.85,1.16a21.68,21.68,0,0,1,2.14,1.11c.38.25.7.87.07,1.11-.39.14-1-.44-1.31-.63C70.5,43.89,69.86,43.56,69.23,43.2Zm-.82-4c-.22,0-.22-.78-.15-.89.22-.29,1.11-.15,1.44-.16.61,0,2.4.29,2.66-.36.45-1.11-1.09-.87-1.71-1s-3-.48-2.52-1.71a.46.46,0,0,1,.52-.35c.45.08.21.27.46.48a2.89,2.89,0,0,0,1.54.58c.87.14,2.41-.17,2.54,1,.09.78.3,2.08-.59,2.34a7.26,7.26,0,0,1-1.92,0C69.93,39.16,69.17,39.2,68.41,39.23Zm.36-5.08c-.87.17-1.15-1.19-1.14-1.8A2.12,2.12,0,0,1,69,30.45a2.9,2.9,0,0,1,3,.26A2.36,2.36,0,0,1,72.74,33c-.12.26-.57.75-.9.5s0-.64,0-1a1.3,1.3,0,0,0-1.54-1.29c-.73,0-1.72.39-1.8,1.24-.05.47.95,1.54.23,1.66m-.19-11.72c-.21-.39-.38-.95-.88-1s-.68.19-.74.6c0,.25.07.91.31,1S68.33,22.57,68.58,22.43Zm-3.07,2.81c-.33.15-.53-.67-.46-.86.17-.43,1.23-.7,1.6-.91a1.13,1.13,0,0,0-1.05-.73c-.54,0-1.39.47-1.8-.14-.63-.94,1.92-1,2.37-.59a1.19,1.19,0,0,1,1-1.53,1.93,1.93,0,0,1,1.88,1.12c.59.92.65,1.48-.38,2S66.55,24.67,65.51,25.24ZM65,17.14c-.71.22-1.4.48-2.09.73L63.75,19Zm-1.47,4c-.23.33-.53.08-.68-.17s-.06-.51.1-.82c.36-.67.36-.68-.17-1.32s-.52-.63-1.26-.42-1.24-.43-.48-.9a13.34,13.34,0,0,1,2.19-.71c.67-.26,1.77-1,2.44-.41s0,1.58-.4,2.17C64.64,19.41,64.08,20.28,63.51,21.15Zm-2-7.28c.3-.31.14-.63-.09-.92-.38-.5-.47-.37-.86.05s-.5.42-.09.8.73.43,1,.07m-1.25,1.72c.34-.35.17-.74-.1-1.07-.47-.58-.54-.5-1,0s-.55.52,0,.93c.34.28.77.56,1.16.14m.78.69a1.48,1.48,0,0,1-1.9.16c-.43-.23-1.28-.77-1.44-1.26-.22-.68.53-1.15,1-1.61s.8-.93,1.21-1.39.69-.74,1.22-.58a3.29,3.29,0,0,1,1.26,1.25c.51.88,0,2.41-1.22,1.89a1.21,1.21,0,0,1-.1,1.54m-4.07-4.81c.45-.67.69-1.62-.12-2.14s-1.94.33-2.28,1.2c-.67,1.75,1.5,2.37,2.4.94m.91.54a2.34,2.34,0,1,1-4-2.49c1.82-2.71,5.8-.3,4,2.49M54,7.23c-.28.65-1-.06-1.34-.21-.56-.21-.6.06-.82.56-.33.75-.55,1.54-.95,2.26-.22.4-.89,1.23-1.23.28-.18-.48.46-1.21.67-1.61.35-.69.56-1.88,1.13-2.4s.91-.08,1.47.15c.37.15,1.35.39,1.07,1M48,7c.18-.65.22-1.52-.46-1.9-.92-.52-1.69.24-2,1.07s-.3,1.78.62,2.12S47.81,7.8,48,7m1,.23a2.35,2.35,0,1,1-4.49-1.31,2.34,2.34,0,1,1,4.49,1.31m-6.38.85c0,.25-.85.11-.93,0s0-1.16.06-1.44c.06-.65.63-2.39-.12-2.68-1-.4-.91,1-1.09,1.64s-.88,2.93-2,2.25c-.57-.35-.13-.72.17-1a2.57,2.57,0,0,0,.88-1.56,17.8,17.8,0,0,1,.39-1.79c.25-.61.63-.5,1.18-.44.87.11,1.89-.13,1.92,1a11.15,11.15,0,0,1-.23,1.61C42.82,6.49,42.77,7.29,42.69,8.07ZM35.23,4c-.19.72-.36,1.43-.54,2.15l1.4-.1Zm2.54,3.45c.24.63-.79.53-1,.23s-.07-.71-.39-.89a1.5,1.5,0,0,0-.7,0,2.74,2.74,0,0,0-1,.14c-.35.21-.19.34-.31.71-.22.63-1,.86-1,0a17.3,17.3,0,0,1,.69-2.68c.14-.68.22-1.81,1.08-1.94s1.2.9,1.44,1.56C36.94,5.52,37.35,6.47,37.77,7.43Zm-5.48.76c.1.35-.81.35-1,.22-.42-.32-.13-1.17-.4-1.57s-.35-.27-.87-.16c-.33.07-.88,0-1,.38s.3,1,.37,1.28-.06,1.18-.7.87c-.32-.16-.37-.78-.43-1.08-.14-.64-.28-1.29-.46-1.93-.12-.45-.62-1.34-.24-1.76.51-.58.88.14,1,.54.17.66.05,1.11.8,1.07.28,0,1-.17,1.18-.44s-.23-.89-.29-1.25c-.09-.64.41-1.18.95-.54.31.37.29,1.1.38,1.54C31.79,6.31,32.06,7.25,32.29,8.19ZM20,8.66c-.48.31-1.65,1.28-.48,1.68a1.17,1.17,0,0,0,1-.28c.33-.31.22-.1.1-.49A4.53,4.53,0,0,0,20,8.66Zm3,2.88c.16.27-.63.58-.79.54-.32-.1-.48-.63-.62-.89-.67-1.24-1.22,0-1,.89.12.49.32.92-.15,1.29s-.53.26-.74-.1a2.89,2.89,0,0,1,0-2.18,1.17,1.17,0,0,1-1.58-.88,2,2,0,0,1,1-2c.88-.65,1.44-.75,2.06.24S22.4,10.53,23,11.54ZM15,12.6c.27.69.58,1.36.87,2l1.05-.94Zm4.1,1.2c.62.33-.36.91-.77.78s-.42-.47-.8-.43c-.19,0-.49.37-.61.48-.52.48-.75.62-.48,1.26.16.37.31.5,0,.84s-.41.25-.66,0c-.52-.53-.62-1.54-.92-2.21s-1.1-1.71-.71-2.45c.5-1,1.64-.22,2.26.17C17.28,12.79,18.19,13.29,19.09,13.8ZM15.2,17.73c.17.13-.22.61-.3.66-.3.17-.42,0-.7-.16s-.92-1-1.19-1c-.1,0-.46.49-.54.57-.45.5-.72.75-.2,1.25.34.33,1.21.62,1.14,1.12-.13.87-.88.36-1.23.06-.65-.56-1.34-1.12-2-1.62-.4-.28-1.5-.88-.72-1.42s1.33.6,1.77.95c.45-.55,1.44-1.19.74-1.79-.38-.33-1.57-.83-.7-1.44.56-.39,1.22.46,1.59.81C13.57,16.47,14.4,17.09,15.2,17.73Zm-4.76,4.13c-.73-.39-2,.75-1,1.35a2.4,2.4,0,0,0,.67.31c.37.05.14.14.42-.17a1,1,0,0,0-.06-1.49m.43-.94c1.27.73.75,2.61-.06,3.53-.52.6-1,.08-1.53-.24-.78-.48-1.6-.89-2.41-1.31-.4-.21-1-.77-.26-1.14s1.09.83,1.66.66c.31-.09.7-.94.94-1.2a1.23,1.23,0,0,1,1.66-.3M9.78,26.17c.34.12-.2.88-.37.93s-.82-.28-1.11-.4a11.48,11.48,0,0,0-2.62-.93,1.71,1.71,0,0,0-.34,1c.15.51,1.7.94,2.14,1.22A2.58,2.58,0,0,1,8.6,29.14c.15.38.29,1.09-.3,1.12s-.56-.7-.8-1a3.28,3.28,0,0,0-1.27-.82c-.67-.31-1.86-.63-1.88-1.5,0-.6.64-2.11,1.25-2.2s1.31.44,1.78.6ZM4,32.4c.63.37,1.29.7,1.94,1.05l.24-1.38Zm4-1.62c.67-.09.33.9,0,1.06s-.71-.1-1,.16a1.56,1.56,0,0,0-.18.68c-.13.72-.24,1,.39,1.4.31.16.47.14.52.54s-.1.54-.41.56c-.75,0-1.74-1-2.41-1.29S3.1,33.27,3,32.47c-.14-1,1-1.12,1.72-1.21C5.79,31.12,6.86,31,7.94,30.78ZM4.15,36.54a.82.82,0,0,0-.82.9c0,.35-.06.27.14.42a1.92,1.92,0,0,0,.8.09c1.3.06.78-1.37-.12-1.41m0-1a1.5,1.5,0,0,1,1.45,1c.2.49,0,1.3.51,1.48s1.11-.29,1.41.14c.45.64-.3.91-.73.88-.81,0-1.62-.09-2.43-.1-.6,0-1.53.25-1.79-.45-.4-1.1.29-3,1.58-2.94m3,4.81c.66-.06.64,1.58.68,2,.08,1.21-1,1-1.92,1.07s-2.54.73-3-.12c-.23-.44-.55-2.1,0-2.44,1-.67.53,1.63.77,1.81a2,2,0,0,0,1.12-.17c.12-.15,0-.47,0-.66s-.25-.73,0-.94a.47.47,0,0,1,.69.26c.16.32-.16.8.11,1.11s1,.06,1.4,0c0-.43-.59-1.86.17-2M4.44,46.94c.24.83.12,1.14,1,1a5.33,5.33,0,0,1,2.72,0c-.17-.6-.18-1.7-.82-1.84C6.49,45.92,5.26,46.71,4.44,46.94Zm4.66-3c.35-.11.32.76.13.91s-.82-.1-1,.34.53,2,.68,2.5c.28.94.57.15,1.23.32a.48.48,0,0,1,.29.79,3.69,3.69,0,0,1-1.56.46c-.5-.06-.79-.47-1.36-.47-.9,0-2.17.59-3,.24-.52-.21-.5-.72-.62-1.2s-.57-1.13-.27-1.56c.59-.85,2.55-.57,3.38-1.07.48-.29.12-.07.35-.48s.11-.25.5-.41A11.22,11.22,0,0,1,9.1,43.94Zm.25,6c.65-.27,1.09,1.28,1.27,1.7.5,1.18-.93,1.42-1.76,1.78-.66.29-1.87,1.37-2.55.74a5.15,5.15,0,0,1-1-2.19c.4-1.08,1.05.62,1.16.85s.18.37.49.36a1.72,1.72,0,0,0,.82-.38c.25-.55-.83-1-.52-1.52.53-.92,1.13.91,1.25,1.17.59-.28,1.31-.3,1.1-1-.12-.4-1-1.17-.3-1.49m.79,8.18A1.14,1.14,0,0,0,12,56.82Zm-.21-2.31a1.1,1.1,0,0,0-.34,1.52L11.45,56a1.13,1.13,0,0,0-1.52-.22M9.31,55a1.73,1.73,0,0,1,2,0c.23.13.55.42.82.44.08,0,.28-.25.5-.18.75.21.23.76.14,1-.17.52.41,1.19.23,1.82a2,2,0,0,1-1.7,1.33c-.75.06-.92-.5-1.52-.73s-.94.34-1.2-.32c-.17-.43.1-.48.26-.67s-.35-1.16-.35-1.36A1.71,1.71,0,0,1,9.31,55"/><path class="cls-2" d="M38,65.62A27.59,27.59,0,0,1,18.44,18.48a27.59,27.59,0,0,1,47.15,19.7,27.87,27.87,0,0,1-23,27.06,27.28,27.28,0,0,1-4.6.38m0,.69A28.3,28.3,0,0,0,56,16.2a28.31,28.31,0,0,0-45.8,27.44A28.25,28.25,0,0,0,38,66.31"/><path class="cls-2" d="M43.72,61c1.14,0,3.05.23,3.09,1.75a13.78,13.78,0,0,1,4.54-1.09c.43,0,.92.24,1.31.24.23,0,.29,0,.56-.22L50.76,77.27a4,4,0,0,0-3.07-.48,40.61,40.61,0,0,0-5,1.84c-1,.38-2.93,1.05-4,.25-.57-.44-.43-1-.36-1.65a27.37,27.37,0,0,1-5,1.66,16.53,16.53,0,0,1-5.48-.09,16.42,16.42,0,0,1-5-1.63c-.53-.28-1.34-.57-1.42-1.14a6.86,6.86,0,0,1,.27-1.61l.43-2.61,1-6.21.63-3.8c2.66,1.58,5.15,2.51,8.31,2,4-.64,7.48-2.81,11.57-2.84"/><path class="cls-3" d="M39.61,72.05l-.46,3.32c-.1.7-.74,2.72,0,3.18s2,0,2.68-.18c1-.3,1.9-.72,2.83-1.1,1.6-.64,4-1.77,5.67-.82.25-2,.62-4,.88-6,.05-.32.12-.36,0-.58-.35-.45-1.41-.36-1.86-.32a26.24,26.24,0,0,0-5.1,1.53c-1.34.44-3.17,1.26-4.61,1"/><path class="cls-1" d="M51.06,71.62c.14-.86.27-1.73.41-2.6.09-.57.55-1.9.16-2.26-.69-.66-2.45-.18-3.21,0-2.35.66-4.62,1.73-7,2.15a6.46,6.46,0,0,0-1.22.09c-.09.08-.08.51-.1.62l-.42,2.67c-.1.68-.32,1.21.46,1.57,1,.48,2.43,0,3.42-.39,2-.78,5.31-3,7.54-1.88"/><path class="cls-4" d="M38.76,78.11c.23-1.56,2.88-1,3.93-1.08.62,0,1.38-.13,1.65-.76a8.45,8.45,0,0,0,.26-2.37l-2.2,0-1.73,0c-.25,0-.9-.12-1.13,0s-.32,1.27-.39,1.69Z"/><path class="cls-3" d="M22,76l1.2-7.17a11.58,11.58,0,0,0,5,1.72c3.29.26,6.19-1.1,9.26-2a21.33,21.33,0,0,1,4.74-1c.86-.06,2.15-.14,2.86.49s.13,2.58,0,3.44c-.24,1.61-.49,3.22-.73,4.83.39-2.51-8,1.15-8.92,1.49A15.4,15.4,0,0,1,22,76"/><path class="cls-1" d="M35.52,67.77a13.59,13.59,0,0,1-7.63.91,13.85,13.85,0,0,1-4.35-1.9l-.32,1.94a10.12,10.12,0,0,0-.41,2.47c.07.76,2,1.38,2.64,1.64a14.1,14.1,0,0,0,5,.83c3.16-.06,5.91-1.42,8.88-2.31,1.07-.32,5.15-1.78,5.76-.08.13-.82.25-1.65.37-2.48a6.33,6.33,0,0,0,.29-2c-.2-.64-1.44-.72-2-.75a20.71,20.71,0,0,0-8.26,1.77"/><path class="cls-5" d="M50.62,42.52c-.08-.2-.17-.4-.26-.59a1.39,1.39,0,0,1,.58.57c-.13.16-.24.16-.32,0m-2.56,0c0-.7-.25-1.37-.29-2.06a11.24,11.24,0,0,1,.69,2.2,1.9,1.9,0,0,0-.4-.14M47,49.07c.05-.11,0,.15,0,0m0,.71,0-.12a.13.13,0,0,1,0,.12m3.58,3.57c-.13.28-.45,1.27-.71,1.3a.9.9,0,0,1-.53-.33c-.33-.78.84-.89,1.24-1m.62-.18c-.05.35-.29.37-.53.16a2.49,2.49,0,0,0,.53-.16m-20.2,3.3a.64.64,0,0,1,.2-.31C31.13,56.41,31.1,56.33,30.93,56.47Zm-2-6.7c.09-.21,0-.05,0,0m-3.82-2.24c.11,0,0,0,0,0m1.09-2.69A1.94,1.94,0,0,1,25,42.46a15.85,15.85,0,0,1,1.64-2.81c-.27.77-2.26,3.66-.6,4.16s1.74-2.49,2.17-3.32a11,11,0,0,0-.33,1.95,1.24,1.24,0,0,0,1.05,1c1.39.06,1.18-2,1.2-2.85.72.52,1.18-1,1.61.22a2.76,2.76,0,0,1-.42,2.8,1.53,1.53,0,0,0,.67-.12,1.56,1.56,0,0,1-2,.63,1.06,1.06,0,0,0,.13.39,2.09,2.09,0,0,0-1.91,1.92c-.35-.48-1.26-.12-1.26.45a3.86,3.86,0,0,0-.87-.35c.28.13.57.25.85.39-.46-.21-.94-.35-1.41-.53Zm26.48-3.59v.17a.26.26,0,0,1,0-.41c.1.08.09.16,0,.24m-2.65,0a.49.49,0,0,1,.42.41c-.3,0-.31-.17-.42-.41m-5.43,2.88a1.33,1.33,0,0,1-.65-.65,1.53,1.53,0,0,0,.67.12,2.7,2.7,0,0,1-.43-2.76c.48-1.33.87.28,1.62-.26,0,.63.32,1.51,0,2.1s-1,.85-1.24,1.45M46,50.66v0Zm1.35,4.1-1.32-.61L47,52.2c.26.21,1.12.45,1.22.77S47.53,54.44,47.38,54.76ZM29,49.48c0,.17,0,.1,0,0m23-9.09a.38.38,0,0,1,.39.18.52.52,0,0,1-.39-.18m-2.36,0a1.09,1.09,0,0,1,.38.47c-.26,0-.29-.29-.38-.47M46,50l0,.28L46,50m0-.39,0,.13,0-.13m-3.67,6.07.64.3c-.4.74-1.24-.21-.64-.3m-6-1.26.56-.28c-.13.6,0,1.56-.8,1.47a6.13,6.13,0,0,1,.24-1.19M33,56a1.91,1.91,0,0,1,.32-.16c0,.27-.1.46-.32.16m3.74-2.94c.54.12,0,.4-.2.52.06-.17.13-.35.2-.52m5.9-5.65a3.38,3.38,0,0,0-2.59.7c.46-.9,1.78-1.62,2.59-.7m-1.55,3.84c-.1,0-1-.52-.94-.61a1.6,1.6,0,0,1,1.21.47Zm-4.6,0c-.15,0,.21-.34.2-.32l-.2.32m.93,0c-.22,0,0-.31,0-.33l0,.33m2.79,1.12c.5-.46,1.19.47,1.46.8a3.23,3.23,0,0,1-1.46-.8M40,51.77c.06,0,0,.09,0,0M38.42,51c0,.19.1.38.16.57-.16-.08-.14-.43-.16-.57m3.1-2.11c0,1,1.41,1.28,2.08.69a.58.58,0,0,0,.13.38l-2.24,1.15c0-1-1.93-1.56,0-2.22m0,0a2.32,2.32,0,0,1,1.14,0,1.09,1.09,0,0,1-1.14,0m2.61.68c0,.1.11.13.2.07a1,1,0,0,1-.34.18l.14-.25m-.28,3.41a14.61,14.61,0,0,0-2-1.31l2.84-1.43a3.5,3.5,0,0,1-.81,2.74m-8.59-2.09-.2-.1a5.77,5.77,0,0,1,.71-.1.59.59,0,0,1-.51.2m-1.1-.52-1-.46a1.13,1.13,0,0,0,1.18-1c-.64.29-1.5,0-1.43-.76a1.27,1.27,0,0,1,1.7-1A1.91,1.91,0,0,1,36,48.73c0,.71-1,1.91-1.8,1.57M27.6,47.13c0,.17-.09,0,0,0m9,10.3a1.18,1.18,0,0,1-.45-.68c.56,0,.38.13.45.68M39.24,55a5.75,5.75,0,0,0,.34-.65c.42.75.66,2.53-.22,3.06A8.85,8.85,0,0,0,39.24,55m9.07-7.85c0,.56-.14.47-.66.73-.1-.33.57-.43.66-.73m2.46-8.47a6.27,6.27,0,0,1,.84.94,1.66,1.66,0,0,1-.84-.94m-1.43.95.12.2c-.11,0-.15-.08-.12-.2M23.47,41l-.28,0a14.87,14.87,0,0,1,2-2.3A15.45,15.45,0,0,1,23.47,41m-1.61,6.23c-.43,0-.54.83-1,.58s0-.72-.09-1-.29-.34-.38-.51a1.85,1.85,0,0,1-.19-1.11,1.81,1.81,0,0,1,1.07-1.43c.27-.13.57-.15.83-.26s.42-.36.61-.4c.67-.12.41.73.47,1s.35.56.4.89a1.93,1.93,0,0,1-.14,1.06,2,2,0,0,1-1.56,1.15M37.13,21a3.87,3.87,0,0,1,2.33.53,7.71,7.71,0,0,0,2.75,1.17c-.62,0-1.9.28-2.37-.26,0,.73,1.24,1.1,1.82,1.23a3,3,0,0,1-1.57-.22,2,2,0,0,0,1,.79,2.94,2.94,0,0,1-2.5.89,1.26,1.26,0,0,0,1.09.43A10.26,10.26,0,0,0,38,30.16a10.41,10.41,0,0,0-1.73-4.61,1.24,1.24,0,0,0,1.1-.43,2.91,2.91,0,0,1-2.49-.89,2,2,0,0,0,1-.79,3,3,0,0,1-1.57.22c.58-.13,1.77-.5,1.82-1.23-.46.54-1.77.26-2.38.26A6.73,6.73,0,0,0,37.13,21M25.29,47.57Zm.34-1.09c-.21-.12-.05,0,0,0m21.31,2.83c-.08,0-.08-.06,0-.14v.14m0,.09c.07.09.08.15,0,.19ZM59.29,32.21A3.85,3.85,0,0,0,57,31.84c.71-.23,2.4-1.13,2.32-2.08s-1.5-.41-2.08-.28c.67-.49,1.74-1.36,1.65-2.31s-1.81-.16-2.36.06c1.38-.76,2.34-2.79,1.34-4.2-1.25.72-2,2-3.15,2.88,1.13-1.3,3.92-5.21,1.23-6.51a26.54,26.54,0,0,1-3.75,6.12.82.82,0,0,0-.36-.28A5.25,5.25,0,0,1,50,27.78a2,2,0,0,0-.24-.46,20.77,20.77,0,0,1-2.71,2.84c-.68.69-1.43,1.6-.79,2.57.23.35.68.57.78,1A1.27,1.27,0,0,1,46.41,35,1.72,1.72,0,0,1,44,34.64a1.33,1.33,0,0,0,.73-2.2c-.52.92-1.78.59-2.37-.07a1.1,1.1,0,0,0,1.51-1.12c-.81.7-1.69-.08-1.94-.91a3.39,3.39,0,0,1,.65-2.67c.23-.35.56-.78.89-.85,0,0,.34.1.44.11a3.11,3.11,0,0,0,.67-.16c.86-.17,1.79.17,1.76,1.2,1-.58.21-1.48-.6-1.7,1,0,1.58,1.21,2.61,1,.51-.09,1.87-.88,1.22-1.5-.37,1.53-3-.09-3.94,0,.74-.42,2-.52,2.56.29A1.56,1.56,0,0,0,48.46,24c-.3-.41-.66-.4-1.1-.57a3.3,3.3,0,0,1-.45-.26c-.28-.14-.31-.28-.52-.46a3.38,3.38,0,0,0,2.71-1.07c.68-1-.66-2.07-.12-3.09.45.22,1.29.39,1.61.8s0,1.16-.22,1.63a1.81,1.81,0,0,0,0,1.76c.27.56.65,1.08.07,1.62a1.05,1.05,0,0,0,1.14-1c0-.51-.5-.84-.48-1.34.37.5.72.43,1.28.44s.73,0,.43.61c.45-.25.86-1.09.35-1.47s-1.67.37-.94-.73c.46-.68,1-1.32,0-1.93-.7-.45-1.27-.43-1.85-1.11s-.93-.92-1.73-.48-1.44.75-1.29,1.65,1,1.55.7,2.39-1.21,1-1.88,1.13c-.15-.85,1-1.56.41-2.4-.14-.2-1.5-1-1.49-.45-.24-.11,0-.28,0-.45s-.14-.41.08-.41a2.16,2.16,0,0,1-.27-.33,2.08,2.08,0,0,1,.32.27v-1a1.35,1.35,0,0,1-.32.26,2.08,2.08,0,0,1,.27-.32h-1a2.69,2.69,0,0,1,.27.32,1.64,1.64,0,0,1-.33-.26v1a1.64,1.64,0,0,1,.33-.26,4.15,4.15,0,0,1-.27.32c.08,0,.26.76,0,.86-.07-.53-1.29.2-1.45.4-.61.77.27,1.59.38,2.36a6.51,6.51,0,0,1-2.52-1.36c-.84-.8-.49-1.5,0-2.4a2.28,2.28,0,0,0,.21-2.34c-.28-.41-2-1.38-2.09-.64-.31,0-.17-.34-.41-.32a.63.63,0,0,0,.31-.61c0-.3-.4-.45,0-.45a1.46,1.46,0,0,1-.39-.53,1.27,1.27,0,0,1,.53.38V13a1.49,1.49,0,0,1-.52.38c0-.21.25-.39.38-.53H37.33c.13.15.34.33.38.53a1.44,1.44,0,0,1-.53-.38v1.26c.15-.13.32-.34.53-.38a1.33,1.33,0,0,1-.38.53c.4,0,0,.16,0,.45a.65.65,0,0,0,.32.61c-.28,0-.06.17-.16.23a.2.2,0,0,1-.28,0c-.21,0-.41-.14-.73-.05-.86.24-1.64.71-1.62,1.69s1.16,2,1,3-2.14,1.89-3.05,2.18c.08-.65.67-1.34.53-2a1.1,1.1,0,0,0-.72-.73c-.13-.05-1.08-.14-.89,0-.21-.15,0-.27,0-.45s-.15-.41.07-.41a2.08,2.08,0,0,1-.27-.32,1.64,1.64,0,0,1,.33.26v-1a1.64,1.64,0,0,1-.33.26,2.08,2.08,0,0,1,.27-.32h-1a2.08,2.08,0,0,1,.27.32,1.64,1.64,0,0,1-.33-.26v1c.11-.1.21-.18.33-.27a2.16,2.16,0,0,1-.27.33c.27,0,0,.12.06.33a1.78,1.78,0,0,1,.1.51c-.23,0-.39-.19-.75-.08a1.94,1.94,0,0,0-.86.54c-.61.83.52,1.57.41,2.41-.64-.11-1.55-.37-1.84-1s.38-1.53.59-2.24-.23-1.36-.94-1.75-1.29-.5-1.9.19a2.83,2.83,0,0,1-.78.8c-.33.18-.73.2-1.07.38-1.06.58-.55,1.25-.07,2,.68,1.08-.37.41-.87.68s-.18,1.26.28,1.52c-.29-.54,0-.58.42-.61s.9.09,1.29-.44c0,.5-.49.83-.48,1.34a1.06,1.06,0,0,0,1.14,1c-.65-.62-.1-1.2.16-1.82a2,2,0,0,0-.2-1.79c-.17-.39-.42-1.07-.09-1.47s1.19-.53,1.6-.73c.54,1-.78,2.05-.12,3.09a3.38,3.38,0,0,0,2.71,1.07c0,.39-.16.13-.33.28s-.24.34-.24.34c-.41.22-.94.11-1.34.46a1.56,1.56,0,0,0,.12,2.26c.52-.81,1.82-.71,2.56-.29-.92-.06-3.56,1.56-3.94,0-.64.62.71,1.42,1.21,1.5,1,.16,1.6-1,2.62-1-.81.22-1.62,1.12-.6,1.7,0-1,.9-1.37,1.76-1.2a9.68,9.68,0,0,0,1,.11c.27,0,.21-.09.52.23a4,4,0,0,1,.44.56A3.39,3.39,0,0,1,34,30.34c-.25.84-1.13,1.61-1.94.91a1.1,1.1,0,0,0,1.51,1.12c-.59.65-1.86,1-2.37.07a1.33,1.33,0,0,0,.73,2.2,1.73,1.73,0,0,1-2.42.38,1.29,1.29,0,0,1-.67-1.15c0-.52.52-.74.79-1.14.64-1-.11-1.88-.79-2.57a20.77,20.77,0,0,1-2.71-2.84,2,2,0,0,0-.24.46,5.25,5.25,0,0,1-1.81-2.54.82.82,0,0,0-.36.28A26.54,26.54,0,0,1,20,19.4c-2.7,1.29.1,5.21,1.22,6.51C20,25.09,19.31,23.75,18.05,23c-1,1.41,0,3.44,1.34,4.2C18.8,27,17.1,26.15,17,27.17S18,29,18.69,29.48c-.56-.13-2.2-.52-2.05.4s1.48,1.69,2.28,2c-.55,0-2.25-.17-2.19.67s1.65,1.55,2.42,1.66c-.62.07-2.45.53-1.74,1.43a2.57,2.57,0,0,0,1.93.65c-.55.19-1.68,1-1.07,1.55s2.12.21,2.85-.06c-.57.24-2.93,1.73-1.53,2.4s2.55-.88,3.47-1.49c-.6.63-1.49,1-1.94,1.77-.24.4-.55,1.28.17,1.4-.14.17-.78.1-1,.15a1.32,1.32,0,0,0-.93.75c-.25.48-.11.33-.57.56s-.72.49-.63,1,.29.39.18.8-.4.66-.24,1.21c.12.39.48.62.61,1s-.1.82.48.9c-.48.74.34,1.39,1.05,1.39h0c.65,0,.68-.28,1.22-.46.24-.08.54-.06.79-.14a2.39,2.39,0,0,1,.53-.19c.4-.06,1.06.33,1.41.17s.63-1.1.8-1.45a3.78,3.78,0,0,0,1.26.69c.33.14,1,.23,1.2.53s-.06.61.12.86.85,0,.75-.4c.06.26-.19.53,0,.77a.37.37,0,0,0,.62,0c0,.61.76.43.82,0l4.06,1.89c-.71.36-1.26,1.16-2,1.37-.62.17-1.41-.59-.66-1-.48-.12-1,.35-1.16.76-.1.22,0,.5-.09.68s-.34.34-.6.56c-.77.65-1.47,2-.72,2.87a2.49,2.49,0,0,1,1-1.63,2.24,2.24,0,0,0,.56,1.59c-.36.19-2.45.87-2.3,1.4s2.08-.72,2.36-.86c-.1.38.91-.45,1.07-.54A1.64,1.64,0,0,0,32.83,58a2.71,2.71,0,0,1-3.36.68c.28,1.07,1.61,1.35,2.56,1.17A2.88,2.88,0,0,0,34.17,58a2,2,0,0,0,2.68.49c.17.38.58,1.21,1,1.26s1-.84,1.18-1.26a2,2,0,0,0,2.92-1c.58.22.93.62,1.61.44a1.64,1.64,0,0,0,1.14-1.18c.47.13.57.72,1.07.82a.72.72,0,0,1-.08-.35c.63.29,3.26,2,3.86,1.11.7-1.09-1.88-1.18-1-1.9.47-.4.8.32,1.27.38s.48-.17.68-.61c.31-.65.57-1.33.89-2s.5-.85-.14-1.15a2.83,2.83,0,0,0,1.56-2.61,2.23,2.23,0,0,0-.54-1.39c-.51-.55-1-.2-1.63-.5a3.45,3.45,0,0,0,.8,1.14c-.33.14-.76-.23-1-.41,0,.59.79.82,1,1.33.26.76-.5,1.27-1.15,1.36-1.17.17-3.34-.88-3.34-2.16,0,.33.5.17.61,0s-.11-.81,0-.86c-.07.31.17.8.55.67s.18-.49.2-.75c.07-.89,1-1,1.66-1.39L55.15,45a1.89,1.89,0,0,1-.38-.73c-.57.3-1.2.48-1.78.76.13.24-1.69,1-2,1.19a12.76,12.76,0,0,1-1.38.81c-.59.23-.42.13-.71-.29s-.76-.66-1.15-.27A2.06,2.06,0,0,0,46,44.56c.35-.58,1.21-1.22,1.88-.73s.12,1.47.72,1.79c0-.29-.07-.88.23-1a4.21,4.21,0,0,0,.47,1.32c.16-.87.86-1.17.37-2.11.51.11,1.09-.55,1-1.06a3.92,3.92,0,0,0,1.92.52c-.15-.19-.06,0,0-.15.38.49-.17,0,0,.47.06.2.25.32.29.47s0,.36,0,.45l.19.07a.35.35,0,0,0,0,.39c.34-.19.69-.34,1-.52a1,1,0,0,1-.48-1.67c.18-.2.45-.31.63-.52s.12-.31.27-.41c.4-.27.32.2.52-.38.46-1.36-1.38-2-2.13-2.79.85.56,2.32,2.21,3.54,1.47s-1-2.13-1.6-2.38c.7.25,2.33.74,2.93,0s-.66-1.32-1.15-1.49c.57,0,2.24-.26,2.13-1.1-.09-.67-1.42-.92-1.94-1,1-.15,2.35-.79,2.51-2"/><path class="cls-5" d="M56.1,42.29c-.53.27-.54.71-.87,1.08s-.41.12-.45.57a2.15,2.15,0,0,0,.55,1.12c.07.07.16.22.28.23.32,0,.23-.22.39-.25.38-.07.76.19,1.18.08a1.52,1.52,0,1,0-1.08-2.83"/><path class="cls-5" d="M52.94,45a.34.34,0,0,1-.06-.37c-.26-.07-1,.23-1,.54A1.59,1.59,0,0,0,52.94,45"/><path class="cls-5" d="M52.7,44.51a.32.32,0,0,1,0-.49,1.6,1.6,0,0,0-1.36.38c.33.33,1,.22,1.36.11"/><path class="cls-5" d="M52.57,43.94a.42.42,0,0,1,0-.65,3.59,3.59,0,0,0-1.81.14,2.57,2.57,0,0,0,1.85.51"/><path class="cls-5" d="M56.33,46.57c-.52,0-.77.48-1.33.19a1.12,1.12,0,0,1-.42-1.32c-.35.17-.69.37-1,.53,0,.15.17.22.3.26-.15.25,0,.52.31.46,0,.35.2.71.57.52,0,.5.29.41.57.55s.34.55.69.11a.78.78,0,0,0,.37.53c.27.1.44-.16.65-.14,0,0-1,2.72-.16,2.52.2-.83,1.6-4.5-.51-4.21"/><path class="cls-5" d="M53.73,46.28c-.38-.44-.8,0-1,.49a1.14,1.14,0,0,0,1-.49"/><path class="cls-5" d="M54.07,46.87c-.07-.13-.36-.1-.38-.39-.32.25-.78.7-.7,1.16a1.66,1.66,0,0,0,1.08-.77"/><path class="cls-5" d="M54.24,47.26a.46.46,0,0,1-.16-.34c-.35.56-.8,1.07-.67,1.78a3.49,3.49,0,0,0,1.18-1.37.34.34,0,0,1-.35-.07"/><path class="cls-5" d="M55.12,47.87a.56.56,0,0,1-.46-.55,3.52,3.52,0,0,0-.71,2c.53-.21.89-1,1.17-1.48"/><path class="cls-5" d="M55.3,48.82l.41-.68c-.58,0-.27-.66-.75.11a4,4,0,0,0-.58,2,4.77,4.77,0,0,0,.92-1.41"/><path class="cls-5" d="M56.18,48.38A1,1,0,0,1,56,48c-.59.42-1.62,2.66-1.23,3.3C55.48,50.72,55.83,49.23,56.18,48.38Z"/><path class="cls-5" d="M56.33,50.06,57,48.35c-.24.17-.59,0-.72.13s-.38.93-.47,1.17a4,4,0,0,0-.47,2.46C55.85,51.84,56.13,50.58,56.33,50.06Z"/><path class="cls-5" d="M56.36,50.28A3.78,3.78,0,0,0,56,53.47l.8-2.6c-.31,0-.42-.31-.44-.59"/><path class="cls-2" d="M37.92,33.16H33.24c-.48,0-.49-.11-.61.22a6.3,6.3,0,0,0,0,1.84V41a20.3,20.3,0,0,0,0,3.74c.26,1.27,1.28,1.34,2.37,1.34,1.27,0,2.44.06,2.87,1.53.77-2.77,3.61-.43,4.91-2.1.67-.86.37-2.79.37-3.81v-8c0-.41.09-.41-.18-.53a3.89,3.89,0,0,0-1.13,0h-4Z"/><path class="cls-6" d="M37.92,33.16H33.24c-.48,0-.49-.11-.61.22a6.3,6.3,0,0,0,0,1.84V41a20.3,20.3,0,0,0,0,3.74c.26,1.27,1.28,1.34,2.37,1.34,1.27,0,2.44.06,2.87,1.53.77-2.77,3.61-.43,4.91-2.1.67-.86.37-2.79.37-3.81v-8c0-.41.09-.41-.18-.53a3.89,3.89,0,0,0-1.13,0h-4Z"/><path class="cls-5" d="M35.77,43.69c-.64,0-.46-.9-.3-1.27.3-.67,1-.94,1.48-1.43.13.09.08.51.17.65s.43.31.58.5.19.54.38.75c0-.33,0,.19.06.2l-.74.26C38,42,35,42.22,35.77,43.69m2.56-1.14c-.07-.22-.65-3.07.11-1.71a.74.74,0,0,0,0,.44.21.21,0,0,0,.27,0c.11.09.32.11.46.24a1.8,1.8,0,0,1,.54.84c0,.15-.16.36-.07.46,0-.11.25-.24.23-.06s-.3.08-.13.24a.38.38,0,0,1,.17-.08c.15.39-.24.14-.35.33a.28.28,0,0,0,.13,0s-.7,0-.79-.15c.11,0,.31,0,.34,0s0-.3-.1-.27-.36.26-.53.37a.44.44,0,0,1,.41-.4c.13-.43-.5,0-.5,0s0-.3-.13-.33l-.1.06M36,34.23c.09,0-.07.9-.17,1-.4.38-1.12.06-1.34.73a1.19,1.19,0,0,0,.32,1.2,2.55,2.55,0,0,0,.51.1c.1,0,0,.16.21.2a3.2,3.2,0,0,0,.65-.15c.53-.07.62,0,.72.52s.14.45-.09.62a4,4,0,0,1-1.12.21c-.51-.16-.59-.87-1.28-.29a1.51,1.51,0,0,0-.42.71c-.12.37-.14.53.08.68a7.17,7.17,0,0,1,0,.81.77.77,0,0,0,.26-.42.81.81,0,0,1-.05.51,2.1,2.1,0,0,0,.59-.7.6.6,0,0,1-.06.55c.73-.21.09-1,.28-1.5.37-.92.31.42.33.66,0,.69.5.91.15,1.6a3,3,0,0,0-.34.73c-.07.27-.46.85-.44,1.09H35c0,.05-.07.33-.14.33-.37,0,0-1.49-.74-1.06.55.08.3.79.42,1.15a1.21,1.21,0,0,0,1.52.67.41.41,0,0,1-.27.3c0,.07.55,0,.6,0s.16.26.28.32A4.35,4.35,0,0,0,38.2,45a1,1,0,0,0,1-.41c.13-.16.18-.38.39-.47s.51.2.78.21c0,0,.63-.2.71-.22.27-.07.58-.13.66-.45-.07-.05-.12,0-.17.11.16,0,0-.17,0,0s-.08.12,0,0a.48.48,0,0,0,0-.29.26.26,0,0,1-.13.27c-.11.14-.14.08-.08-.16,0,.23-.67.27-.7,0s.38-.38.41-.25c0-.14,0-.3.14-.36a.32.32,0,0,1,0,.27c0-.25,0-.28.13-.07.15-.54-.78.12-1,0s-.17-.78-.23-1c-.12-.44-.53-1-.44-1.5.18.46,1.5-1.09,1.76-.55.1.22-.31.62-.43.72S41,41,41,41s-.18-.18-.3.09c-.21.45.36.37.63.18a1.86,1.86,0,0,0,.49-1.06c.24-1.23-.61-.75-1.41-.62a4.05,4.05,0,0,0-.26-1.43,1.54,1.54,0,0,0,.45-.21s.47.26.72,0,.14-1-.07-1.29c.43,0,0-.23.27-.52-.27-.13-.62,0-.4-.38-.35-.1-1.3-.3-1.6,0,0,.09.1.13.22.13-.28-.06-1,.28-.68.32-.21.31-.75-.15-.12.21.16-.08-.37.26-.29.28-.14,0-.71-.72-.65-.8.91.44.7-1.76-.33-.93,1.07-.73,1,1.11.55.86a.64.64,0,0,0,.26-.63c-.15.46,0,0-.09,0a.34.34,0,0,1,0,.26.73.73,0,0,1-.07-.19c-.24.05-.48,0-.58.47-.19,0-.07-.35-.21-.12-.09,0,.11-.29.14-.31a.59.59,0,0,0-.22.25c-.18-.05.05-.32.13-.35-.09.13-.18.16-.27.08s.49-.35.6-.39c-.2.07-.53.07-.58.28s.4.34.12.65c-.28-.27-.71-.29-1-.5S36.19,34.52,36,34.23Z"/><path class="cls-7" d="M51.72,49.16l-.11.05a.71.71,0,0,0,.11.17c0-.05.18-.1.12-.18l-.12,0m0,.3c-.26,0-.23-.42,0-.39S51.91,49.37,51.72,49.46ZM49.2,44.35c-.24,0,0,.15,0,.21s.18-.09.12-.18l-.13,0m0,.29c-.25,0-.23-.4,0-.38S49.39,44.56,49.2,44.64Zm7.57,6.19L56,53.44a3.91,3.91,0,0,1,.37-3.21c0,.26.13.57.44.6m-1,.48a1.49,1.49,0,0,1-.54.76,4.23,4.23,0,0,1,.5-2.55,3.52,3.52,0,0,1,.31-.86c.26-.32.55-.15.87-.36C56.56,49.3,56.18,50.3,55.79,51.31Zm-.23-1.55a3.55,3.55,0,0,1-.89,1.51c-.49-.82.57-2.81,1.23-3.31C56.18,48.63,55.82,49.11,55.56,49.76Zm-.9.06a1.67,1.67,0,0,1-.34.36,4,4,0,0,1,.61-2c.46-.68.17,0,.74-.08-.34.58-.63,1.19-1,1.75m-.26-1a1.4,1.4,0,0,1-.51.46,3.55,3.55,0,0,1,.71-2,.6.6,0,0,0,.47.55,3.88,3.88,0,0,1-.67,1m.13-1.57a3.43,3.43,0,0,1-1.19,1.37c-.14-.69.34-1.24.68-1.78a.44.44,0,0,0,.51.41m-1.62.31c-.08-.48.38-.91.72-1.17a.33.33,0,0,0,.4.29,1.73,1.73,0,0,1-1.12.88m.71-1.23c0,.2-.85.42-1,.36.09-.2.33-.61.58-.66s.51,0,.42.3m3.56.54c.53.51.3,1.43.17,2-.07.29-.22,1.65-.53,1.77-.81.33-.07-2.53.16-2.51-.49,0-.91.33-1-.39-.29.36-1.28-.24-1.27-.66-.25.11-.34,0-.5-.16a.29.29,0,0,1-.07-.23c0-.15,0-.2-.21-.14a2.11,2.11,0,0,0-.18-.27c.13.14-.25-.55-.24-.45.37-.15.7-.36,1.06-.53a1,1,0,0,0,.82,1.4c.69,0,1.27-.58,1.83.12m-8.91-8.47,1.86.64c.15.06.65.14.74.26s-.11.42.23.71a4,4,0,0,1-2.83-1.61m2.61,2.37a3.34,3.34,0,0,1-1.92-1c.52-.27,1.28.06,1.78.21.76.24,1.53.46,2.3.68-.26.09-.38.39-.64.45-.47.13-1.08-.24-1.52-.35m-1.61-.06c.86-.23,2.94.17,3.44,1-.79.26-3.07-.1-3.44-1m2.62,1.63a4.5,4.5,0,0,1-1.94-.7,8.14,8.14,0,0,1,2.51.17C52.09,42.22,52.76,42.44,51.89,42.36Zm.3.77a3.11,3.11,0,0,1-1.77-.6c.54-.35,1.32-.11,1.91-.07a.59.59,0,0,0,.17.7Zm-.26.71a1.86,1.86,0,0,1-1.31-.49,3.58,3.58,0,0,1,1.84-.14.43.43,0,0,0,0,.65,1.68,1.68,0,0,0-.55,0m-.69.48a1.79,1.79,0,0,1,1.38-.38.33.33,0,0,0,0,.5c-.42.11-1,.23-1.38-.12m.54.75c.08-.32.9-.75,1-.44.22.53-.83.48-1,.44m-.85-5.4,0-.32c1,.41,2.78.57,3.28,1.74.34.79-.19,1.06-.69,1.51A1,1,0,0,0,54,44.34c-.35.18-.72.33-1.06.53-.09-.1-.11-.4-.13-.43s-.22-.35-.2-.33l.11-.17-.2-.16c0-.27-.24-.39.12-.6-.34-.25-.24-1.4.21-1.42-.55-.55,0-.63.29-1-.13.21-2.1-.74-2.21-1m-.52,13.66C50.18,53.8,50,55,49.2,54.4c-.27-.21-.2,0-.16-.37a.93.93,0,0,1,.24-.46c.31-.29.74-.18,1.13-.24m.63-.2c0,.35-.3.39-.55.17a2.69,2.69,0,0,0,.55-.17M45.67,54l1-2c.73.62,1.67.7,1.14,1.79-.09.18-.36.81-.54.89C46.88,54.82,46,54.16,45.67,54Zm-.35,1.57-2-1c.51-.1.78-.36,1.32-.23a2,2,0,0,1,.8.37l.27.13Zm-8.5-.22a2.63,2.63,0,0,1-2.37-.24c.5-.25,3.24-2,3.62-1.34s-.88,1.38-1.25,1.58m.12-2.15-2.63,1.34a3,3,0,0,1,.86-1.69C35.81,52.4,36.34,53,36.94,53.22ZM41,48.92a3.06,3.06,0,0,1,3.16.64l-4.38,2.22c.09-.94.2-2.42,1.22-2.86M40,52.4l4.58-2.28a3.2,3.2,0,0,1-1.11,3C42.3,53.8,41,53,40,52.4M21.85,47.28c-.54.06-.67,1-1.38.57-.35-.21-.27-.48-.32-.83a.25.25,0,0,0,.12-.31l-.15-.13c-.25-.68-.58-1.09-.29-1.86a1.92,1.92,0,0,1,1.31-1.17,4,4,0,0,0,.72-.13c.29-.11.35-.53.85-.37s.39.47.44.82c-.15.16-.14.29,0,.4a.59.59,0,0,1,.14.31,1.92,1.92,0,0,1-1.48,2.7m36.29-4.41a1.6,1.6,0,0,0-2.38-.48A4.22,4.22,0,0,0,55,43.67a2.15,2.15,0,0,1-1.24,1C51,46,48.37,47.4,45.7,48.76c-.24-1.52-.81-3.51.5-4.73.51-.47,1.31-.7,1.74,0,.28.45,0,1.18.51,1.52,0-.29-.07-.88.23-1.06a5,5,0,0,0,.48,1.33c.1-.57.62-.78.61-1.42a2.19,2.19,0,0,0-.88-1.48,3,3,0,0,0-3.17-.22c-1.8,1-1.91,3.49-1.54,5.27a3.85,3.85,0,0,0-4.08-.1c-1.15.8-1.51,2.32-1.69,3.64-1-.35-2,0-2.95-.4s-2.08-1-3.12-1.53c-2.4-1.11-4.79-2.25-7.21-3.32l.72-1.5c-1-.47-1.2-1.18-1.59-2.08,0-.06-.18-.07-.21-.13s.05-.19,0-.36a1.94,1.94,0,0,0-.29-.71c-.45-.57-.78-.27-1.26,0-.15.08-.19.18-.34.23s-.25-.1-.31-.08a1.76,1.76,0,0,0-.37.17c-.07,0-.17.23-.2.23s-.35-.08-.5-.08a1.7,1.7,0,0,0-.87.29c-.41.31-.36.88-.8,1.12-.23.12-.43,0-.65.2a.73.73,0,0,0-.12.82c.06.24.19.32.17.6s-.3.53-.35.82c-.13.67.49.9.69,1.44a12.78,12.78,0,0,1,.39,1.4c.19.81.57,1,1.31.63a3.16,3.16,0,0,1,.66-.29c.18-.05.27,0,.46-.05s.2-.26.51-.32.51,0,.68,0a1.1,1.1,0,0,1,.56.06c.24.07.32.28.58.11s.11-1,.49-1.24,1,.39,1.31.53c.82.41,1.67.78,2.5,1.16l6,2.8a4.11,4.11,0,0,0-1.16,2.34c-1.19-.83-2.75-1.41-4.06-.48-.89.63-1.72,2-.91,3a2.83,2.83,0,0,1,1.67-2.16,2.93,2.93,0,0,1,2.85.6c-.54.27-5.54,2.58-5.29,3,.38.6,5-2.22,5.61-2.53A3.22,3.22,0,0,1,32,58.56a2.86,2.86,0,0,1-2.87.12c.37,1.36,2.31,1.44,3.36.93a3.62,3.62,0,0,0,1.66-3.38,3.75,3.75,0,0,0,4.11-.33,4,4,0,0,0,.69-.79,4.08,4.08,0,0,1,.29-.5c.29-.31.22-.23.65,0l3,1.37a52.85,52.85,0,0,0,5.4,2.52c.52.17,1.44.22,1.28-.62-.12-.6-1-.77-1.43-1,.65-1.36,1.2.42,1.94-.12.41-.29.73-1.31.93-1.77l.47-1.14c.22-.53.29-.51-.24-.76a3.26,3.26,0,0,0,1.58-2.66A2.32,2.32,0,0,0,52.2,49c-.51-.57-1-.2-1.64-.5,0,.16.71,1.2.81,1.15-.32.15-.77-.24-1-.42,0,.62.82.87,1,1.41.24.78-.56,1.22-1.21,1.3-1.81.22-3-1.44-4.17-2.56,2.65-1.31,5.36-2.54,8-3.94A3,3,0,0,1,55.21,45,12.69,12.69,0,0,0,57,45a1.49,1.49,0,0,0,1.19-2.15"/><path class="cls-8" d="M296.3,47.87h.12c0,.15.07.39.15.73l.26,1.07q.14.55.24,1.08c.08.34.13.59.16.73l.86,3.42H294.6l.89-3.44Zm3.39,13.23h3L297.7,44H295L290.05,61.1H293c0-.15.12-.4.21-.74s.19-.71.29-1.11.21-.76.31-1.1.16-.59.2-.74h4.74ZM281.82,46.59h6.27V44H279V61.1h5.31a4.74,4.74,0,0,0,5.16-5.29,6.55,6.55,0,0,0-.3-2,4.15,4.15,0,0,0-1-1.58,4.46,4.46,0,0,0-1.61-1.05,6.44,6.44,0,0,0-2.32-.38h-2.46Zm0,6.79h2.33a2.39,2.39,0,0,1,1.91.67,2.75,2.75,0,0,1,.58,1.83,2.94,2.94,0,0,1-.58,1.91,2.3,2.3,0,0,1-1.88.7h-2.36ZM269.2,61.1V53.67h1.35a3.45,3.45,0,0,1,.87.11,2,2,0,0,1,.75.41,3,3,0,0,1,.62.78,5.5,5.5,0,0,1,.46,1.26c.21.82.42,1.63.62,2.43s.39,1.62.59,2.44h2.87l-1.42-5.58a6.85,6.85,0,0,0-.88-2.09,2.88,2.88,0,0,0-1.56-1.18,1.33,1.33,0,0,0,.52-.32,4.39,4.39,0,0,0,1.74-2.85l.66-2.51c.22-.84.43-1.68.65-2.53h-2.68c-.08.27-.18.62-.28,1l-.34,1.32c-.11.45-.23.9-.34,1.32s-.21.77-.3,1a4.51,4.51,0,0,1-.49,1.24,2.34,2.34,0,0,1-.65.73,2,2,0,0,1-.76.36,3.29,3.29,0,0,1-.82.1H269.2V44h-2.83v7.2h-1.23a2.89,2.89,0,0,1-.76-.1,2,2,0,0,1-.75-.36A2.66,2.66,0,0,1,263,50a4.5,4.5,0,0,1-.5-1.24L261.21,44h-2.68c.21.85.42,1.69.64,2.53s.43,1.67.66,2.51a5.66,5.66,0,0,0,.9,2.06,3.14,3.14,0,0,0,1.36,1.11v0a3,3,0,0,0-1.56,1.17,6.55,6.55,0,0,0-.87,2.08l-1.43,5.58h2.88l1.2-4.87a4.22,4.22,0,0,1,.88-1.88,2,2,0,0,1,1.36-.63.68.68,0,0,1,.23,0h1.59V61.1ZM257.3,44h-2.75c-.13.51-.32,1.19-.57,2.05s-.5,1.76-.76,2.68-.51,1.81-.75,2.65-.42,1.48-.55,1.94h-.12l-1.23-4L248.94,44H246l4.45,12.88a1.9,1.9,0,0,1-.12.36,2.45,2.45,0,0,0-.12.31,2.48,2.48,0,0,1-.73,1,1.5,1.5,0,0,1-.9.27h-1v2.31H249a6.6,6.6,0,0,0,1.23-.14,2.67,2.67,0,0,0,1.06-.51,3.87,3.87,0,0,0,.93-1.1,9.15,9.15,0,0,0,.84-1.93q1.11-3.39,2.14-6.75T257.3,44m-19.63,2.58h3.89V61.1h2.77V44h-9.24v9.34a18.79,18.79,0,0,1-.13,2.46,5.62,5.62,0,0,1-.46,1.64,3,3,0,0,1-.85,1.1,5.57,5.57,0,0,1-1.31.75l.76,2.18a6,6,0,0,0,2.21-.87A4.39,4.39,0,0,0,236.73,59a7.92,7.92,0,0,0,.73-2.51,25.65,25.65,0,0,0,.21-3.53Zm-8.88,10A2.26,2.26,0,0,1,228,58a2.34,2.34,0,0,1-1.55.52,2.51,2.51,0,0,1-1.06-.21,2.12,2.12,0,0,1-.77-.58,2.43,2.43,0,0,1-.45-.86,3.52,3.52,0,0,1-.15-1V49.05a2.71,2.71,0,0,1,.15-.88,2.31,2.31,0,0,1,.44-.8,2.29,2.29,0,0,1,.75-.58,2.44,2.44,0,0,1,1.09-.22,2.57,2.57,0,0,1,1,.17,2.38,2.38,0,0,1,.72.45,2.32,2.32,0,0,1,.46.63,2.74,2.74,0,0,1,.25.71l2.68-.88a5.12,5.12,0,0,0-1.71-2.7,5,5,0,0,0-3.36-1.09,5.53,5.53,0,0,0-2.33.45,4.61,4.61,0,0,0-1.64,1.18,5,5,0,0,0-1,1.69,6.3,6.3,0,0,0-.32,2v6.64a7.12,7.12,0,0,0,.32,2.15,4.71,4.71,0,0,0,1,1.73,4.65,4.65,0,0,0,1.64,1.16,6.07,6.07,0,0,0,2.31.41,5.38,5.38,0,0,0,3.27-1,4.59,4.59,0,0,0,1.77-2.79Zm-22.33-9.34a2.34,2.34,0,0,1,1.86-.69h2.26v4.74h-2.19a3.18,3.18,0,0,1-1.8-.48,1.88,1.88,0,0,1-.73-1.71,2.74,2.74,0,0,1,.6-1.86M208,44a5.65,5.65,0,0,0-2,.34,4.25,4.25,0,0,0-1.56,1,4.5,4.5,0,0,0-1,1.61,6,6,0,0,0-.36,2.13,5.49,5.49,0,0,0,.57,2.49,3.19,3.19,0,0,0,1.94,1.61,2.49,2.49,0,0,0-1.28,1.08A6.7,6.7,0,0,0,203.6,56l-1.16,5.12h2.93l1-4.63a3.72,3.72,0,0,1,1.11-2.07,2.46,2.46,0,0,1,1.55-.56h1.52V61.1h2.83V44Zm-13.09,3.88H195a4.43,4.43,0,0,0,.15.73c.08.33.16.69.25,1.07s.18.73.25,1.08.13.59.16.73l.86,3.42h-3.49l.88-3.44Zm3.39,13.23h3l-5-17.11h-2.71L188.63,61.1h2.93c.05-.15.12-.4.21-.74s.18-.71.29-1.11.21-.76.31-1.1.16-.59.19-.74h4.75ZM185,56.86a2.17,2.17,0,0,1-.38.83,1.77,1.77,0,0,1-.71.55,2.62,2.62,0,0,1-1.11.2h-2.48v-5h2.46a2.16,2.16,0,0,1,1.79.67,2.69,2.69,0,0,1,.54,1.75,4.48,4.48,0,0,1-.11,1m-.69-6.47a2.22,2.22,0,0,1-1.76.63h-2.23V46.54h2.21a2.36,2.36,0,0,1,1.78.59,2.3,2.3,0,0,1,.55,1.63,2.37,2.37,0,0,1-.55,1.63m3.42,4.42a4.11,4.11,0,0,0-.42-1.11,3.18,3.18,0,0,0-.72-.9,3.11,3.11,0,0,0-1.06-.58V52.1a3.26,3.26,0,0,0,1.63-1.45,4.32,4.32,0,0,0,.46-2,4.72,4.72,0,0,0-1.22-3.42A4.85,4.85,0,0,0,182.71,44h-5.24V61.1H183a4.79,4.79,0,0,0,3.53-1.31A5.09,5.09,0,0,0,187.82,56a5.62,5.62,0,0,0-.13-1.22m-15.35,1.34A2.31,2.31,0,0,1,170,58.59a2.15,2.15,0,0,1-1.92-.84,3.6,3.6,0,0,1-.57-2.07l0-6.55a3.27,3.27,0,0,1,.12-.84,2.43,2.43,0,0,1,.41-.82,2.18,2.18,0,0,1,.76-.64,2.41,2.41,0,0,1,1.19-.26,2.16,2.16,0,0,1,1.17.28,2.52,2.52,0,0,1,.73.68,2.76,2.76,0,0,1,.38.82,3.31,3.31,0,0,1,.11.76Zm2.85-7a6,6,0,0,0-.31-1.91,4.67,4.67,0,0,0-1-1.69,4.92,4.92,0,0,0-1.63-1.22,6.13,6.13,0,0,0-4.78,0,4.7,4.7,0,0,0-1.63,1.25,4.8,4.8,0,0,0-.9,1.7,6.25,6.25,0,0,0-.29,1.84v6.46a7.55,7.55,0,0,0,.3,2.15,5,5,0,0,0,.92,1.8,4.32,4.32,0,0,0,1.63,1.23,5.92,5.92,0,0,0,2.41.45,5.79,5.79,0,0,0,2.12-.37,4.61,4.61,0,0,0,1.66-1.07,4.86,4.86,0,0,0,1.08-1.68,6.13,6.13,0,0,0,.38-2.21ZM163.4,46.59V44H154V61.1h2.8V46.59Zm-14.55,9.56a2.32,2.32,0,0,1-.7,1.79,2.38,2.38,0,0,1-1.66.65,2.15,2.15,0,0,1-1.92-.84,3.68,3.68,0,0,1-.56-2.07l0-6.55a2.92,2.92,0,0,1,.13-.84,2.41,2.41,0,0,1,.4-.82,2.18,2.18,0,0,1,.76-.64,2.42,2.42,0,0,1,1.2-.26,2.14,2.14,0,0,1,1.16.28,2.4,2.4,0,0,1,.73.68,2.53,2.53,0,0,1,.38.82,3.31,3.31,0,0,1,.11.76Zm2.85-7a6,6,0,0,0-.31-1.91,4.79,4.79,0,0,0-.95-1.69,5,5,0,0,0-1.64-1.22,5.38,5.38,0,0,0-2.33-.47,5.45,5.45,0,0,0-2.45.5,4.75,4.75,0,0,0-1.62,1.25,4.83,4.83,0,0,0-.91,1.7,6.23,6.23,0,0,0-.28,1.84v6.46a7.55,7.55,0,0,0,.29,2.15,5.12,5.12,0,0,0,.92,1.8,4.28,4.28,0,0,0,1.64,1.23,5.86,5.86,0,0,0,2.41.45,5.74,5.74,0,0,0,2.11-.37,4.69,4.69,0,0,0,2.74-2.75,6.13,6.13,0,0,0,.38-2.21Zm-19.48-2.56h3.88V61.1h2.78V44h-9.24v9.34a18.58,18.58,0,0,1-.14,2.46,5.63,5.63,0,0,1-.45,1.64,3.13,3.13,0,0,1-.85,1.1,5.57,5.57,0,0,1-1.31.75l.76,2.18a6.08,6.08,0,0,0,2.21-.87A4.28,4.28,0,0,0,131.27,59a7.66,7.66,0,0,0,.74-2.51,25.65,25.65,0,0,0,.21-3.53ZM119.8,47.87h.12c0,.15.07.39.15.73l.26,1.07q.14.55.24,1.08c.08.34.13.59.16.73l.86,3.42H118.1l.89-3.44Zm3.39,13.23h3L121.2,44h-2.71L113.55,61.1h2.93c0-.15.12-.4.21-.74s.19-.71.29-1.11.21-.76.31-1.1.16-.59.2-.74h4.74ZM112,61.1V44h-2.81v7.17h-4.81V44h-2.83V61.1h2.83V53.7h4.81v7.4Z"/><path class="cls-8" d="M234.9,22.67a2.36,2.36,0,0,1,1.85-.68H239v4.74h-2.18a3.19,3.19,0,0,1-1.81-.48,1.91,1.91,0,0,1-.73-1.71,2.72,2.72,0,0,1,.61-1.87m1.51-3.27a5.67,5.67,0,0,0-2,.35,4.29,4.29,0,0,0-1.56,1,4.64,4.64,0,0,0-1,1.61,6.16,6.16,0,0,0-.35,2.12A5.66,5.66,0,0,0,232,27,3.22,3.22,0,0,0,234,28.6a2.43,2.43,0,0,0-1.27,1.08A7.09,7.09,0,0,0,232,31.4l-1.15,5.11h2.92l1-4.62a3.81,3.81,0,0,1,1.11-2.07,2.48,2.48,0,0,1,1.55-.56H239v7.25h2.83V19.4Zm-13.1,3.89h.12q0,.23.15.72c.08.34.17.7.26,1.07s.17.74.24,1.08.13.59.16.74l.86,3.42h-3.49l.89-3.44Zm3.39,13.22h3l-5-17.11H222l-4.94,17.11H220c0-.14.12-.39.21-.73l.29-1.11.31-1.11c.1-.34.17-.59.2-.73h4.74Zm-11.23,0V19.4h-2.8v7.18h-4.82V19.4H205V36.51h2.83v-7.4h4.82v7.4ZM199.9,33.19a2.29,2.29,0,0,1-1.87.72h-2.39V28.79H198a2.43,2.43,0,0,1,1.91.67,2.74,2.74,0,0,1,.58,1.84,2.87,2.87,0,0,1-.59,1.89m3.1-4a4.14,4.14,0,0,0-.94-1.6,4.59,4.59,0,0,0-1.61-1.05,6.44,6.44,0,0,0-2.32-.38h-2.46V19.4h-2.83V36.51h5.29a4.75,4.75,0,0,0,5.18-5.29,6.43,6.43,0,0,0-.31-2M183.54,22h3.88v14.5h2.78V19.4H181v9.35a18.31,18.31,0,0,1-.14,2.45,5.61,5.61,0,0,1-.45,1.65,3.21,3.21,0,0,1-.85,1.09,5,5,0,0,1-1.32.75l.76,2.19a6.07,6.07,0,0,0,2.22-.87,4.28,4.28,0,0,0,1.41-1.62,7.91,7.91,0,0,0,.74-2.51,25.65,25.65,0,0,0,.21-3.53Zm-12.43,1.28h.13a5,5,0,0,0,.14.72c.09.34.17.7.26,1.07l.25,1.08c.07.35.12.59.16.74l.86,3.42h-3.49l.88-3.44Zm3.4,13.22h3l-5-17.11h-2.7l-4.94,17.11h2.92c.05-.14.12-.39.21-.73s.19-.72.3-1.11l.31-1.11c.09-.34.16-.59.19-.73h4.75ZM162,26.57a2.29,2.29,0,0,1-1.86.73h-2.36V22h2.34a2.41,2.41,0,0,1,1.87.67,2.8,2.8,0,0,1,.61,1.95,2.94,2.94,0,0,1-.6,1.94m3-4.23a4.27,4.27,0,0,0-1.06-1.64,4.38,4.38,0,0,0-1.64-1,6.92,6.92,0,0,0-2.17-.32H155V36.51h2.8V30h2.51a5.56,5.56,0,0,0,2.24-.41,4.34,4.34,0,0,0,1.58-1.11,4.8,4.8,0,0,0,1-1.68,6.49,6.49,0,0,0,.32-2.06,6.7,6.7,0,0,0-.37-2.35M153.17,36.51V33.86h-6.71V29.14h5.77V26.58h-5.77V22h6.71V19.4h-9.52V36.51Zm-21-2.5a4.21,4.21,0,0,0,.54-1.25,11.29,11.29,0,0,0,.3-1.61c.08-.59.13-1.22.16-1.91s.07-1.4.1-2.14l.2-5.14h4.23V34Zm-1.92,2.5h9.14V40h2.44V34h-1.35q0-3.67,0-7.3c0-2.43,0-4.86,0-7.31H131l-.24,7c0,1.09-.08,2.05-.13,2.86a14.12,14.12,0,0,1-.26,2.11,5.9,5.9,0,0,1-.49,1.52,3.26,3.26,0,0,1-.85,1.08l-.61.13-.61.11V40h2.43Zm-3.65,0V33.86H119.9V29.14h5.78V26.58H119.9V22h6.71V19.4H117.1V36.51ZM109.42,22.87a2.5,2.5,0,0,1,2.23,1.38,7.47,7.47,0,0,1,.63,3.34,8.46,8.46,0,0,1-.61,3.63,2.49,2.49,0,0,1-2.25,1.36Zm-2.77,9.71a3.12,3.12,0,0,1-1.37-.42,2.35,2.35,0,0,1-.87-1,5.05,5.05,0,0,1-.45-1.52,12.66,12.66,0,0,1-.14-2.06,7.76,7.76,0,0,1,.61-3.34,2.47,2.47,0,0,1,2.22-1.4Zm0,3.93h2.73V35.09a7.17,7.17,0,0,0,2.74-.73,4.52,4.52,0,0,0,1.73-1.53,6.31,6.31,0,0,0,.91-2.28,14.57,14.57,0,0,0,.27-2.94,12.61,12.61,0,0,0-.29-2.85,6.26,6.26,0,0,0-1-2.21A4.87,4.87,0,0,0,112.05,21a6.9,6.9,0,0,0-2.65-.73V19.4h-2.73v.91a6.9,6.9,0,0,0-2.65.74,5.08,5.08,0,0,0-1.75,1.56,6.28,6.28,0,0,0-.94,2.26,13.06,13.06,0,0,0-.29,2.82,15.16,15.16,0,0,0,.26,2.92,6,6,0,0,0,.9,2.25,4.51,4.51,0,0,0,1.72,1.51,7.31,7.31,0,0,0,2.75.72Z"/></g></g></svg>