<?xml version="1.0" encoding="utf-8"?>
<!-- Generator: Adobe Illustrator 23.0.1, SVG Export Plug-In . SVG Version: 6.00 Build 0)  -->
<svg version="1.1" id="Слой_1" xmlns="http://www.w3.org/2000/svg" xmlns:xlink="http://www.w3.org/1999/xlink" x="0px" y="0px"
	 viewBox="0 0 98.71 141.73" style="enable-background:new 0 0 98.71 141.73;" xml:space="preserve">
<style type="text/css">
	.st0{fill:#ffffff;}
</style>
<g>
	<g>
		<g>
			<g>
				<path class="st0" d="M89.94,141.16H8.77c-0.31,0-0.55-0.25-0.55-0.55v-6.42H6.22c-0.31,0-0.55-0.25-0.55-0.55V13.3H1.13
					c-0.31,0-0.55-0.25-0.55-0.55V1.13c0-0.31,0.25-0.55,0.55-0.55h96.46c0.31,0,0.55,0.25,0.55,0.55v11.62
					c0,0.31-0.25,0.55-0.55,0.55h-4.54v120.33c0,0.31-0.25,0.55-0.55,0.55H90.5v6.42C90.5,140.91,90.25,141.16,89.94,141.16z
					 M9.32,140.05h80.07v-6.42c0-0.31,0.25-0.55,0.55-0.55h1.99V12.75c0-0.31,0.25-0.55,0.55-0.55h4.54V1.68H1.68v10.51h4.54
					c0.31,0,0.55,0.25,0.55,0.55v120.33h1.99c0.31,0,0.55,0.25,0.55,0.55V140.05z M84.85,136.51H12.72c-0.31,0-0.55-0.25-0.55-0.55
					v-2.32c0-0.31,0.25-0.55,0.55-0.55h72.13c0.31,0,0.55,0.25,0.55,0.55v2.32C85.4,136.26,85.16,136.51,84.85,136.51z M13.27,135.4
					h71.02v-1.22H13.27V135.4z M87.4,129.54H51.74c-0.31,0-0.55-0.25-0.55-0.55V12.75c0-0.31,0.25-0.55,0.55-0.55H87.4
					c0.31,0,0.55,0.25,0.55,0.55v116.23C87.95,129.29,87.7,129.54,87.4,129.54z M52.29,128.43h34.55V13.3H52.29V128.43z
					 M46.64,129.54H10.98c-0.31,0-0.55-0.25-0.55-0.55V12.75c0-0.31,0.25-0.55,0.55-0.55h35.66c0.31,0,0.55,0.25,0.55,0.55v116.23
					C47.2,129.29,46.95,129.54,46.64,129.54z M11.54,128.43h34.55V13.3H11.54V128.43z"/>
			</g>
			<g>
				<path class="st0" d="M89.94,141.73H8.77c-0.62,0-1.13-0.5-1.13-1.13v-5.85H6.22c-0.62,0-1.12-0.5-1.12-1.12V13.87H1.13
					C0.5,13.87,0,13.37,0,12.75V1.12C0,0.5,0.5,0,1.13,0h96.46c0.62,0,1.13,0.5,1.13,1.12v11.62c0,0.62-0.5,1.12-1.13,1.12h-3.97
					v119.76c0,0.62-0.5,1.12-1.13,1.12h-1.42v5.85C91.07,141.23,90.56,141.73,89.94,141.73z M8.78,140.24v0.37h0.4
					C9,140.56,8.85,140.42,8.78,140.24z M89.93,140.24c-0.06,0.16-0.19,0.29-0.35,0.35h0.35V140.24z M9.89,139.48h78.93v-5.85
					c0-0.62,0.5-1.13,1.13-1.13h1.42V12.75c0-0.62,0.5-1.12,1.13-1.12h3.97V2.25H2.25v9.37h3.97c0.62,0,1.13,0.5,1.13,1.12v119.76
					h1.42c0.62,0,1.12,0.5,1.12,1.13V139.48z M89.94,133.65l0,0.4c0.05-0.19,0.18-0.34,0.36-0.4H89.94z M8.36,133.64
					c0.18,0.05,0.33,0.19,0.39,0.36v-0.37L8.36,133.64z M6.24,133.27v0.37l0.39,0C6.44,133.58,6.3,133.44,6.24,133.27z
					 M92.12,133.62h0.37v-0.4C92.44,133.4,92.31,133.55,92.12,133.62z M92.49,12.77v0.41c0.05-0.19,0.18-0.34,0.37-0.41H92.49z
					 M5.81,12.75c0.19,0.05,0.34,0.19,0.4,0.36v-0.37L5.81,12.75z M1.14,12.38l0,0.37l0.4,0C1.35,12.7,1.2,12.56,1.14,12.38z
					 M97.22,12.73h0.36v-0.4C97.54,12.52,97.4,12.67,97.22,12.73z M1.49,1.14H1.13l0,0.4C1.17,1.36,1.31,1.2,1.49,1.14z M97.17,1.12
					c0.19,0.05,0.34,0.18,0.4,0.37V1.12H97.17z M84.85,137.08H12.72c-0.62,0-1.12-0.5-1.12-1.12v-2.32c0-0.62,0.5-1.13,1.12-1.13
					h72.13c0.62,0,1.12,0.5,1.12,1.13v2.32C85.97,136.58,85.47,137.08,84.85,137.08z M12.73,135.58l0,0.37h0.41
					C12.95,135.91,12.79,135.77,12.73,135.58z M84.83,135.59c-0.06,0.16-0.19,0.29-0.35,0.35h0.35V135.59z M13.84,134.83h69.88
					v-0.07H13.84V134.83z M13.08,133.65h-0.37l0,0.39C12.77,133.86,12.91,133.71,13.08,133.65z M84.43,133.63
					c0.19,0.05,0.34,0.18,0.4,0.36v-0.36H84.43z M87.4,130.11H51.74c-0.62,0-1.13-0.5-1.13-1.12V12.75c0-0.62,0.5-1.12,1.13-1.12
					H87.4c0.62,0,1.12,0.5,1.12,1.12v116.23C88.52,129.6,88.02,130.11,87.4,130.11z M51.75,128.62v0.37h0.4
					C51.97,128.94,51.82,128.8,51.75,128.62z M87.38,128.62c-0.06,0.16-0.19,0.29-0.35,0.35h0.35V128.62z M52.86,127.86h33.41V13.87
					H52.86V127.86z M52.1,12.77h-0.36v0.4C51.78,12.98,51.92,12.83,52.1,12.77z M86.98,12.75c0.19,0.05,0.34,0.18,0.4,0.36v-0.36
					H86.98z M46.64,130.11H10.98c-0.62,0-1.12-0.5-1.12-1.12V12.75c0-0.62,0.5-1.12,1.12-1.12h35.66c0.62,0,1.13,0.5,1.13,1.12
					v116.23C47.77,129.6,47.26,130.11,46.64,130.11z M11,128.62v0.37h0.4C11.22,128.94,11.06,128.8,11,128.62z M46.63,128.62
					c-0.06,0.16-0.19,0.29-0.35,0.35h0.35V128.62z M12.11,127.86h33.41V13.87H12.11V127.86z M11.35,12.77h-0.36v0.4
					C11.03,12.98,11.17,12.83,11.35,12.77z M46.23,12.75c0.19,0.05,0.34,0.18,0.4,0.36v-0.36H46.23z"/>
			</g>
		</g>
	</g>
	<g>
		<g>
			<g>
				<path class="st0" d="M62.48,71.42h-6.2V51.71h6.2V71.42z M57.39,70.31h3.99V52.82h-3.99V70.31z"/>
			</g>
		</g>
	</g>
	<g>
		<g>
			<g>
				<path class="st0" d="M42.1,71.42h-6.2V51.71h6.2V71.42z M37.01,70.31h3.99V52.82h-3.99V70.31z"/>
			</g>
		</g>
	</g>
</g>
</svg>
