<?xml version="1.0" encoding="utf-8"?>
<!-- Generator: Adobe Illustrator 23.0.1, SVG Export Plug-In . SVG Version: 6.00 Build 0)  -->
<svg version="1.1" id="Слой_1" xmlns="http://www.w3.org/2000/svg" xmlns:xlink="http://www.w3.org/1999/xlink" x="0px" y="0px"
	 viewBox="0 0 107.85 143.73" style="enable-background:new 0 0 107.85 143.73;" xml:space="preserve">
<style type="text/css">
	.st0{fill:#ffffff;}
</style>
<g>
	<g>
		<g>
			<path class="st0" d="M89.74,95.7H66.52c-0.55,0-1-0.45-1-1s0.45-1,1-1h23.22c8.88,0,16.11-6.37,16.11-14.19V16.19
				C105.85,8.37,98.63,2,89.74,2H18.11C9.23,2,2,8.37,2,16.19v63.31C2,87.33,9.23,93.7,18.11,93.7h21.72c0.55,0,1,0.45,1,1
				s-0.45,1-1,1H18.11C8.12,95.7,0,88.43,0,79.51V16.19C0,7.26,8.12,0,18.11,0h71.63c9.99,0,18.11,7.26,18.11,16.19v63.31
				C107.85,88.43,99.73,95.7,89.74,95.7z M89.74,89.67H66.52c-0.55,0-1-0.45-1-1s0.45-1,1-1h23.22c5.21,0,9.44-3.66,9.44-8.16V16.19
				c0-4.5-4.23-8.16-9.44-8.16H18.11c-5.21,0-9.44,3.66-9.44,8.16v63.31c0,4.5,4.23,8.16,9.44,8.16h21.72c0.55,0,1,0.45,1,1
				s-0.45,1-1,1H18.11c-6.31,0-11.44-4.56-11.44-10.16V16.19c0-5.6,5.13-10.16,11.44-10.16h71.63c6.31,0,11.44,4.56,11.44,10.16
				v63.31C101.18,85.11,96.05,89.67,89.74,89.67z"/>
		</g>
	</g>
	<g>
		<g>
			<path class="st0" d="M49.03,106.17h-7.28c-1.35,0-2.29-0.94-2.29-2.3v-14.6c0-3.39,2.55-5.94,5.93-5.94
				c3.38,0,5.93,2.56,5.93,5.94v14.6C51.32,105.22,50.38,106.17,49.03,106.17z M45.39,84.27c-2.84,0-4.99,2.15-4.99,5v14.6
				c0,0.83,0.52,1.35,1.35,1.35h7.28c0.83,0,1.35-0.52,1.35-1.35v-14.6C50.38,86.42,48.23,84.27,45.39,84.27z M54.65,102.14h-3.79"
				/>
			<path class="st0" d="M49.03,106.67h-7.28c-1.62,0-2.79-1.18-2.79-2.8v-14.6c0-3.67,2.76-6.44,6.43-6.44
				c3.67,0,6.43,2.77,6.43,6.44v12.36h2.82c0.28,0,0.5,0.22,0.5,0.5s-0.22,0.5-0.5,0.5h-2.82v1.24
				C51.82,105.49,50.65,106.67,49.03,106.67z M45.39,84.77c-2.56,0-4.49,1.93-4.49,4.5v14.6c0,0.56,0.29,0.85,0.85,0.85h7.28
				c0.55,0,0.85-0.29,0.85-0.85v-14.6C49.88,86.71,47.95,84.77,45.39,84.77z"/>
		</g>
	</g>
	<g>
		<g>
			<path class="st0" d="M63.59,106.17h-7.28c-1.35,0-2.29-0.94-2.29-2.3v-14.6c0-3.39,2.55-5.94,5.93-5.94
				c3.38,0,5.93,2.56,5.93,5.94v14.6C65.88,105.22,64.94,106.17,63.59,106.17z M59.95,84.27c-2.84,0-4.99,2.15-4.99,5v14.6
				c0,0.83,0.52,1.35,1.35,1.35h7.28c0.83,0,1.35-0.52,1.35-1.35v-14.6C64.94,86.42,62.79,84.27,59.95,84.27z"/>
			<path class="st0" d="M63.59,106.67h-7.28c-1.62,0-2.79-1.18-2.79-2.8v-14.6c0-3.67,2.76-6.44,6.43-6.44
				c3.67,0,6.43,2.77,6.43,6.44v14.6C66.38,105.49,65.21,106.67,63.59,106.67z M59.95,84.77c-2.56,0-4.49,1.93-4.49,4.5v14.6
				c0,0.56,0.29,0.85,0.85,0.85h7.28c0.55,0,0.85-0.29,0.85-0.85v-14.6C64.44,86.71,62.51,84.77,59.95,84.77z"/>
		</g>
	</g>
	<g>
		<g>
			<path class="st0" d="M54.86,143.73H50.9c-5.18,0-9.39-4.21-9.39-9.39c0-4.75-1.26-9.39-3.54-13.08
				c-2.91-5.2-4.38-10.78-4.38-16.62c0-2,1.45-3.45,3.45-3.45h2.42c0.55,0,1,0.45,1,1s-0.45,1-1,1h-2.42c-0.9,0-1.45,0.56-1.45,1.45
				c0,5.49,1.38,10.74,4.1,15.6c2.45,3.96,3.82,8.98,3.82,14.1c0,4.08,3.32,7.39,7.39,7.39h3.96c4.08,0,7.39-3.32,7.39-7.39
				c0-4.64,1.32-9.52,3.82-14.11c2.72-4.86,4.1-10.1,4.1-15.59c0-0.9-0.56-1.45-1.45-1.45c-0.55,0-1-0.45-1-1s0.45-1,1-1
				c2,0,3.45,1.45,3.45,3.45c0,5.84-1.46,11.41-4.34,16.56c-2.34,4.28-3.57,8.83-3.57,13.14C64.25,139.52,60.03,143.73,54.86,143.73
				z"/>
		</g>
	</g>
	<g>
		<g>
			<path class="st0" d="M53.6,72.78c-13.75,0-24.93-11.18-24.93-24.93S39.85,22.92,53.6,22.92S78.53,34.1,78.53,47.85
				S67.35,72.78,53.6,72.78z M53.6,24.08c-13.11,0-23.77,10.66-23.77,23.77S40.49,71.62,53.6,71.62s23.77-10.66,23.77-23.77
				S66.71,24.08,53.6,24.08z M53.6,67.91c-11.06,0-20.06-9-20.06-20.06c0-11.06,9-20.06,20.06-20.06c11.06,0,20.06,9,20.06,20.06
				C73.66,58.91,64.66,67.91,53.6,67.91z M53.6,28.95c-10.42,0-18.9,8.48-18.9,18.9s8.48,18.9,18.9,18.9s18.9-8.48,18.9-18.9
				S64.02,28.95,53.6,28.95z"/>
			<path class="st0" d="M53.6,73.28c-14.02,0-25.43-11.41-25.43-25.43S39.58,22.42,53.6,22.42c14.02,0,25.43,11.41,25.43,25.43
				S67.62,73.28,53.6,73.28z M53.6,23.42c-13.47,0-24.43,10.96-24.43,24.43S40.13,72.28,53.6,72.28s24.43-10.96,24.43-24.43
				S67.07,23.42,53.6,23.42z M53.6,72.12c-13.38,0-24.27-10.89-24.27-24.27S40.22,23.58,53.6,23.58s24.27,10.89,24.27,24.27
				S66.98,72.12,53.6,72.12z M53.6,24.58c-12.83,0-23.27,10.44-23.27,23.27S40.77,71.12,53.6,71.12s23.27-10.44,23.27-23.27
				S66.43,24.58,53.6,24.58z M53.6,68.41c-11.34,0-20.56-9.22-20.56-20.56s9.22-20.56,20.56-20.56c11.34,0,20.56,9.22,20.56,20.56
				S64.94,68.41,53.6,68.41z M53.6,28.29c-10.79,0-19.56,8.78-19.56,19.56c0,10.79,8.77,19.56,19.56,19.56
				c10.79,0,19.56-8.78,19.56-19.56C73.16,37.06,64.39,28.29,53.6,28.29z M53.6,67.25c-10.7,0-19.4-8.7-19.4-19.4
				c0-10.7,8.7-19.4,19.4-19.4c10.7,0,19.4,8.7,19.4,19.4C73,58.55,64.3,67.25,53.6,67.25z M53.6,29.45
				c-10.15,0-18.4,8.25-18.4,18.4s8.25,18.4,18.4,18.4c10.15,0,18.4-8.25,18.4-18.4S63.75,29.45,53.6,29.45z"/>
		</g>
	</g>
	<g>
		<g>
			<path class="st0" d="M46.3,53.3c-3.01,0-5.45-2.44-5.45-5.45s2.44-5.45,5.45-5.45c3.01,0,5.45,2.44,5.45,5.45
				S49.3,53.3,46.3,53.3z M46.3,43.56c-2.37,0-4.29,1.92-4.29,4.29s1.92,4.29,4.29,4.29s4.29-1.92,4.29-4.29S48.66,43.56,46.3,43.56
				z"/>
			<path class="st0" d="M46.3,53.8c-3.28,0-5.95-2.67-5.95-5.95s2.67-5.95,5.95-5.95s5.95,2.67,5.95,5.95S49.58,53.8,46.3,53.8z
				 M46.3,42.9c-2.73,0-4.95,2.22-4.95,4.95s2.22,4.95,4.95,4.95s4.95-2.22,4.95-4.95S49.02,42.9,46.3,42.9z M46.3,52.64
				c-2.64,0-4.79-2.15-4.79-4.79s2.15-4.79,4.79-4.79s4.79,2.15,4.79,4.79S48.94,52.64,46.3,52.64z M46.3,44.06
				c-2.09,0-3.79,1.7-3.79,3.79s1.7,3.79,3.79,3.79s3.79-1.7,3.79-3.79S48.38,44.06,46.3,44.06z"/>
		</g>
	</g>
	<g>
		<g>
			<path class="st0" d="M60.91,53.3c-3.01,0-5.45-2.44-5.45-5.45s2.44-5.45,5.45-5.45c3.01,0,5.45,2.44,5.45,5.45
				S63.91,53.3,60.91,53.3z M60.91,43.56c-2.37,0-4.29,1.92-4.29,4.29s1.92,4.29,4.29,4.29c2.37,0,4.29-1.92,4.29-4.29
				S63.27,43.56,60.91,43.56z"/>
			<path class="st0" d="M60.91,53.8c-3.28,0-5.95-2.67-5.95-5.95s2.67-5.95,5.95-5.95c3.28,0,5.95,2.67,5.95,5.95
				S64.19,53.8,60.91,53.8z M60.91,42.9c-2.73,0-4.95,2.22-4.95,4.95s2.22,4.95,4.95,4.95c2.73,0,4.95-2.22,4.95-4.95
				S63.64,42.9,60.91,42.9z M60.91,52.64c-2.64,0-4.79-2.15-4.79-4.79s2.15-4.79,4.79-4.79c2.64,0,4.79,2.15,4.79,4.79
				S63.55,52.64,60.91,52.64z M60.91,44.06c-2.09,0-3.79,1.7-3.79,3.79s1.7,3.79,3.79,3.79c2.09,0,3.79-1.7,3.79-3.79
				S63,44.06,60.91,44.06z"/>
		</g>
	</g>
	<g>
		<g>
			<path class="st0" d="M41.73,80.09H22.24c-2.51,0-4.71-1.98-4.71-4.23V19.84c0-2.26,2.2-4.23,4.71-4.23h63.37
				c2.51,0,4.71,1.98,4.71,4.23v56.01c0,2.26-2.2,4.23-4.71,4.23H72.66 M72.67,78.93h12.94c1.89,0,3.55-1.44,3.55-3.07V19.84
				c0-1.64-1.66-3.07-3.55-3.07H22.24c-1.89,0-3.55,1.44-3.55,3.07v56.01c0,1.64,1.66,3.07,3.55,3.07h19"/>
		</g>
	</g>
	<g>
		<path class="st0" d="M54.1,89.28h-2.78c-0.55,0-1-0.45-1-1s0.45-1,1-1h2.78c0.55,0,1,0.45,1,1S54.65,89.28,54.1,89.28z"/>
	</g>
	<g>
		<path class="st0" d="M54.1,95.59h-2.66c-0.55,0-1-0.45-1-1s0.45-1,1-1h2.66c0.55,0,1,0.45,1,1S54.65,95.59,54.1,95.59z"/>
	</g>
	<g>
		<path class="st0" d="M68.85,103.14h-2.9c-0.55,0-1-0.45-1-1s0.45-1,1-1h2.9c0.55,0,1,0.45,1,1S69.4,103.14,68.85,103.14z"/>
	</g>
</g>
</svg>
