<?xml version="1.0" encoding="utf-8"?>
<!-- Generator: Adobe Illustrator 23.0.1, SVG Export Plug-In . SVG Version: 6.00 Build 0)  -->
<svg version="1.1" id="Слой_1" xmlns="http://www.w3.org/2000/svg" xmlns:xlink="http://www.w3.org/1999/xlink" x="0px" y="0px"
	 viewBox="0 0 109.92 142.73" style="enable-background:new 0 0 109.92 142.73;" xml:space="preserve">
<style type="text/css">
	.st0{fill:#ffffff;}
</style>
<g>
	<g>
		<g>
			<path class="st0" d="M100.26,142.23H9.67c-5.05,0-9.17-4.11-9.17-9.17V9.67c0-5.05,4.11-9.17,9.17-9.17h90.59
				c5.05,0,9.17,4.11,9.17,9.17v123.4C109.42,138.12,105.31,142.23,100.26,142.23z M9.67,1.62c-4.44,0-8.05,3.61-8.05,8.05v123.4
				c0,4.44,3.61,8.05,8.05,8.05h90.59c4.44,0,8.04-3.61,8.04-8.05V9.67c0-4.44-3.61-8.05-8.04-8.05H9.67z M100.26,137.54H9.67
				c-2.47,0-4.47-2.01-4.47-4.47v-0.76c0-0.31,0.25-0.56,0.56-0.56h98.42c0.31,0,0.56,0.25,0.56,0.56v0.76
				C104.73,135.53,102.73,137.54,100.26,137.54z M6.32,132.86v0.2c0,1.85,1.5,3.35,3.35,3.35h90.59c1.85,0,3.35-1.5,3.35-3.35v-0.2
				H6.32z M104.17,128.17H5.75c-0.31,0-0.56-0.25-0.56-0.56V33.87c0-0.31,0.25-0.56,0.56-0.56h98.42c0.31,0,0.56,0.25,0.56,0.56
				v93.74C104.73,127.92,104.48,128.17,104.17,128.17z M6.32,127.05h97.3V34.43H6.32V127.05z M104.17,29.75H43.24
				c-0.31,0-0.56-0.25-0.56-0.56V5.75c0-0.31,0.25-0.56,0.56-0.56h57.02c2.47,0,4.47,2.01,4.47,4.47v19.52
				C104.73,29.5,104.48,29.75,104.17,29.75z M43.8,28.63h59.81V9.67c0-1.85-1.5-3.35-3.35-3.35H43.8V28.63z M38.56,29.75H5.75
				c-0.31,0-0.56-0.25-0.56-0.56V9.67c0-2.47,2.01-4.47,4.47-4.47h28.89c0.31,0,0.56,0.25,0.56,0.56v23.43
				C39.12,29.5,38.87,29.75,38.56,29.75z M6.32,28.63H38V6.32H9.67c-1.85,0-3.35,1.5-3.35,3.35V28.63z"/>
			<path class="st0" d="M100.26,142.73H9.67c-5.33,0-9.67-4.34-9.67-9.67V9.67C0,4.34,4.34,0,9.67,0h90.59
				c5.33,0,9.67,4.34,9.67,9.67v123.4C109.92,138.4,105.59,142.73,100.26,142.73z M9.67,1C4.89,1,1,4.89,1,9.67v123.4
				c0,4.78,3.89,8.67,8.67,8.67h90.59c4.78,0,8.67-3.89,8.67-8.67V9.67c0-4.78-3.89-8.67-8.67-8.67H9.67z M100.26,141.61H9.67
				c-4.71,0-8.55-3.83-8.55-8.55V9.67c0-4.71,3.83-8.55,8.55-8.55h90.59c4.71,0,8.54,3.83,8.54,8.55v123.4
				C108.8,137.78,104.97,141.61,100.26,141.61z M9.67,2.12c-4.16,0-7.55,3.38-7.55,7.55v123.4c0,4.16,3.38,7.55,7.55,7.55h90.59
				c4.16,0,7.54-3.38,7.54-7.55V9.67c0-4.16-3.38-7.55-7.54-7.55H9.67z M100.26,138.04H9.67c-2.74,0-4.97-2.23-4.97-4.98v-0.77
				c0-0.58,0.48-1.06,1.06-1.06h98.42c0.58,0,1.06,0.48,1.06,1.06v0.77C105.23,135.81,103,138.04,100.26,138.04z M5.75,132.24
				l-0.06,0.83c0,2.19,1.78,3.98,3.97,3.98h90.59c2.19,0,3.97-1.78,3.97-3.98v-0.77L5.75,132.24z M100.26,136.92H9.67
				c-2.12,0-3.85-1.73-3.85-3.85v-0.2c0-0.28,0.22-0.5,0.5-0.5h97.3c0.28,0,0.5,0.22,0.5,0.5v0.2
				C104.11,135.19,102.38,136.92,100.26,136.92z M6.83,133.36c0.15,1.43,1.36,2.56,2.84,2.56h90.59c1.47,0,2.69-1.12,2.84-2.56H6.83
				z M104.17,128.67H5.75c-0.58,0-1.06-0.48-1.06-1.06V33.87c0-0.58,0.48-1.06,1.06-1.06h98.42c0.58,0,1.06,0.48,1.06,1.06v93.74
				C105.23,128.19,104.76,128.67,104.17,128.67z M5.75,33.81l-0.06,93.8l98.48,0.06c0.03,0,0.06-0.03,0.06-0.06V33.87L5.75,33.81z
				 M103.61,127.55H6.31c-0.28,0-0.5-0.22-0.5-0.5V34.43c0-0.28,0.22-0.5,0.5-0.5h97.3c0.28,0,0.5,0.22,0.5,0.5v92.62
				C104.11,127.32,103.89,127.55,103.61,127.55z M6.81,126.55h96.3V34.93H6.81V126.55z M104.17,30.25H43.24
				c-0.59,0-1.06-0.48-1.06-1.06V5.75c0-0.59,0.48-1.06,1.06-1.06h57.02c2.74,0,4.97,2.23,4.97,4.98v19.52
				C105.23,29.77,104.76,30.25,104.17,30.25z M43.24,5.69l-0.06,23.5l61,0.06c0.03,0,0.06-0.03,0.06-0.06V9.67
				c0-2.19-1.78-3.98-3.97-3.98H43.24z M38.56,30.25H5.75c-0.58,0-1.06-0.48-1.06-1.06V9.67c0-2.74,2.23-4.98,4.97-4.98h28.89
				c0.58,0,1.06,0.48,1.06,1.06v23.43C39.62,29.77,39.15,30.25,38.56,30.25z M9.67,5.69c-2.19,0-3.97,1.78-3.97,3.98v19.52
				l32.87,0.06c0.03,0,0.06-0.03,0.06-0.06V5.75L9.67,5.69z M103.61,29.13H43.8c-0.28,0-0.5-0.22-0.5-0.5V6.32
				c0-0.28,0.22-0.5,0.5-0.5h56.46c2.12,0,3.85,1.73,3.85,3.85v18.96C104.11,28.9,103.89,29.13,103.61,29.13z M44.3,28.13h58.81
				V9.67c0-1.57-1.28-2.85-2.85-2.85H44.3V28.13z M38,29.13H6.31c-0.28,0-0.5-0.22-0.5-0.5V9.67c0-2.12,1.73-3.85,3.85-3.85H38
				c0.28,0,0.5,0.22,0.5,0.5v22.31C38.5,28.9,38.28,29.13,38,29.13z M6.81,28.13H37.5V6.82H9.67c-1.57,0-2.85,1.28-2.85,2.85V28.13z
				"/>
		</g>
	</g>
	<g>
		<g>
			<path class="st0" d="M57.3,27.4c-5.48,0-9.93-4.46-9.93-9.93c0-5.49,4.46-9.95,9.93-9.95s9.93,4.46,9.93,9.95
				C67.23,22.95,62.78,27.4,57.3,27.4z M57.3,8.65c-4.86,0-8.81,3.96-8.81,8.82c0,4.86,3.95,8.81,8.81,8.81
				c4.86,0,8.81-3.95,8.81-8.81C66.11,12.61,62.16,8.65,57.3,8.65z M57.3,22.71c-2.89,0-5.24-2.35-5.24-5.24
				c0-2.9,2.35-5.25,5.24-5.25c2.9,0,5.25,2.36,5.25,5.25C62.56,20.36,60.2,22.71,57.3,22.71z M57.3,13.34
				c-2.27,0-4.12,1.85-4.12,4.13c0,2.27,1.85,4.12,4.12,4.12c2.28,0,4.13-1.85,4.13-4.12C61.43,15.19,59.58,13.34,57.3,13.34z"/>
		</g>
	</g>
	<g>
		<g>
			<path class="st0" d="M76.06,13.34h-2.35c-1.6,0-2.91-1.3-2.91-2.91s1.3-2.91,2.91-2.91h2.35c1.6,0,2.89,1.3,2.89,2.91
				S77.65,13.34,76.06,13.34z M73.71,8.65c-0.98,0-1.79,0.8-1.79,1.79s0.8,1.79,1.79,1.79h2.35c0.98,0,1.77-0.8,1.77-1.79
				s-0.79-1.79-1.77-1.79H73.71z"/>
		</g>
	</g>
	<g>
		<g>
			<path class="st0" d="M90.11,13.34h-7.02c-1.6,0-2.91-1.3-2.91-2.91s1.3-2.91,2.91-2.91h7.02c1.6,0,2.91,1.3,2.91,2.91
				S91.71,13.34,90.11,13.34z M83.08,8.65c-0.98,0-1.79,0.8-1.79,1.79s0.8,1.79,1.79,1.79h7.02c0.98,0,1.79-0.8,1.79-1.79
				s-0.8-1.79-1.79-1.79H83.08z"/>
		</g>
	</g>
	<g>
		<g>
			<path class="st0" d="M76.06,20.36h-2.35c-1.6,0-2.91-1.3-2.91-2.89c0-1.6,1.3-2.91,2.91-2.91h2.35c1.6,0,2.89,1.3,2.89,2.91
				C78.95,19.07,77.65,20.36,76.06,20.36z M73.71,15.69c-0.98,0-1.79,0.8-1.79,1.79c0,0.98,0.8,1.77,1.79,1.77h2.35
				c0.98,0,1.77-0.79,1.77-1.77c0-1-0.78-1.79-1.77-1.79H73.71z"/>
		</g>
	</g>
	<g>
		<g>
			<path class="st0" d="M90.11,20.36h-7.02c-1.6,0-2.91-1.3-2.91-2.89c0-1.6,1.3-2.91,2.91-2.91h7.02c1.6,0,2.91,1.3,2.91,2.91
				C93.01,19.07,91.71,20.36,90.11,20.36z M83.08,15.69c-0.98,0-1.79,0.8-1.79,1.79c0,0.98,0.8,1.77,1.79,1.77h7.02
				c0.98,0,1.79-0.79,1.79-1.77c0-0.98-0.8-1.79-1.79-1.79H83.08z"/>
		</g>
	</g>
	<g>
		<g>
			<path class="st0" d="M76.06,27.4h-2.35c-1.6,0-2.91-1.3-2.91-2.91s1.3-2.91,2.91-2.91h2.35c1.6,0,2.89,1.3,2.89,2.91
				S77.65,27.4,76.06,27.4z M73.71,22.71c-0.98,0-1.79,0.8-1.79,1.79c0,0.98,0.8,1.79,1.79,1.79h2.35c0.98,0,1.77-0.8,1.77-1.79
				c0-0.98-0.79-1.79-1.77-1.79H73.71z"/>
		</g>
	</g>
	<g>
		<g>
			<path class="st0" d="M90.11,27.4h-7.02c-1.6,0-2.91-1.3-2.91-2.91s1.3-2.91,2.91-2.91h7.02c1.6,0,2.91,1.3,2.91,2.91
				S91.71,27.4,90.11,27.4z M83.08,22.71c-0.98,0-1.79,0.8-1.79,1.79c0,0.98,0.8,1.79,1.79,1.79h7.02c0.98,0,1.79-0.8,1.79-1.79
				c0-0.98-0.8-1.79-1.79-1.79H83.08z"/>
		</g>
	</g>
	<g>
		<g>
			<path class="st0" d="M54.95,123.49c-23.57,0-42.74-19.18-42.74-42.75C12.22,57.17,31.39,38,54.95,38
				c12.27,0,23.97,5.33,32.12,14.62c0.41,0.28,0.72,0.63,0.92,1.03c6.27,7.62,9.72,17.24,9.72,27.09c0,8.16-2.32,16.08-6.72,22.95
				l1.34,1.34c1.43,1.43,2.22,3.34,2.22,5.38c0,2.04-0.79,3.94-2.22,5.37c-1.42,1.43-3.33,2.22-5.36,2.22
				c-2.03,0-3.94-0.79-5.37-2.22l-0.91-0.91C73.29,120.42,64.18,123.49,54.95,123.49z M54.95,39.12
				c-22.95,0-41.62,18.67-41.62,41.62c0,22.96,18.67,41.63,41.62,41.63c9.14,0,18.17-3.09,25.43-8.71c0.22-0.17,0.54-0.15,0.74,0.05
				l1.26,1.26c1.22,1.22,2.85,1.89,4.58,1.89c1.73,0,3.36-0.67,4.57-1.89c1.22-1.22,1.9-2.84,1.9-4.57c0-1.73-0.67-3.36-1.89-4.58
				l-1.66-1.66c-0.19-0.19-0.22-0.48-0.07-0.71c4.44-6.77,6.79-14.63,6.79-22.72c0-9.62-3.38-19-9.51-26.43
				c-0.03-0.04-0.06-0.08-0.08-0.12c-0.12-0.25-0.32-0.48-0.61-0.67c-0.04-0.03-0.08-0.06-0.11-0.1
				C78.34,44.33,66.93,39.12,54.95,39.12z M54.95,118.8c-20.98,0-38.04-17.07-38.04-38.06s17.07-38.06,38.04-38.06
				c20.99,0,38.06,17.07,38.06,38.06c0,7.04-1.96,13.93-5.67,19.92c-0.09,0.15-0.24,0.24-0.41,0.26c-0.17,0.02-0.34-0.04-0.46-0.16
				l-3.41-3.41c-0.18-0.18-0.22-0.45-0.09-0.67c2.26-3.97,3.62-8.26,4.06-12.75c0.01-0.06,0.02-0.11,0.04-0.16
				c0.09-0.22,0.14-0.45,0.14-0.68c-0.04-0.11-0.06-0.18-0.07-0.25c-0.01-0.05-0.01-0.09-0.01-0.14c0.05-0.65,0.08-1.3,0.08-1.95
				c0-10.79-5.39-20.82-14.42-26.85c-0.04-0.03-0.07-0.06-0.11-0.09c-0.22-0.25-0.51-0.42-0.87-0.52c-0.05-0.01-0.1-0.04-0.14-0.06
				c-5.06-3.09-10.84-4.72-16.72-4.72c-17.78,0-32.24,14.46-32.24,32.24c0,5.86,1.64,11.64,4.74,16.72c0.03,0.05,0.05,0.1,0.06,0.15
				c0.09,0.35,0.26,0.63,0.51,0.85c0.04,0.03,0.07,0.07,0.1,0.11c6.01,9.02,16.04,14.41,26.83,14.41c0.54,0,1.06-0.03,1.59-0.06
				l0.32-0.02c0.04,0,0.08,0,0.12,0.01c0.07,0.01,0.13,0.03,0.19,0.04c0.05,0.01,0.1,0.03,0.12,0.03c0.21,0,0.42-0.04,0.64-0.13
				c0.05-0.02,0.1-0.03,0.15-0.04c5.62-0.55,11.02-2.58,15.61-5.87c0.22-0.16,0.53-0.13,0.72,0.06l3.33,3.34
				c0.11,0.12,0.17,0.28,0.16,0.44c-0.01,0.16-0.09,0.31-0.22,0.41C71.15,116.1,63.07,118.8,54.95,118.8z M54.95,43.8
				c-20.36,0-36.92,16.57-36.92,36.94s16.56,36.94,36.92,36.94c7.66,0,15.29-2.48,21.55-7l-2.54-2.54
				c-4.64,3.23-10.06,5.23-15.69,5.79c-0.5,0.18-1.09,0.19-1.38,0.12l-0.28,0c-0.55,0.03-1.1,0.06-1.65,0.06
				c-11.15,0-21.51-5.55-27.73-14.85c-0.37-0.34-0.64-0.78-0.78-1.28c-3.18-5.24-4.86-11.2-4.86-17.24
				c0-18.4,14.97-33.37,33.37-33.37c6.07,0,12.03,1.68,17.25,4.85c0.5,0.15,0.93,0.42,1.27,0.77c9.31,6.24,14.86,16.6,14.86,27.74
				c0,0.65-0.03,1.29-0.08,1.94c0.04,0.14,0.08,0.26,0.08,0.41c0,0.35-0.07,0.69-0.2,1.03c-0.45,4.48-1.79,8.76-3.98,12.74l2.6,2.6
				c3.36-5.67,5.13-12.12,5.13-18.72C91.89,60.37,75.32,43.8,54.95,43.8z M86.96,113.27c-0.75,0-1.5-0.27-2.05-0.81L71.65,99.19
				c-1.13-1.13-1.13-2.98,0-4.11c1.13-1.09,3-1.07,4.1-0.01l13.27,13.27c0.54,0.54,0.84,1.27,0.84,2.05c0,0.77-0.3,1.5-0.83,2.05
				C88.47,112.99,87.71,113.27,86.96,113.27z M73.7,95.36c-0.47,0-0.92,0.18-1.26,0.52c-0.69,0.69-0.69,1.82,0.01,2.52l0,0
				l13.25,13.26c0.66,0.65,1.87,0.65,2.53,0c0.33-0.34,0.51-0.78,0.51-1.26c0-0.49-0.18-0.93-0.51-1.26L74.96,95.87
				C74.63,95.54,74.18,95.36,73.7,95.36z M54.95,109.43c-6.08,0-11.92-1.92-16.89-5.56c-0.09-0.07-0.16-0.16-0.2-0.27
				c-0.22-0.63-0.77-1.07-1.45-1.16c-0.11-0.01-0.21-0.06-0.3-0.13c-5.38-4.69-8.8-11.16-9.63-18.21c-0.03-0.28,0.14-0.53,0.41-0.61
				c0.27-0.07,0.55,0.06,0.66,0.31c0.29,0.66,0.92,1.06,1.63,1.06c0.98,0,1.77-0.8,1.77-1.79s-0.79-1.79-1.77-1.79
				c-0.82,0-1.52,0.59-1.71,1.43c-0.06,0.27-0.3,0.47-0.59,0.44c-0.28-0.02-0.5-0.25-0.52-0.53l-0.03-0.49
				c-0.03-0.47-0.06-0.95-0.06-1.42c0-3.26,0.58-6.52,1.72-9.69c0.1-0.28,0.39-0.43,0.67-0.35c0.25,0.07,0.39,0.11,0.52,0.11
				c0.98,0,1.77-0.8,1.77-1.79c0-0.59-0.31-1.13-0.85-1.47c-0.25-0.16-0.33-0.49-0.19-0.75c0.97-1.75,2.17-3.44,3.56-5.01
				c0.15-0.17,0.39-0.23,0.6-0.16c0.21,0.07,0.36,0.26,0.38,0.49c0.07,0.93,0.84,1.66,1.75,1.66c0.98,0,1.79-0.8,1.79-1.79
				c0-0.93-0.71-1.68-1.65-1.75c-0.23-0.02-0.42-0.17-0.49-0.38c-0.07-0.21-0.01-0.45,0.16-0.6c1.57-1.38,3.25-2.58,5-3.57
				c0.26-0.15,0.59-0.06,0.75,0.19c0.34,0.54,0.87,0.86,1.47,0.86c0.98,0,1.79-0.8,1.79-1.78c0-0.12-0.04-0.26-0.08-0.42
				c-0.08-0.28,0.05-0.66,0.33-0.76c3.15-1.14,6.41-1.71,9.69-1.71c0.66,0,1.29,0.04,1.92,0.09c0.28,0.02,0.5,0.25,0.52,0.52
				c0.02,0.28-0.17,0.53-0.45,0.59c-0.84,0.17-1.43,0.87-1.43,1.69c0,0.98,0.8,1.78,1.79,1.78c0.98,0,1.79-0.8,1.79-1.78
				c0-0.69-0.42-1.33-1.06-1.61c-0.25-0.11-0.39-0.39-0.31-0.66c0.07-0.27,0.34-0.44,0.61-0.41c7.04,0.83,13.51,4.24,18.21,9.62
				c0.07,0.08,0.12,0.19,0.13,0.3c0.09,0.68,0.53,1.24,1.16,1.46c0.11,0.04,0.2,0.11,0.27,0.2c3.63,4.96,5.55,10.8,5.55,16.89
				c0,4.52-1.09,9.03-3.14,13.02c-0.08,0.16-0.23,0.27-0.41,0.3c-0.18,0.03-0.36-0.03-0.48-0.16l-1.13-1.13
				c-0.14-0.14-0.2-0.36-0.14-0.55c0.06-0.2,0.22-0.35,0.42-0.39c0.84-0.18,1.42-0.88,1.42-1.71c0-0.98-0.8-1.77-1.79-1.77
				c-0.98,0-1.77,0.79-1.77,1.77c0,0.04,0.02,0.1,0.04,0.17l0.04,0.17c0.04,0.2-0.03,0.41-0.18,0.54c-0.16,0.13-0.37,0.18-0.56,0.1
				c-2.37-0.88-5.05-0.3-6.82,1.47c-0.91,0.91-1.53,2.06-1.78,3.34c-0.4,2.12,0.26,4.29,1.78,5.81l1.95,1.94
				c0.12,0.12,0.18,0.28,0.16,0.45c-0.02,0.17-0.11,0.32-0.25,0.41C66.23,107.73,60.69,109.43,54.95,109.43z M38.86,103.06
				c4.74,3.43,10.3,5.24,16.09,5.24c5.28,0,10.4-1.5,14.84-4.34l-1.46-1.46c-1.78-1.78-2.56-4.33-2.09-6.82
				c0.3-1.5,1.02-2.85,2.09-3.92c1.87-1.88,4.62-2.62,7.18-1.98c0.16-1.44,1.39-2.57,2.88-2.57c1.3,0,2.41,0.86,2.78,2.04
				c0.89-2.74,1.35-5.62,1.35-8.51c0-5.79-1.81-11.35-5.24-16.09c-0.89-0.37-1.53-1.17-1.71-2.14c-4.12-4.66-9.64-7.77-15.69-8.87
				c0.21,0.4,0.32,0.85,0.32,1.32c0,1.6-1.3,2.91-2.91,2.91s-2.91-1.3-2.91-2.91c0-0.66,0.24-1.28,0.64-1.77
				c-2.98-0.02-6.01,0.49-8.91,1.48c0.02,0.09,0.02,0.19,0.02,0.29c0,1.6-1.3,2.91-2.91,2.91c-0.8,0-1.55-0.35-2.09-0.95
				c-1.24,0.73-2.45,1.58-3.6,2.52c0.94,0.48,1.57,1.44,1.57,2.56c0,1.6-1.3,2.91-2.91,2.91c-1.1,0-2.08-0.64-2.56-1.58
				c-0.95,1.16-1.79,2.36-2.51,3.61c0.6,0.54,0.94,1.3,0.94,2.09c0,1.6-1.3,2.91-2.89,2.91c-0.11,0-0.21-0.01-0.3-0.02
				c-0.99,2.9-1.48,5.87-1.48,8.83c0,0.03,0,0.05,0,0.07c0.49-0.4,1.11-0.64,1.79-0.64c1.6,0,2.89,1.3,2.89,2.91
				c0,1.6-1.3,2.91-2.89,2.91c-0.47,0-0.93-0.12-1.33-0.32c1.1,6.05,4.21,11.57,8.88,15.69C37.7,101.54,38.49,102.17,38.86,103.06z"
				/>
		</g>
	</g>
	<g>
		<g>
			<path class="st0" d="M50.28,64.9c-1.6,0-2.91-1.3-2.91-2.91s1.3-2.91,2.91-2.91s2.91,1.3,2.91,2.91S51.88,64.9,50.28,64.9z
				 M50.28,60.21c-0.98,0-1.79,0.8-1.79,1.79s0.8,1.79,1.79,1.79c0.98,0,1.79-0.8,1.79-1.79S51.26,60.21,50.28,60.21z"/>
		</g>
	</g>
	<g>
		<g>
			<path class="st0" d="M36.21,78.95c-1.6,0-2.91-1.3-2.91-2.89c0-1.6,1.3-2.91,2.91-2.91s2.91,1.3,2.91,2.91
				C39.12,77.65,37.82,78.95,36.21,78.95z M36.21,74.27c-0.98,0-1.79,0.8-1.79,1.79c0,0.98,0.8,1.77,1.79,1.77
				c0.98,0,1.79-0.79,1.79-1.77C38,75.08,37.2,74.27,36.21,74.27z"/>
		</g>
	</g>
	<g>
		<g>
			<path class="st0" d="M50.28,78.95c-1.6,0-2.91-1.3-2.91-2.89c0-1.6,1.3-2.91,2.91-2.91s2.91,1.3,2.91,2.91
				C53.18,77.65,51.88,78.95,50.28,78.95z M50.28,74.27c-0.98,0-1.79,0.8-1.79,1.79c0,0.98,0.8,1.77,1.79,1.77
				c0.98,0,1.79-0.79,1.79-1.77C52.06,75.08,51.26,74.27,50.28,74.27z"/>
		</g>
	</g>
	<g>
		<g>
			<path class="st0" d="M43.24,71.93c-1.59,0-2.89-1.3-2.89-2.91c0-1.6,1.3-2.91,2.89-2.91c1.6,0,2.91,1.3,2.91,2.91
				C46.15,70.62,44.84,71.93,43.24,71.93z M43.24,67.23c-0.98,0-1.77,0.8-1.77,1.79s0.79,1.79,1.77,1.79c0.98,0,1.79-0.8,1.79-1.79
				S44.22,67.23,43.24,67.23z"/>
		</g>
	</g>
	<g>
		<g>
			<path class="st0" d="M57.3,71.93c-1.6,0-2.91-1.3-2.91-2.91c0-1.6,1.3-2.91,2.91-2.91s2.91,1.3,2.91,2.91
				C60.21,70.62,58.9,71.93,57.3,71.93z M57.3,67.23c-0.98,0-1.79,0.8-1.79,1.79s0.8,1.79,1.79,1.79c0.98,0,1.79-0.8,1.79-1.79
				S58.29,67.23,57.3,67.23z"/>
		</g>
	</g>
	<g>
		<g>
			<path class="st0" d="M43.24,85.99c-1.59,0-2.89-1.3-2.89-2.91c0-1.6,1.3-2.91,2.89-2.91c1.6,0,2.91,1.3,2.91,2.91
				C46.15,84.69,44.84,85.99,43.24,85.99z M43.24,81.3c-0.98,0-1.77,0.8-1.77,1.79s0.79,1.79,1.77,1.79c0.98,0,1.79-0.8,1.79-1.79
				S44.22,81.3,43.24,81.3z"/>
		</g>
	</g>
	<g>
		<g>
			<path class="st0" d="M57.3,85.99c-1.6,0-2.91-1.3-2.91-2.91c0-1.6,1.3-2.91,2.91-2.91s2.91,1.3,2.91,2.91
				C60.21,84.69,58.9,85.99,57.3,85.99z M57.3,81.3c-0.98,0-1.79,0.8-1.79,1.79s0.8,1.79,1.79,1.79c0.98,0,1.79-0.8,1.79-1.79
				S58.29,81.3,57.3,81.3z"/>
		</g>
	</g>
	<g>
		<g>
			<path class="st0" d="M64.34,64.9c-1.6,0-2.91-1.3-2.91-2.91s1.3-2.91,2.91-2.91c1.6,0,2.89,1.3,2.89,2.91S65.94,64.9,64.34,64.9z
				 M64.34,60.21c-0.98,0-1.79,0.8-1.79,1.79s0.8,1.79,1.79,1.79c0.98,0,1.77-0.8,1.77-1.79S65.32,60.21,64.34,60.21z"/>
		</g>
	</g>
	<g>
		<g>
			<path class="st0" d="M64.34,78.95c-1.6,0-2.91-1.3-2.91-2.89c0-1.6,1.3-2.91,2.91-2.91c1.6,0,2.89,1.3,2.89,2.91
				C67.23,77.65,65.94,78.95,64.34,78.95z M64.34,74.27c-1,0-1.79,0.78-1.79,1.79c0,0.99,0.78,1.77,1.79,1.77
				c0.98,0,1.77-0.79,1.77-1.77C66.11,75.06,65.33,74.27,64.34,74.27z"/>
		</g>
	</g>
	<g>
		<g>
			<path class="st0" d="M78.39,78.95c-1.6,0-2.89-1.3-2.89-2.89c0-1.6,1.3-2.91,2.89-2.91c1.6,0,2.91,1.3,2.91,2.91
				C81.3,77.65,79.99,78.95,78.39,78.95z M78.39,74.27c-0.99,0-1.77,0.78-1.77,1.79c0,0.98,0.79,1.77,1.77,1.77
				c1,0,1.79-0.78,1.79-1.77C80.18,75.06,79.39,74.27,78.39,74.27z"/>
		</g>
	</g>
	<g>
		<g>
			<path class="st0" d="M71.37,71.93c-1.6,0-2.91-1.3-2.91-2.91c0-1.6,1.3-2.91,2.91-2.91c1.6,0,2.91,1.3,2.91,2.91
				C74.27,70.62,72.97,71.93,71.37,71.93z M71.37,67.23c-0.98,0-1.79,0.8-1.79,1.79s0.8,1.79,1.79,1.79s1.79-0.8,1.79-1.79
				S72.35,67.23,71.37,67.23z"/>
		</g>
	</g>
	<g>
		<g>
			<path class="st0" d="M71.37,85.99c-1.6,0-2.91-1.3-2.91-2.91c0-1.6,1.3-2.91,2.91-2.91c1.6,0,2.91,1.3,2.91,2.91
				C74.27,84.69,72.97,85.99,71.37,85.99z M71.37,81.3c-0.98,0-1.79,0.8-1.79,1.79s0.8,1.79,1.79,1.79s1.79-0.8,1.79-1.79
				S72.35,81.3,71.37,81.3z"/>
		</g>
	</g>
	<g>
		<g>
			<path class="st0" d="M36.21,93.02c-1.6,0-2.91-1.3-2.91-2.91c0-1.59,1.3-2.89,2.91-2.89s2.91,1.3,2.91,2.89
				C39.12,91.71,37.82,93.02,36.21,93.02z M36.21,88.34c-0.98,0-1.79,0.79-1.79,1.77c0,0.98,0.8,1.79,1.79,1.79
				c0.98,0,1.79-0.8,1.79-1.79C38,89.13,37.2,88.34,36.21,88.34z"/>
		</g>
	</g>
	<g>
		<g>
			<path class="st0" d="M50.28,93.02c-1.6,0-2.91-1.3-2.91-2.91c0-1.59,1.3-2.89,2.91-2.89s2.91,1.3,2.91,2.89
				C53.18,91.71,51.88,93.02,50.28,93.02z M50.28,88.34c-0.98,0-1.79,0.79-1.79,1.77c0,0.98,0.8,1.79,1.79,1.79
				c0.98,0,1.79-0.8,1.79-1.79C52.06,89.13,51.26,88.34,50.28,88.34z"/>
		</g>
	</g>
	<g>
		<g>
			<path class="st0" d="M50.28,107.08c-1.6,0-2.91-1.3-2.91-2.91c0-1.6,1.3-2.91,2.91-2.91s2.91,1.3,2.91,2.91
				C53.18,105.78,51.88,107.08,50.28,107.08z M50.28,102.39c-0.98,0-1.79,0.8-1.79,1.79c0,0.98,0.8,1.79,1.79,1.79
				c0.98,0,1.79-0.8,1.79-1.79C52.06,103.19,51.26,102.39,50.28,102.39z"/>
		</g>
	</g>
	<g>
		<g>
			<path class="st0" d="M43.24,100.05c-1.59,0-2.89-1.3-2.89-2.91c0-1.6,1.3-2.91,2.89-2.91c1.6,0,2.91,1.3,2.91,2.91
				C46.15,98.75,44.84,100.05,43.24,100.05z M43.24,95.36c-0.98,0-1.77,0.8-1.77,1.79c0,0.98,0.79,1.79,1.77,1.79
				c0.98,0,1.79-0.8,1.79-1.79C45.02,96.16,44.22,95.36,43.24,95.36z"/>
		</g>
	</g>
	<g>
		<g>
			<path class="st0" d="M57.3,100.05c-1.6,0-2.91-1.3-2.91-2.91c0-1.6,1.3-2.91,2.91-2.91s2.91,1.3,2.91,2.91
				C60.21,98.75,58.9,100.05,57.3,100.05z M57.3,95.36c-0.98,0-1.79,0.8-1.79,1.79c0,0.98,0.8,1.79,1.79,1.79
				c0.98,0,1.79-0.8,1.79-1.79C59.09,96.16,58.29,95.36,57.3,95.36z"/>
		</g>
	</g>
	<g>
		<g>
			<path class="st0" d="M64.34,93.02c-1.63,0-2.91-1.28-2.91-2.91c0-1.59,1.3-2.89,2.91-2.89c1.6,0,2.89,1.3,2.89,2.89
				C67.23,91.71,65.94,93.02,64.34,93.02z M64.34,88.34c-1,0-1.79,0.78-1.79,1.77c0,1,0.78,1.79,1.79,1.79
				c0.99,0,1.77-0.78,1.77-1.79C66.11,89.13,65.32,88.34,64.34,88.34z"/>
		</g>
	</g>
	<g>
		<g>
			<path class="st0" d="M64.34,107.08c-1.6,0-2.91-1.3-2.91-2.91c0-1.6,1.3-2.91,2.91-2.91c1.6,0,2.89,1.3,2.89,2.91
				C67.23,105.78,65.94,107.08,64.34,107.08z M64.34,102.39c-0.98,0-1.79,0.8-1.79,1.79c0,0.98,0.8,1.79,1.79,1.79
				c0.98,0,1.77-0.8,1.77-1.79C66.11,103.19,65.32,102.39,64.34,102.39z"/>
		</g>
	</g>
</g>
</svg>
