<?xml version="1.0" encoding="utf-8"?>
<!-- Generator: Adobe Illustrator 23.0.1, SVG Export Plug-In . SVG Version: 6.00 Build 0)  -->
<svg version="1.1" id="Слой_1" xmlns="http://www.w3.org/2000/svg" xmlns:xlink="http://www.w3.org/1999/xlink" x="0px" y="0px"
	 viewBox="0 0 190.47 143.73" style="enable-background:new 0 0 190.47 143.73;" xml:space="preserve">
<style type="text/css">
	.st0{fill:#ffffff;}
</style>
<g>
	<g>
		<g>
			<path class="st0" d="M101.91,143.73H88.56c-2.8,0-5.09-2.28-5.09-5.09v-12.14C43.84,123.01,12,101.69,7.31,75.48
				C2.85,73.19,0,68.56,0,63.52c0-7.41,6.03-13.43,13.43-13.43H60.5l-6.23-6.22c-1.98-1.99-1.97-5.22,0-7.19l11.8-11.8
				c2-1.97,5.22-1.97,7.19,0l3.53,3.53v-5.19c-1.97-0.72-3.32-2.61-3.32-4.78V5.09c0-2.8,2.27-5.09,5.06-5.09h33.39
				c2.8,0,5.09,2.28,5.09,5.09v13.35c0,2.18-1.36,4.08-3.34,4.79v4.54l2.9-2.9c2-1.97,5.22-1.97,7.19,0l11.8,11.8
				c1.97,1.97,1.97,5.2,0.01,7.18l-6.24,6.23h47.71c7.41,0,13.43,6.03,13.43,13.43c0,5.04-2.85,9.68-7.32,11.96
				c-4.69,26.21-36.52,47.53-76.16,51.02v12.14C107,141.45,104.72,143.73,101.91,143.73z M13.43,53.57c-5.49,0-9.95,4.46-9.95,9.95
				c0,4.01,2.39,7.61,6.08,9.17c0.55,0.23,0.95,0.75,1.04,1.34c3.92,25.5,35.36,46.16,74.75,49.13c0.9,0.07,1.61,0.83,1.61,1.74
				v13.74c0,0.88,0.72,1.6,1.6,1.6h13.35c0.88,0,1.6-0.72,1.6-1.6V124.9c0-0.9,0.71-1.67,1.61-1.74
				c39.39-2.98,70.82-23.64,74.75-49.13c0.09-0.59,0.49-1.1,1.04-1.34c3.69-1.57,6.08-5.17,6.08-9.17c0-5.49-4.46-9.95-9.95-9.95
				h-51.93c-0.71,0-1.34-0.42-1.61-1.08c-0.27-0.65-0.12-1.4,0.38-1.9l9.21-9.19c0.62-0.63,0.62-1.64,0-2.27l-11.8-11.8
				c-0.62-0.62-1.64-0.62-2.27,0.01l-5.86,5.86c-0.5,0.5-1.24,0.65-1.89,0.38c-0.66-0.27-1.08-0.9-1.08-1.61V21.78
				c0-0.96,0.78-1.74,1.74-1.74c0.91,0,1.6-0.69,1.6-1.6V5.09c0-0.88-0.72-1.6-1.6-1.6H78.53c-0.87,0-1.58,0.72-1.58,1.6v13.35
				c0,0.91,0.68,1.6,1.58,1.6c0.96,0,1.74,0.78,1.74,1.74v10.83c0,0.71-0.42,1.34-1.08,1.61c-0.65,0.27-1.4,0.13-1.9-0.38l-6.5-6.51
				c-0.62-0.62-1.64-0.62-2.27,0.01l-11.8,11.8c-0.62,0.62-0.62,1.64,0.01,2.27l9.2,9.19c0.5,0.5,0.65,1.24,0.38,1.9
				c-0.27,0.66-0.9,1.08-1.61,1.08H13.43z M98.57,137.05H91.9c-0.96,0-1.74-0.78-1.74-1.74v-10.01c0-0.96,0.78-1.74,1.74-1.74h6.67
				c0.96,0,1.74,0.78,1.74,1.74v10.01C100.31,136.26,99.53,137.05,98.57,137.05z M93.65,133.56h3.18v-6.52h-3.18V133.56z M178,69.43
				l-0.01-2H178V69.43z M115.67,53.57h-3.75c-0.96,0-1.74-0.78-1.74-1.74V41.41c0-0.47,0.18-0.9,0.51-1.23l8.23-8.23
				c0.66-0.66,1.81-0.66,2.46,0l7.09,7.09c0.33,0.33,0.51,0.77,0.51,1.23s-0.18,0.9-0.51,1.23L116.9,53.06
				C116.58,53.39,116.14,53.57,115.67,53.57z M113.66,50.09h1.29l9.83-9.81l-4.63-4.63l-6.49,6.49V50.09z M105.26,53.57H85.22
				c-0.96,0-1.74-0.78-1.74-1.74V21.78c0-0.96,0.78-1.74,1.74-1.74h20.04c0.96,0,1.74,0.78,1.74,1.74v30.05
				C107,52.79,106.22,53.57,105.26,53.57z M86.96,50.09h16.55V23.52H86.96V50.09z M78.53,53.57h-4.38c-0.47,0-0.9-0.18-1.23-0.51
				L61.35,41.5c-0.68-0.68-0.68-1.78,0-2.46l7.07-7.09c0.66-0.66,1.81-0.66,2.46,0l8.87,8.87c0.33,0.33,0.51,0.77,0.51,1.23v9.78
				C80.27,52.79,79.49,53.57,78.53,53.57z M74.87,50.09h1.92v-7.32l-7.13-7.13l-4.61,4.62L74.87,50.09z M108.6,16.86H81.87
				c-0.96,0-1.74-0.78-1.74-1.74V8.43c0-0.96,0.78-1.74,1.74-1.74h26.73c0.96,0,1.74,0.78,1.74,1.74v6.69
				C110.34,16.08,109.56,16.86,108.6,16.86z M83.62,13.37h23.24v-3.2H83.62V13.37z"/>
		</g>
	</g>
</g>
<g>
	<path class="st0" d="M95.23,118.37c-39.13,0-73.07-18.18-78.95-42.3l-0.15-0.62h158.23l-0.15,0.62
		C168.32,100.18,134.37,118.37,95.23,118.37z M17.4,76.45c6.2,23.37,39.48,40.91,77.82,40.91c38.35,0,71.64-17.54,77.85-40.91H17.4z
		"/>
</g>
<g>
	<path class="st0" d="M177.04,69.76H13.43c-0.38,0-0.72-0.03-1.06-0.1c-0.02,0.01-0.13-0.01-0.24-0.04
		c-2.84-0.57-4.94-3.14-4.94-6.1c0-3.44,2.8-6.25,6.25-6.25h163.61c3.44,0,6.25,2.8,6.25,6.25c0,3-2.13,5.57-5.07,6.13l-0.12,0.02
		C177.8,69.73,177.43,69.76,177.04,69.76z M13.43,58.27c-2.89,0-5.25,2.35-5.25,5.25c0,2.49,1.76,4.65,4.18,5.14l0.19,0.03
		c0.28,0.05,0.56,0.08,0.87,0.08h163.61c0.32,0,0.62-0.03,0.93-0.09c2.53-0.48,4.32-2.64,4.32-5.16c0-2.89-2.35-5.25-5.25-5.25
		H13.43z"/>
</g>
</svg>
