<?xml version="1.0" encoding="utf-8"?>
<!-- Generator: Adobe Illustrator 16.0.0, SVG Export Plug-In . SVG Version: 6.00 Build 0)  -->
<!DOCTYPE svg PUBLIC "-//W3C//DTD SVG 1.1//EN" "http://www.w3.org/Graphics/SVG/1.1/DTD/svg11.dtd">
<svg version="1.1" id="Слой_1" xmlns="http://www.w3.org/2000/svg" xmlns:xlink="http://www.w3.org/1999/xlink" x="0px" y="0px"
	 width="800px" height="258.025px" viewBox="0 0 800 258.025" enable-background="new 0 0 800 258.025" xml:space="preserve">
<g>
	<polygon fill="#FCBF00" points="50.777,17.594 0.868,54.298 10.771,67.019 50.815,37.573 91.159,67.028 101.017,54.276 	"/>
	<path d="M17.797,213.541V97.053h29.185c11.784,0,21.138,2.92,28.059,8.756c6.92,5.835,10.38,13.73,10.38,23.68
		c0,6.784-1.695,12.646-5.085,17.595c-3.392,4.949-8.255,8.645-14.593,11.091c3.724,2.447,7.366,5.783,10.923,10.007
		c3.559,4.224,8.56,11.588,15.01,22.096c4.057,6.617,7.309,11.588,9.754,14.925l6.171,8.338H87.756l-5.081-7.675
		c-0.167-0.276-0.5-0.751-0.999-1.419l-3.249-4.588l-5.162-8.51l-5.579-9.094c-3.443-4.782-6.598-8.589-9.465-11.421
		c-2.865-2.828-5.453-4.87-7.763-6.117c-2.31-1.247-6.191-1.875-11.645-1.875h-4.34v50.697H17.797z M39.476,111.228h-5.001v36.774
		h6.336c8.45,0,14.245-0.72,17.386-2.169c3.14-1.445,5.587-3.627,7.337-6.542c1.751-2.92,2.628-6.24,2.628-9.968
		c0-3.667-0.975-6.991-2.92-9.963c-1.945-2.973-4.683-5.071-8.213-6.296C53.498,111.842,47.649,111.228,39.476,111.228z"/>
	<path d="M124.542,97.053h66.038v14.841h-49.361v35.523h47.692v14.925h-47.692v36.19h50.946v14.841h-67.623V97.053z"/>
	<path d="M306.581,97.053h15.842v116.488h-14.341l-77.878-89.711v89.711h-15.676V97.053h13.506l78.546,90.476V97.053z"/>
	<path d="M341.533,96.886h97.308v14.842h-40.607v101.813h-16.76V111.728h-39.94V96.886z"/>
	<path d="M528.76,97.053h20.247l-43.031,54.865v61.623h-17.091v-61.623l-43.026-54.865h20.132l31.176,40.16L528.76,97.053z"/>
	<path fill="#FCBF00" d="M549.517,194.945c2.836,0,5.251,0.976,7.253,2.921c2.003,1.944,3.004,4.334,3.004,7.17
		c0,2.779-0.988,5.115-2.96,7.004c-1.976,1.888-4.408,2.837-7.297,2.837c-2.837,0-5.226-0.949-7.171-2.837
		c-1.945-1.889-2.921-4.225-2.921-7.004c0-2.836,0.976-5.226,2.921-7.17C544.291,195.921,546.68,194.945,549.517,194.945z"/>
	<path d="M682.439,97.053h15.593v116.488h-16.761v-90.638l-35.812,45.029h-3.087l-36.229-45.029v90.638h-16.678V97.053h15.79
		l38.707,47.844L682.439,97.053z"/>
	<path d="M727.228,97.053h66.04v14.841h-49.363v35.523H791.6v14.925h-47.695v36.19h50.944v14.841h-67.621V97.053z"/>
</g>
</svg>
