<?xml version="1.0" encoding="utf-8"?>
<!-- Generator: Adobe Illustrator 23.0.1, SVG Export Plug-In . SVG Version: 6.00 Build 0)  -->
<svg version="1.1" id="Слой_1" xmlns="http://www.w3.org/2000/svg" xmlns:xlink="http://www.w3.org/1999/xlink" x="0px" y="0px"
	 viewBox="0 0 120.3 143.73" style="enable-background:new 0 0 120.3 143.73;" xml:space="preserve">
<style type="text/css">
	.st0{fill:#ffffff;}
</style>
<g>
	<g>
		<g>
			<path class="st0" d="M51.36,143.73h-40.8c-0.55,0-1.09-0.12-1.59-0.34c-0.24-0.13-0.38-0.22-0.49-0.3
				c-0.24-0.15-0.5-0.35-0.73-0.59c-0.11-0.08-0.21-0.19-0.3-0.32c-0.12-0.19-0.18-0.31-0.24-0.42c-0.12-0.19-0.22-0.39-0.3-0.6
				c-0.1-0.3-0.16-0.54-0.19-0.79c-0.02-0.09-0.05-0.21-0.06-0.35l-0.04-0.31l0.09-0.31c0.05-0.38,0.16-0.78,0.31-1.16l0.05-0.1
				c0.13-0.25,0.26-0.45,0.42-0.64c0.08-0.12,0.22-0.28,0.38-0.45c0.09-0.12,0.21-0.22,0.31-0.3l21.85-17.05
				c0.08-0.13,0.13-0.33,0.09-0.54l-4.1-24.62c-0.23-1.4-0.11-2.84,0.35-4.18l6.19-18.58c0.52-1.6,1.5-2.99,2.84-4.03
				c0.58-0.46,1.67-1.22,3.05-2.16c3.3-2.1,6.4-4.5,9.24-7.14c0,0,0.01-0.01,0.04-0.04c1.64-4.09,5.66-6.82,10.08-6.83h3.13v-0.79
				c0-4.73,3.85-8.59,8.59-8.59h37.5c3.02,0,5.48-2.46,5.48-5.48v-7.03c-0.01-1.43-0.59-2.8-1.58-3.81v6.15
				c0,4.74-3.85,8.59-8.59,8.59H8.59C3.85,40.61,0,36.76,0,32.02V8.59C0,3.85,3.85,0,8.59,0h93.75c4.74,0,8.59,3.85,8.59,8.59v8.4
				c5.55,1.71,9.37,6.82,9.38,12.69v7.03c-0.01,7.31-5.96,13.27-13.27,13.27h-37.5c-0.43,0-0.79,0.35-0.79,0.79v0.79h3.13
				c3.25,0.01,6.28,1.44,8.35,3.92l8.62,5.41c0.17,0.11,0.3,0.21,0.44,0.32c2.52,1.87,3.53,5.19,2.48,8.22l-0.05,0.13
				c-1.37,2.69-3.69,4.67-6.43,5.6c2.71,0.54,5.02,2.35,6.16,4.92c1.2,2.7,0.93,5.77-0.68,8.19c1.13,1.71,1.62,3.81,1.34,5.86
				c-0.28,2.03-1.29,3.9-2.81,5.24c0.35,0.94,0.54,1.95,0.55,2.95c0,4.17-3.02,7.72-7.03,8.46v0.93c-0.02,5.22-3.83,9.75-8.92,10.7
				l-0.59,0.69c-2.39,3.19-5.34,6-8.71,8.31c-2.96,1.94-5.43,4.41-7.37,7.33c-0.94,1.24-1.87,2.47-2.91,3.66l-0.23,0.21
				c-0.2,0.21-0.48,0.42-0.79,0.59c-0.12,0.09-0.24,0.16-0.37,0.21C52.42,143.62,51.9,143.73,51.36,143.73z M7.79,141.48l0.57,0.24
				L7.79,141.48z M8.38,141.57l0.01,0.11l0.06-0.05L8.38,141.57z M7.48,141.35l0.25,0.1L7.48,141.35z M10.33,140.59
				c0.06,0.02,0.14,0.03,0.23,0.03h40.8c0.08,0,0.16-0.01,0.23-0.04l0.16-0.1c0.08-0.04,0.14-0.09,0.2-0.15l0.1-0.08
				c0.92-1.06,1.79-2.21,2.63-3.31c2.12-3.21,4.89-5.96,8.18-8.12c3.07-2.1,5.77-4.68,8.01-7.66l1.41-1.67l0.6-0.08
				c3.88-0.49,6.81-3.81,6.82-7.72v-3.89h1.56c3.02,0,5.47-2.46,5.47-5.47c-0.01-0.93-0.26-1.86-0.73-2.67l-0.75-1.31l1.28-0.8
				c1.37-0.85,2.28-2.26,2.5-3.86c0.22-1.6-0.28-3.2-1.37-4.38l-0.96-1.05l0.96-1.05c1.46-1.6,1.83-3.9,0.95-5.88
				c-0.87-1.97-2.83-3.24-4.98-3.24h-3.93v-5.57l1.63,0.08c3.15,0.12,6.11-1.57,7.54-4.33c0.55-1.69-0.06-3.54-1.52-4.63
				c-0.1-0.08-0.14-0.11-0.18-0.14l-9.11-5.76l-0.11-0.13c-1.48-1.87-3.69-2.95-6.08-2.96h-6.24v-3.9c0-2.15,1.75-3.9,3.9-3.9h37.5
				c5.6-0.01,10.15-4.57,10.16-10.17v-7.03c-0.01-4.8-3.43-8.99-8.13-9.96l-1.24-0.26V8.59c0-3.02-2.46-5.48-5.48-5.48H8.59
				c-3.02,0-5.48,2.46-5.48,5.48v23.44c0,3.02,2.46,5.48,5.48,5.48h93.75c3.02,0,5.48-2.46,5.48-5.48V20.88l2.07,0.73
				c3.41,1.21,5.71,4.44,5.73,8.06v7.04c0,4.74-3.85,8.59-8.59,8.59h-37.5c-3.02,0-5.47,2.46-5.47,5.47v3.9H57.8
				c-3.27,0.01-6.2,2.08-7.3,5.16l-0.12,0.35l-0.27,0.26c-0.06,0.06-0.14,0.12-0.21,0.18c-3.05,2.84-6.31,5.36-9.73,7.54
				c-1.29,0.88-2.33,1.61-2.83,2.01c-0.86,0.67-1.48,1.55-1.81,2.56l-6.2,18.61c-0.3,0.87-0.38,1.79-0.23,2.68l4.1,24.62
				c0.19,1.17-0.15,2.35-0.94,3.23L32.12,122l-21.93,17.12c-0.05,0.05-0.1,0.11-0.16,0.16c0.04-0.03-0.02,0.03-0.04,0.07
				c-0.06,0.07-0.09,0.12-0.12,0.16c-0.03,0.09-0.06,0.2-0.08,0.31l0,0.02c0.01,0.11,0.02,0.17,0.04,0.23c0,0,0.02,0.03,0.04,0.06
				l0.1,0.18c0,0,0.01,0.01,0.01,0.01c0.04,0.05,0.11,0.1,0.18,0.14l0.09,0.06C10.28,140.56,10.31,140.58,10.33,140.59z
				 M9.18,139.21l-0.05,0.15L9.18,139.21z M9.19,139.17l0.26-0.72L9.19,139.17z M9.38,138.36l-0.05,0.05
				c-0.01,0.01-0.02,0.02-0.04,0.04l0.14-0.02L9.38,138.36z M8.69,137.8c-0.01,0.01-0.02,0.01-0.03,0.03
				C8.67,137.81,8.68,137.8,8.69,137.8z M71.87,117.95H57.8c-3.44,0-6.24-2.8-6.24-6.24l-0.02-27.2c-0.03-1.66-0.33-3.31-0.87-4.9
				c-0.28-0.86-0.52-1.54-0.76-2.1l-0.42-1.01l0.8-0.74c5.5-5.06,7.56-11.65,4.79-15.34c-0.17-0.21-0.38-0.41-0.63-0.57l-1.99-1.31
				l1.99-1.3c1-0.65,2.15-1,3.34-1h14.07c3.44,0,6.24,2.8,6.24,6.24v15.62H64.83c-2.74,0-5.06,2.04-5.42,4.74
				c-0.36,2.71,1.36,5.28,4,5.99l1.7,0.46l-0.67,1.63c-1,2.45-0.09,5.24,2.15,6.64l1.28,0.8l-0.75,1.3
				c-0.47,0.81-0.72,1.74-0.73,2.68c0,3.01,2.46,5.47,5.48,5.47h6.24v3.9C78.11,115.15,75.31,117.95,71.87,117.95z M54.65,84.34
				l0.01,0.04l0.01,0.26l0,27.07c0,1.73,1.4,3.13,3.13,3.13h14.06c1.73,0,3.13-1.4,3.13-3.13v-0.79h-3.13
				c-4.74,0-8.59-3.85-8.59-8.59c0.01-1.01,0.19-2.02,0.55-2.96c-2.3-2.01-3.33-5.1-2.73-8.09c-3.28-1.59-5.26-5.17-4.78-8.85
				c0.56-4.25,4.22-7.45,8.5-7.45H75v-12.5c0-1.73-1.4-3.13-3.13-3.13H58.1c2.87,4.87,0.89,12.17-4.93,17.96
				c0.14,0.4,0.29,0.83,0.45,1.31C54.25,80.45,54.6,82.38,54.65,84.34z M81.24,106.23h-9.38c-2.15,0-3.9-1.75-3.9-3.9
				c0-2.15,1.75-3.9,3.9-3.9h9.38c2.15,0,3.9,1.75,3.9,3.9C85.14,104.48,83.39,106.23,81.24,106.23z M71.87,101.55
				c-0.43,0-0.79,0.35-0.79,0.79c0,0.43,0.35,0.79,0.79,0.79h9.38c0.43,0,0.79-0.35,0.79-0.79c0-0.44-0.35-0.79-0.79-0.79H71.87z
				 M83.58,96.86H69.52c-2.15,0-3.9-1.75-3.9-3.9c0-2.15,1.75-3.9,3.9-3.9h14.06c2.15,0,3.9,1.75,3.9,3.9
				C87.48,95.11,85.73,96.86,83.58,96.86z M69.52,92.17c-0.43,0-0.79,0.35-0.79,0.79c0,0.43,0.35,0.79,0.79,0.79h14.06
				c0.43,0,0.79-0.35,0.79-0.79c0-0.44-0.35-0.79-0.79-0.79H69.52z M83.58,87.48H64.83c-2.15,0-3.9-1.75-3.9-3.9s1.75-3.9,3.9-3.9
				h18.75c2.15,0,3.9,1.75,3.9,3.9S85.73,87.48,83.58,87.48z M64.83,82.8c-0.43,0-0.79,0.35-0.79,0.79s0.35,0.79,0.79,0.79h18.75
				c0.43,0,0.79-0.35,0.79-0.79s-0.35-0.79-0.79-0.79H64.83z M81.61,71.06c-0.16,0-0.31-0.01-0.47-0.02l-1.45-0.1V60.7l6.62,4.17
				c1.34,1.2,1.3,2.3,1.02,3.01l-0.19,0.36C85.84,70.03,83.82,71.06,81.61,71.06z M82.8,66.32v1.44c0.44-0.15,0.85-0.38,1.21-0.68
				L82.8,66.32z"/>
		</g>
	</g>
</g>
<g>
	<path class="st0" d="M102.33,35.42H8.59c-1.88,0-3.4-1.53-3.4-3.4V16.92l1.11,0.05c3.47,0.16,6.86,0.91,10.09,2.21
		c4.27,1.71,8.74,2.52,13.27,2.41c4.6,0.1,9.08-0.71,13.32-2.41c3.98-1.61,8.19-2.37,12.5-2.28c4.27-0.09,8.49,0.67,12.46,2.28
		c4.26,1.71,8.72,2.52,13.28,2.41c4.57,0.11,9.05-0.7,13.32-2.41c3.23-1.3,6.62-2.05,10.09-2.21l1.11-0.05v15.11
		C105.73,33.9,104.21,35.42,102.33,35.42z M6.19,17.97v14.06c0,1.32,1.08,2.4,2.4,2.4h93.75c1.32,0,2.4-1.08,2.4-2.4V17.97l-0.06,0
		c-3.36,0.16-6.64,0.88-9.77,2.14c-4.4,1.76-9,2.59-13.69,2.48c-4.66,0.12-9.26-0.72-13.65-2.48c-3.85-1.56-7.91-2.3-12.09-2.21
		c-4.2-0.1-8.27,0.65-12.13,2.21c-4.37,1.75-8.98,2.59-13.69,2.48c-4.65,0.11-9.24-0.71-13.64-2.48c-3.12-1.26-6.41-1.98-9.76-2.14
		L6.19,17.97z"/>
</g>
<g>
	<path class="st0" d="M80.47,19.03c-4.03,0-7.97-0.77-11.72-2.29c-4.25-1.71-8.72-2.51-13.28-2.41c-4.58-0.12-9.05,0.7-13.31,2.41
		c-3.97,1.61-8.18,2.38-12.5,2.28c-4.3,0.09-8.5-0.68-12.46-2.28c-3.51-1.41-7.21-2.2-10.99-2.35l-1.01-0.04V8.59
		c0-0.91,0.35-1.76,0.99-2.4c0.65-0.64,1.5-1,2.41-1h93.75c1.87,0,3.4,1.53,3.4,3.4v5.76l-1.01,0.04c-3.78,0.15-7.48,0.94-11,2.35
		c-3.98,1.61-8.19,2.38-12.5,2.28C80.98,19.02,80.73,19.03,80.47,19.03z M56.3,13.32c4.39,0,8.71,0.84,12.83,2.49
		c3.87,1.56,7.95,2.3,12.09,2.21c4.2,0.09,8.28-0.65,12.13-2.21c3.62-1.46,7.44-2.27,11.33-2.43l0.05,0v-4.8
		c0-1.32-1.08-2.4-2.4-2.4H8.59c-0.64,0-1.24,0.25-1.7,0.7c-0.45,0.45-0.7,1.06-0.7,1.7v4.8l0.05,0c3.9,0.15,7.71,0.97,11.33,2.42
		c3.84,1.55,7.9,2.29,12.08,2.21c4.21,0.1,8.28-0.65,12.13-2.21c4.39-1.76,8.99-2.59,13.69-2.48C55.75,13.32,56.02,13.32,56.3,13.32
		z"/>
</g>
</svg>
