<?xml version="1.0" encoding="UTF-8" standalone="no"?>
<svg
   xmlns:dc="http://purl.org/dc/elements/1.1/"
   xmlns:cc="http://creativecommons.org/ns#"
   xmlns:rdf="http://www.w3.org/1999/02/22-rdf-syntax-ns#"
   xmlns:svg="http://www.w3.org/2000/svg"
   xmlns="http://www.w3.org/2000/svg"
   viewBox="0 0 315.288 97.330797"
   height="97.330795"
   width="315.28799"
   xml:space="preserve"
   id="svg2"
   version="1.1"><metadata
     id="metadata8"><rdf:RDF><cc:Work
         rdf:about=""><dc:format>image/svg+xml</dc:format><dc:type
           rdf:resource="http://purl.org/dc/dcmitype/StillImage" /></cc:Work></rdf:RDF></metadata><defs
     id="defs6" /><g
     transform="matrix(1.3333333,0,0,-1.3333333,-195.74133,169.99066)"
     id="g10"><g
       transform="scale(0.1)"
       id="g12"><path
         id="path14"
         style="fill:#231f20;fill-opacity:1;fill-rule:nonzero;stroke:none"
         d="m 2615.01,972.387 c 2.69,4.218 5.44,8.375 8.32,12.523 h 1.68 v -93.535 h 42.49 v 158.785 h -42.49 l -47.56,-72.414 c -2.68,-4.133 -5.36,-8.121 -8.01,-11.988 -2.65,-3.918 -5.34,-8.051 -7.97,-12.356 h -1.69 v 96.758 h -42.47 V 891.375 h 42.47 c 8.01,11.051 15.82,22.344 23.45,33.926 7.66,11.586 15.38,23.015 23.13,34.285 3.11,4.297 6,8.594 8.65,12.801" /><path
         id="path16"
         style="fill:#231f20;fill-opacity:1;fill-rule:nonzero;stroke:none"
         d="m 2750.06,957.293 h 63.21 v -65.918 h 42.49 v 158.785 h -42.49 v -60.402 h -63.21 v 60.402 h -42.48 V 891.375 h 42.48 v 65.918" /><path
         id="path18"
         style="fill:#231f20;fill-opacity:1;fill-rule:nonzero;stroke:none"
         d="m 2982.4,927.734 c -4.22,-3.027 -9.77,-4.546 -16.62,-4.546 h -27.43 v 38.98 h 27.08 c 7.1,0 12.75,-1.645 16.97,-4.875 4.19,-3.25 6.29,-8.133 6.29,-14.625 0,-6.918 -2.1,-11.902 -6.29,-14.934 m 48.79,14.59 c 0,16.27 -5.66,28.871 -16.89,37.879 -11.28,8.961 -26.39,13.473 -45.33,13.473 h -30.62 v 56.484 h -42.5 V 891.367 h 74.98 c 18.32,0 32.96,4.09 43.91,12.176 10.98,8.145 16.45,21.051 16.45,38.781" /><path
         id="path20"
         style="fill:#231f20;fill-opacity:1;fill-rule:nonzero;stroke:none"
         d="m 3534.42,923.188 c -5.21,-2.383 -10.67,-3.774 -16.41,-4.208 v 102.62 c 13.93,-1.1 24.66,-6.33 32.19,-15.75 7.52,-9.432 11.3,-21.08 11.3,-34.909 0,-8.257 -1.23,-15.507 -3.69,-21.773 -2.41,-6.285 -5.62,-11.57 -9.62,-15.906 -3.97,-4.317 -8.57,-7.692 -13.77,-10.074 m -56.3,-3.903 c -6.01,0.469 -11.68,1.84 -17.02,4.223 -5.36,2.406 -10.06,5.742 -14.07,10.097 -4,4.321 -7.18,9.571 -9.52,15.743 -2.35,6.156 -3.52,13.336 -3.52,21.593 0,13.829 3.85,25.477 11.55,34.909 7.69,9.42 18.56,14.65 32.58,15.75 z m 99.66,-7.101 c 7.46,7.101 13.33,15.644 17.68,25.629 4.31,9.964 6.51,21.328 6.51,34.121 0,11.882 -2.13,22.711 -6.35,32.446 -4.21,9.75 -10.06,18.12 -17.49,25.17 -7.44,7.03 -16.32,12.54 -26.65,16.55 -10.32,4.01 -21.49,6.32 -33.47,6.99 v 59.72 l -39.89,-15.28 v -44.44 c -11.8,-0.67 -22.89,-3.09 -33.27,-7.31 -10.37,-4.24 -19.35,-9.87 -26.94,-16.9 -7.57,-7 -13.52,-15.37 -17.87,-24.99 -4.35,-9.632 -6.52,-20.308 -6.52,-31.956 0,-12.793 2.01,-24.211 6.03,-34.293 3.99,-10.043 9.75,-18.711 17.22,-25.95 7.46,-7.277 16.38,-12.914 26.74,-16.918 10.4,-3.976 21.92,-6.308 34.61,-6.949 v -67.277 l 40.21,15.277 v 52.305 c 11.75,0.625 22.77,3.047 32.98,7.133 10.23,4.113 19.04,9.765 26.47,16.922" /><path
         id="path22"
         style="fill:#231f20;fill-opacity:1;fill-rule:nonzero;stroke:none"
         d="m 3788.59,949.168 c -2.44,-6.285 -5.66,-11.57 -9.62,-15.906 -3.98,-4.321 -8.6,-7.692 -13.78,-10.074 -5.22,-2.383 -10.69,-3.778 -16.43,-4.208 v 102.62 c 13.91,-1.09 24.66,-6.34 32.19,-15.74 7.53,-9.446 11.27,-21.083 11.27,-34.926 0,-8.243 -1.18,-15.496 -3.63,-21.766 m -79.67,-29.875 c -6.04,0.461 -11.71,1.84 -17.07,4.223 -5.34,2.398 -10.04,5.738 -14.04,10.089 -4.03,4.313 -7.19,9.575 -9.54,15.747 -2.35,6.16 -3.5,13.339 -3.5,21.582 0,13.843 3.83,25.48 11.52,34.926 7.71,9.4 18.58,14.65 32.63,15.74 z m 117.31,18.512 c 4.33,9.976 6.49,21.328 6.49,34.129 0,11.882 -2.1,22.714 -6.33,32.446 -4.2,9.75 -10.05,18.13 -17.5,25.17 -7.43,7.02 -16.33,12.54 -26.65,16.55 -10.34,4.01 -21.51,6.32 -33.48,6.99 v 59.72 l -39.84,-15.27 v -44.45 c -11.83,-0.67 -22.92,-3.09 -33.3,-7.32 -10.36,-4.23 -19.34,-9.85 -26.92,-16.89 -7.58,-7.01 -13.54,-15.37 -17.89,-24.99 -4.35,-9.64 -6.52,-20.304 -6.52,-31.956 0,-12.801 1.99,-24.211 6.04,-34.286 3.99,-10.054 9.73,-18.714 17.21,-25.964 7.46,-7.278 16.38,-12.907 26.77,-16.914 10.34,-3.969 21.9,-6.301 34.61,-6.954 v -67.265 l 40.17,15.265 v 52.305 c 11.78,0.641 22.76,3.059 32.98,7.133 10.22,4.117 19.04,9.777 26.48,16.918 7.46,7.121 13.35,15.652 17.68,25.633" /><path
         id="path24"
         style="fill:#231f20;fill-opacity:1;fill-rule:nonzero;stroke:none"
         d="m 2345.17,1080.7 h 61.85 V 891.195 h 44.17 V 1080.7 h 59.78 v 36.97 h -165.8 v -36.97" /><path
         id="path26"
         style="fill:#231f20;fill-opacity:1;fill-rule:nonzero;stroke:none"
         d="m 3207.97,1049.33 h -48.44 l -56.92,-67.471 v 68.311 h -42.14 V 891.199 h 42.14 v 77.309 l 55.58,-77.309 h 50.1 l -62.5,85.071 62.18,73.06" /><path
         id="path28"
         style="fill:#231f20;fill-opacity:1;fill-rule:nonzero;stroke:none"
         d="m 3326.34,951.281 c -1.56,-5.867 -3.81,-10.992 -6.7,-15.437 -2.94,-4.438 -6.58,-7.903 -10.94,-10.379 -4.37,-2.496 -9.33,-3.742 -14.96,-3.742 -11.42,0 -20.15,4.304 -26.22,12.816 -6.05,8.543 -9.08,20.621 -9.08,36.234 0,13.829 2.94,25.321 8.74,34.397 5.86,9.1 14.35,13.66 25.54,13.66 11.88,0 20.83,-4.52 26.9,-13.49 6.07,-8.992 9.07,-20.738 9.07,-35.25 0,-6.695 -0.78,-12.957 -2.35,-18.809 m 23.3,79.559 c -6.76,7.14 -14.96,12.61 -24.53,16.41 -9.57,3.79 -20,5.68 -31.37,5.68 -11.34,0 -21.8,-1.89 -31.37,-5.68 -9.59,-3.8 -17.79,-9.22 -24.72,-16.24 -6.87,-7.05 -12.22,-15.73 -16.01,-25.99 -3.77,-10.266 -5.67,-21.915 -5.67,-34.93 0,-12.539 1.84,-23.902 5.51,-34.082 3.65,-10.188 8.84,-18.824 15.52,-25.981 6.69,-7.129 14.74,-12.66 24.22,-16.578 9.44,-3.879 20.05,-5.816 31.86,-5.816 11.32,0 21.8,1.898 31.38,5.676 9.57,3.777 17.79,9.273 24.7,16.39 6.9,7.164 12.3,15.875 16.16,26.145 3.92,10.269 5.87,21.937 5.87,34.929 0,12.536 -1.91,23.93 -5.7,34.077 -3.76,10.17 -9.05,18.83 -15.85,25.99" /><path
         id="path30"
         style="fill:#231f20;fill-opacity:1;fill-rule:nonzero;stroke:none"
         d="m 2502.41,695.832 c 0,9.129 -2.81,16.258 -8.42,21.379 -5.62,5.121 -13.41,7.68 -23.38,7.68 h -46.27 v -57.903 h 46.27 c 10.13,0 17.95,2.442 23.49,7.332 5.54,4.879 8.31,12.051 8.31,21.512 z m -32.75,44.727 c 15.67,0 27.96,-3.719 36.9,-11.161 8.94,-7.437 13.41,-18.668 13.41,-33.687 0,-14.563 -4.35,-25.711 -13.05,-33.461 -8.7,-7.75 -20.88,-11.629 -36.55,-11.629 h -63.36 v 154.481 h 98.49 V 788.73 h -81.16 v -48.171 h 45.32" /><path
         id="path32"
         style="fill:#231f20;fill-opacity:1;fill-rule:nonzero;stroke:none"
         d="m 2612.75,700.219 c -4.73,2.679 -9.46,4.82 -14.19,6.402 -4.72,1.578 -10.4,2.367 -17.01,2.367 -7.56,0 -13.94,-2.008 -19.14,-6.047 -5.2,-4.031 -7.8,-9.839 -7.8,-17.441 0,-7.59 2.2,-13.371 6.61,-17.32 4.42,-3.961 10.79,-5.93 19.15,-5.93 6.14,0.309 12.01,1.969 17.61,4.98 5.59,3 10.51,6.649 14.77,10.918 z m -24.92,68.34 c 13.44,0 23.76,-3.129 30.97,-9.368 7.19,-6.261 10.79,-15.632 10.79,-28.132 v -80.438 h -16.84 v 11.391 h -0.48 c -6.17,-5.543 -12.3,-9.18 -18.39,-10.922 -6.09,-1.731 -11.9,-2.602 -17.44,-2.602 -4.59,0 -9.18,0.672 -13.76,2 -4.59,1.352 -8.75,3.481 -12.46,6.403 -3.72,2.91 -6.73,6.648 -9.02,11.23 -2.29,4.57 -3.44,10.168 -3.44,16.789 0,5.68 1.07,10.801 3.2,15.371 2.14,4.578 5.14,8.481 9.02,11.707 3.88,3.242 8.47,5.723 13.76,7.453 5.3,1.739 11.12,2.61 17.44,2.61 5.07,0 10.17,-0.512 15.31,-1.52 5.14,-1.011 10.56,-3.07 16.26,-6.172 v 14.352 c 0,8.937 -2.25,15.437 -6.74,19.5 -4.49,4.07 -11.22,6.109 -20.21,6.109 -5.67,0 -10.94,-0.718 -15.83,-2.14 -4.88,-1.418 -9.77,-3.321 -14.65,-5.692 l -5.69,13.203 c 5.53,2.641 11.39,4.778 17.56,6.411 6.17,1.628 13.05,2.457 20.64,2.457" /><path
         id="path34"
         style="fill:#231f20;fill-opacity:1;fill-rule:nonzero;stroke:none"
         d="m 2733.29,650.621 v 53.391 h -60.75 V 650.621 H 2655.7 V 766.66 h 16.84 v -47.93 h 60.75 v 47.93 h 16.85 V 650.621 h -16.85" /><path
         id="path36"
         style="fill:#231f20;fill-opacity:1;fill-rule:nonzero;stroke:none"
         d="m 2861.66,766.18 -52.44,-53.391 53.87,-62.168 h -20.17 l -50.31,59.09 v -59.09 h -16.85 V 766.18 h 16.85 v -51.25 l 49.83,51.25 h 19.22" /><path
         id="path38"
         style="fill:#d7dbdd;fill-opacity:1;fill-rule:evenodd;stroke:none"
         d="m 1659.39,706.43 -9,-15.27 c -3.21,10.059 -9.03,20.5 -12.78,27.879 -7.2,-14.859 -18.61,-15.16 -29.59,-15.238 2.43,35.609 -42.28,71.418 -22.63,112.039 3.92,8.129 1.38,18.066 -7.09,22.328 -30,15.238 -16.11,-47.977 -46.09,-49.879 5.74,7.172 7.91,22.18 8.77,23.481 -6.38,-1.661 -21.66,-11.36 -28.52,1.07 17.52,9.539 22.56,23.887 25.31,38.297 3.49,18.238 5.09,26.676 8.64,34.176 3.69,8.003 9.61,14.941 22.27,31.371 -3,-0.461 -36.75,-7.563 -44.31,-4.028 58.33,35.828 45.18,81.383 134.16,121.994 -23.32,17.32 -47.19,31.13 -30.08,64.24 24.37,-29.28 70.68,-19.15 95.7,-5.54 -24.72,4.95 -56.56,26.7 -64.14,50.95 9.33,1.43 21.39,-8.66 28.34,-13.37 3.34,8.94 4.67,19.35 15.51,21.61 -14.45,-30.97 14.12,-47.07 41.37,-47.2 4.21,0 21.84,1.75 21.84,1.75 -2.8,5.8 -14.2,21.62 -5.91,28.03 6.66,-6.26 14.6,-11.25 21.85,-16.8 52.98,-41 -25.19,-79.02 -57.17,-96.27 -50.19,-27.12 -36.76,-59.366 -15.79,-67.624 -0.09,-3.668 -2.34,-5.274 -5.82,-6.403 -14.66,-4.902 -28.43,5.555 -40.12,12.27 0.71,-20.246 -0.67,-39.688 21.69,-50.828 l -15.42,-5.645 c 13.26,-10.054 17.29,-15.402 33.26,-17.484 -7.46,-3.609 -16.71,-3.547 -24.63,-4.289 2,-5.602 3.65,-13.192 7.84,-18.211 -32.68,-3.879 -45.75,14.777 -55.85,14.004 -21.55,-1.602 -20.21,-42.168 32.83,-42.227 l -5.5,-9.074 c 0,0 10.06,-5.867 19.25,-7 -3.52,-2.848 -6.93,-6.699 -9.89,-9.641 l 8.47,-7.289 c -21.64,-3.89 -27.78,19.145 -41.82,8.032 -21.41,-16.969 25.81,-52.801 71.09,-47.45 -3.81,-4.871 -14.43,-12.031 -19.04,-15.761 36.91,-34.86 18.7,-67.668 33.88,-91.711 -31.8,2.113 -55.37,25.461 -60.88,50.711 m 41.48,39.199 c 10.24,8.141 18.7,12.203 18.3,31.832 -15.37,-7.84 -58.99,-7.43 -77.21,17.66 -5.15,7.117 0.35,10.711 5.34,5.098 12.46,-14.137 35.56,-7.731 43.99,-3.637 -1.33,4.84 -5.08,11.18 -8.23,13.887 3.15,3.121 12.06,7.722 13.91,15.683 -4.79,2.582 -23.29,4.442 -23.29,4.442 2.98,2.836 6.68,6.847 4.47,17.437 -18.9,-5.808 -42.25,2.063 -47.56,9.074 -5.22,6.879 0.12,13.325 4.48,8.793 9.42,-9.906 55.85,-21.242 73.13,-4.023 -6.42,1.75 -13.49,7.5 -14.78,11.035 15.98,1.606 28.74,11.035 29.78,22.801 -8.84,0 -25.54,0.637 -31.21,4.914 7.67,2.84 12.49,5.617 14.91,14.188 -29.23,1.765 -31.54,23.48 -31.69,27.078 19.02,-10.977 52.53,-6.121 43.87,20.925 -15.8,0.848 -31.78,26.469 11.77,50.044 39.57,21.4 84.6,44.5 80.64,82.54 -2.6,24.31 -42.68,40.94 -47.76,53.25 -16.72,-7.96 -20.11,-17.2 -12.56,-32.68 0,0 -37.24,-3.71 -40.18,19.22 -1.29,10.29 5.58,19.92 12.95,27.26 -4.17,0 -32.25,7.51 -40.71,-15.36 -15.76,10.74 -29.2,10.35 -39.81,-0.98 16.92,-10.06 27.4,-44.49 55.37,-54.66 -19.9,-10.8 -52.07,-6.25 -70.85,26.87 -17.76,-26.77 -27.98,-53.27 10.1,-81.56 -69.33,-31.56 -68.83,-91.858 -129.13,-120.596 6.13,-16.43 19.03,-16.43 35.45,-13.859 -26.08,-33.895 -3.86,-69.336 -45.12,-83.836 3.85,-13.809 11.6,-24.821 26.84,-20.789 -4.34,-6.758 -7.19,-6.61 -13.93,-14.039 22.56,-14.211 49.32,-3.911 55.38,41.664 1.09,8.125 12.3,3.043 8.41,-4.93 -25.72,-53.195 39.32,-93.195 16.31,-132.215 20.31,0.852 35.74,2.422 44.23,9.289 4.13,-8.187 6.6,-16.301 5.72,-24.289 11.2,2.27 15.29,8.93 16.06,16.488 7.35,-21.386 33.6,-44.277 75.63,-44.277 -22.29,31.731 -1.54,63.961 -33.02,100.258" /><path
         id="path40"
         style="fill:#d7dbdd;fill-opacity:1;fill-rule:evenodd;stroke:none"
         d="m 1601.19,833.625 c 7.65,-7.992 16.95,-8.809 34.57,-7.695 -19.36,2.332 -30.22,7.039 -36.96,19.886 -1.01,6.625 -1.66,13.711 -1.95,21.301 -0.59,20.363 6.11,44.621 20.19,71.176 -0.1,-16.664 13.12,-42.852 42.57,-47.219 -26.5,11.586 -42.05,37.672 -33.58,62.891 5.52,8.824 11.75,17.926 18.7,27.168 3.5,4.469 6.89,8.762 10.22,12.773 -3.57,-12.879 12.01,-26.172 22.43,-28.398 -5.66,5.508 -17.77,23.422 10.21,53.352 -7.82,-3.68 -16.45,-8.91 -22.99,-14.04 50.86,54.96 92.64,56.49 111.85,84.13 -27.82,-19.01 -101.45,-29.27 -134.53,-20.29 18.26,-12.21 62.27,-11.09 73.02,-8.82 -35.89,-34.89 -114.24,-70.91 -127.8,-102.981 19.1,20.946 31.43,24.778 47.95,30.184 -13.01,-19.43 -24.73,-36.512 -32.81,-56.324 -20.84,-45.274 -48.72,-45.836 -50.55,-83.196 9.51,28.95 28.8,36.274 42.18,55.286 -2.37,-12.133 -3.46,-25.579 -3.04,-41.129 0.47,-16.887 3.85,-31.727 9.22,-45 -1.36,-18.469 0.29,-49.989 21.45,-70.801 -14.38,18.211 -17.47,47.793 -16.19,59.332 16.56,-31.973 63.81,-76.109 86.64,-105.789 -22.83,38.16 -78.81,82.75 -90.8,134.203" /><path
         id="path42"
         style="fill:#d7dbdd;fill-opacity:1;fill-rule:evenodd;stroke:none"
         d="m 2124,987.043 c 16.46,-5.422 28.86,-9.238 47.93,-30.184 -13.54,32.071 -91.95,68.101 -127.84,103.001 10.8,-2.28 54.79,-3.41 73.05,8.8 -33.05,-8.98 -106.71,1.28 -134.54,20.29 19.23,-27.64 60.99,-29.18 111.86,-84.13 -6.52,5.13 -15.17,10.36 -23,14.04 27.96,-29.93 15.88,-47.813 10.21,-53.352 10.43,2.226 25.99,15.504 22.44,28.398 3.34,-4.011 6.76,-8.304 10.22,-12.773 7,-9.242 13.18,-18.344 18.69,-27.168 8.48,-25.219 -7.12,-51.305 -33.54,-62.891 29.45,4.352 42.67,30.555 42.52,47.219 14.08,-26.555 20.83,-50.813 20.19,-71.176 -0.25,-7.59 -0.94,-14.676 -1.92,-21.301 -6.77,-12.847 -17.63,-17.57 -36.92,-19.886 17.58,-1.114 26.82,-0.297 34.56,7.695 -12.03,-51.453 -68,-96.023 -90.84,-134.203 22.84,29.68 70.03,73.816 86.64,105.789 1.29,-11.539 -1.81,-41.121 -16.15,-59.332 21.12,20.812 22.77,52.332 21.42,70.812 5.35,13.278 8.69,28.102 9.2,44.989 0.5,15.55 -0.67,28.996 -3.03,41.129 13.38,-19.012 32.67,-26.336 42.19,-55.286 -1.81,37.36 -29.69,37.922 -50.57,83.196 -8.05,19.812 -19.74,36.894 -32.77,56.324" /><path
         id="path44"
         style="fill:#d7dbdd;fill-opacity:1;fill-rule:evenodd;stroke:none"
         d="m 2218.17,811.77 c 0.8,-1.301 2.92,-16.309 8.67,-23.489 -30,1.91 -16.07,65.125 -46.08,49.887 -8.47,-4.262 -11,-14.199 -7.06,-22.328 19.63,-40.621 -25.1,-76.43 -22.59,-112.039 -11.05,0.078 -22.53,0.379 -29.69,15.238 -3.7,-7.379 -9.57,-17.82 -12.75,-27.879 l -8.98,15.27 c -5.56,-25.25 -29.12,-48.61 -60.89,-50.711 15.09,24.043 -3.03,56.851 33.87,91.711 -4.62,3.699 -15.21,10.89 -19.04,15.761 45.31,-5.351 92.53,30.481 71.07,47.45 -14.01,11.113 -20.19,-11.922 -41.78,-8.032 l 8.46,7.289 c -2.95,2.961 -6.41,6.782 -9.9,9.641 9.22,1.133 19.25,7 19.25,7 l -5.5,9.074 c 53.06,0.059 54.32,40.625 32.86,42.227 -10.09,0.773 -23.22,-17.899 -55.87,-14.02 4.13,5.035 5.82,12.641 7.85,18.227 -7.86,0.742 -17.21,0.68 -24.63,4.289 15.97,2.094 19.98,7.43 33.24,17.484 l -15.37,5.645 c 22.32,11.14 20.95,30.598 21.62,50.828 -11.64,-6.73 -25.47,-17.172 -40.07,-12.27 -3.48,1.129 -5.75,2.735 -5.84,6.403 20.97,8.258 34.33,40.504 -15.79,67.624 -31.96,17.25 -110.17,55.27 -57.17,96.28 7.24,5.54 15.14,10.53 21.81,16.79 8.31,-6.41 -3.05,-22.23 -5.9,-28.03 0,0 17.62,-1.77 21.8,-1.77 27.32,0.15 55.94,16.27 41.46,47.22 10.84,-2.26 12.12,-12.67 15.43,-21.61 6.97,4.71 19.05,14.8 28.4,13.37 -7.59,-24.25 -39.39,-46 -64.13,-50.95 24.98,-13.61 71.31,-23.74 95.67,5.54 17.11,-33.11 -6.72,-46.92 -30.08,-64.26 88.97,-40.591 75.85,-86.13 134.2,-121.974 -7.54,-3.535 -41.37,3.582 -44.38,4.028 12.73,-16.43 18.66,-23.368 22.35,-31.371 3.53,-7.5 5.09,-15.922 8.58,-34.176 2.79,-14.41 7.83,-28.758 25.32,-38.278 -6.85,-12.449 -22.12,-2.75 -28.42,-1.089 m -3.47,90.535 c 16.41,-2.555 29.32,-2.555 35.45,13.871 -60.31,28.726 -59.81,89.024 -129.15,120.584 38.11,28.29 27.84,54.79 10.15,81.57 -18.76,-33.13 -51.04,-37.68 -70.84,-26.88 27.92,10.17 38.44,44.6 55.34,54.66 -10.57,11.33 -24.1,11.72 -39.8,0.98 -8.54,22.89 -36.54,15.36 -40.75,15.36 7.33,-7.32 14.28,-16.97 12.97,-27.26 -2.9,-22.93 -40.16,-19.23 -40.16,-19.23 7.5,15.49 4.17,24.73 -12.55,32.69 -5.13,-12.33 -45.16,-28.94 -47.73,-53.24 -4.01,-38.05 41.03,-61.15 80.6,-82.55 43.55,-23.575 27.56,-49.196 11.79,-50.044 -8.75,-27.046 24.79,-31.902 43.83,-20.925 -0.09,-3.598 -2.49,-25.313 -31.72,-27.078 2.46,-8.571 7.27,-11.348 14.95,-14.204 -5.73,-4.261 -22.38,-4.898 -31.23,-4.898 1.07,-11.766 13.82,-21.184 29.81,-22.773 -1.28,-3.547 -8.37,-9.313 -14.78,-11.063 17.27,-17.219 63.67,-5.883 73.12,4.023 4.32,4.532 9.63,-1.914 4.49,-8.777 -5.35,-7.027 -28.68,-14.898 -47.58,-9.09 -2.17,-10.59 1.49,-14.601 4.44,-17.437 0,0 -18.49,-1.86 -23.27,-4.442 1.79,-7.961 10.78,-12.562 13.91,-15.683 -3.13,-2.707 -6.87,-9.047 -8.21,-13.887 8.47,-4.094 31.58,-10.492 43.95,3.637 5.05,5.613 10.53,2.031 5.41,-5.098 -18.26,-25.09 -61.85,-25.492 -77.25,-17.66 -0.43,-19.629 8.05,-23.691 18.3,-31.84 -31.49,-36.289 -10.7,-68.519 -32.99,-100.25 41.97,0 68.25,22.891 75.62,44.277 0.81,-7.558 4.84,-14.218 16.04,-16.488 -0.86,7.988 1.63,16.102 5.69,24.289 8.52,-6.867 24.01,-8.437 44.24,-9.289 -22.97,39.02 42.08,79.02 16.3,132.215 -3.83,7.988 7.37,13.055 8.45,4.93 6.03,-45.575 32.82,-55.875 55.4,-41.664 -6.81,7.429 -9.6,7.281 -13.93,14.039 15.19,-4.032 22.94,6.98 26.85,20.789 -41.28,14.5 -19.07,49.957 -45.16,83.836" /><path
         id="path46"
         style="fill:#d7dbdd;fill-opacity:1;fill-rule:evenodd;stroke:none"
         d="m 1794.82,736.352 12.4,9.41 c 2.2,1.679 3.61,2.738 6.15,2.41 l 17.47,-2.293 c 0.95,-4.199 3.74,-8.297 3.74,-8.297 L 1816,741.5 c -2.63,0.309 -3.4,0.18 -5.88,-1.59 l -8.79,-6.648 c -1.74,-1.383 -1.79,-3.524 -0.81,-5.653 l 1.43,-3.07 -6.16,-4.648 -2.34,4.429 c -2.39,4.731 -2.55,9.032 1.37,12.032 m 28.39,32.839 -3.24,-1.711 c -2.22,-1.289 -3.36,-1.871 -5.29,0.559 l -1.41,1.762 c -0.68,0.828 -0.92,2.918 0.52,4.48 l 13.83,16.149 -12.76,10.461 16.25,-5.993 5.94,7.411 c 1.74,-1.5 1.13,-5.778 1.13,-5.778 6.58,0 25.69,-9.492 26.42,-33.281 0,0 4.31,-6.391 9.82,-6.73 l 28.15,-1.688 c 4.65,0 16.32,8.879 31.32,0.469 3.79,2.301 7.85,4.121 12.02,4.578 13.2,0.98 22.93,-8.231 30.18,-17.488 5.29,-6.711 12.54,-16.993 12.54,-16.993 -3.11,-3.699 -6.2,-4.949 -8.77,-4.007 -3.92,1.98 -5.17,5.14 -6.4,9.488 -1.97,6.91 -9.58,12.82 -9.58,12.82 2.57,-4.648 3.12,-9.91 4.35,-14.73 -10.99,10.871 -13.08,24.191 -20.76,26 -3.42,0.851 -7.35,-0.59 -11.05,-4.867 3.89,-8.981 3.7,-19.43 7.66,-26.391 3.02,-5.231 3.64,-5.691 5.01,-6.84 3.25,-2.332 1.39,-6.5 0.9,-9.562 l -4.17,-26.137 h -7.01 l 4.62,25.59 c 1.41,7.777 -20.47,7.777 -31.67,22.636 -9.55,-11.136 -36.32,-8.347 -47.89,-6.609 -4.67,0.68 -9.22,0.402 -11.8,-4.207 -1.49,-2.602 -4.03,-1.82 -5.56,-1.441 l -21.11,4.558 c -3.71,0.86 -5.31,0.121 -6.96,-3.277 l -4.24,-8.75 c -0.93,-2.051 -0.89,-3.531 0.79,-5.172 l 2.02,-2.148 c -1.2,-4.223 -5.02,-7.403 -5.02,-7.403 l -4.62,5.18 c -2.23,2.621 -2.34,6.441 -0.56,10.152 l 6.83,14.239 c 0.8,1.562 2.24,3.289 5.14,3.289 l 26.13,0.429 -8.01,13.024 c -5.97,9.789 3.92,27.199 2.45,35.429 -0.74,-11.043 -14.07,-5.992 -16.14,-7.5 m 108.72,-60.23 -11.27,-27.789 h -7.01 l 11.26,26.91 c 1.17,3.457 -1.04,5.098 -3.85,8.906 4.17,-2.367 7.17,-3.886 12.25,-5.859 -0.46,-0.758 -0.98,-1.207 -1.38,-2.168 m -137.48,3.148 12.68,10.75 -1.93,3.879 c -1.38,2.731 -0.64,2.942 0.84,4.012 l 6.66,4.988 c 1.56,1.282 3.18,1.133 5.11,0.672 l 20.09,-4.73 h -21.2 c -4.93,-0.321 -6.36,-2.211 -8.1,-5.821 l -1.47,-3 -5.46,-11.199 c -1.86,-3.859 -2.81,-8.988 2.05,-14.82 l 3.86,-4.559 -7.81,-15.84 h 6.59 l 5.39,11.008 c 0.43,0.391 8.43,7.653 10.1,15.223 -2.28,1.848 -3.93,3.168 -2.66,5.808 l 2.46,5.231 c 0.78,1.75 1.07,2.469 3.4,1.988 l 21.12,-4.57 c 2.63,-0.699 6.49,-1.859 9.3,2.371 2.91,4.43 3.29,3.941 9.99,3.262 l 10.77,-1.133 c 14.72,-1.399 29.41,2.301 35.14,6.832 2,-4.582 5.98,-8.082 7.85,-11.629 0.68,-1.312 -0.45,-3.184 -1.37,-5.5 l -12.09,-28.891 h 18.64 l 10.56,26.399 c 0.98,2.492 2.39,4.512 3.51,5.492 l -6.06,-31.891 h 18.07 l 4.82,31.598 c 1.05,6.981 0.43,9.27 -2.93,12.133 -7.56,6.359 -7.38,19.738 -9.82,27.867 1.29,0.731 2.76,1.109 4.55,0.902 3.95,-0.402 6.9,-10.453 11.55,-16.91 9.24,-13.019 21.93,-27.39 36.41,-7.152 -1.41,2.301 -2.96,4.43 -4.69,6.422 l -4.04,4.719 c -2.35,2.628 -13.58,15.449 -18.23,20.082 -10.63,10.668 -26.93,9.058 -33.42,3.878 -14.72,7.692 -30.24,-0.398 -33.91,-0.101 l -25.34,1.531 c -1.14,0.07 -2.91,0.469 -4.13,2.43 l 4.69,1.551 c -4.41,18.339 -15.49,33.711 -34.84,36.328 0,0 -1.13,5.801 -4.07,6.922 l -5.78,-6.821 c -1.63,-0.218 -3.42,-0.711 -4.87,-1.351 l -24.7,9.179 18.55,-18.726 c 0,0 -9.63,-13.621 -12.36,-16.402 -1.81,-2.54 -1.63,-4.54 0.39,-6.989 l 3.61,-4.73 c 1.87,-2.422 3.89,-2.352 6.86,-0.813 l 4.07,2.102 c 1.74,1.492 7.72,-1.442 10.25,0.89 -1.64,-5.332 -2.42,-10.449 -2.82,-14.539 l -16.64,2.008 c -3.65,0.473 -5.29,0 -7.53,-1.738 l -14.19,-10.93 c -4.64,-3.57 -6.09,-9.722 -3.2,-15.691 l 5.73,-11.981" /><path
         id="path48"
         style="fill:#d7dbdd;fill-opacity:1;fill-rule:evenodd;stroke:none"
         d="m 1848.63,1071.63 c 6.78,-4.68 18.76,-9.68 18.76,-9.68 v 7.98 l -26.38,10.09 c 0,0 0,-3.22 7.62,-8.39" /><path
         id="path50"
         style="fill:#d7dbdd;fill-opacity:1;fill-rule:evenodd;stroke:none"
         d="m 1867.39,1081.26 v 7.9 l -29.94,10.71 c 0,0 3.56,-3.8 11.18,-9.02 6.78,-4.66 18.76,-9.59 18.76,-9.59" /><path
         id="path52"
         style="fill:#d7dbdd;fill-opacity:1;fill-rule:evenodd;stroke:none"
         d="m 1867.39,1099.27 v 8.01 l -32.78,12.06 c 0,0 6.4,-5.2 14.02,-10.38 6.78,-4.68 18.76,-9.69 18.76,-9.69" /><path
         id="path54"
         style="fill:#d7dbdd;fill-opacity:1;fill-rule:evenodd;stroke:none"
         d="m 1959.47,990.668 h 33.54 c -1.41,4.855 -6.63,9.762 -16.4,9.762 -9.27,0 -14.81,-5.336 -17.14,-9.762" /><path
         id="path56"
         style="fill:#d7dbdd;fill-opacity:1;fill-rule:evenodd;stroke:none"
         d="m 1924.4,1119.34 -32.72,-12.06 v -8.01 c 0,0 12,5 18.73,9.69 7.63,5.18 13.99,10.38 13.99,10.38" /><path
         id="path58"
         style="fill:#d7dbdd;fill-opacity:1;fill-rule:evenodd;stroke:none"
         d="m 1918.04,1080.02 -26.36,-10.09 v -7.98 c 0,0 11.97,5 18.74,9.68 7.62,5.17 7.62,8.39 7.62,8.39" /><path
         id="path60"
         style="fill:#d7dbdd;fill-opacity:1;fill-rule:evenodd;stroke:none"
         d="m 1921.59,1099.87 -29.91,-10.71 v -7.9 c 0,0 12,4.93 18.74,9.59 7.62,5.22 11.17,9.02 11.17,9.02" /><path
         id="path62"
         style="fill:#d7dbdd;fill-opacity:1;fill-rule:evenodd;stroke:none"
         d="m 1782.36,1000.43 c -9.76,0 -14.99,-4.907 -16.35,-9.762 h 33.53 c -2.37,4.426 -7.87,9.762 -17.18,9.762" /><path
         id="path64"
         style="fill:#d7dbdd;fill-opacity:1;fill-rule:evenodd;stroke:none"
         d="m 1879.53,1123.29 -53.84,21.27 c 4.56,10.83 25.68,20.06 53.84,20.06 28.16,0 49.25,-9.23 53.81,-20.06 z m 40.09,-66.47 -36.32,-19.08 v 77.1 l 49.32,16.76 z m 42.43,-32.15 c -13.62,-2.37 -25.29,-19.03 -34.89,-34.002 l -1.08,-1.738 h -10.22 l -0.01,-1.766 c -1.09,-11.574 -12.06,-27.305 -36.34,-27.305 -11.21,0 -19.65,3.434 -25.45,8.114 -5.05,4.082 -8.19,9.148 -9.73,13.961 -0.58,1.781 -0.94,3.519 -1.1,5.23 l -0.08,1.766 h -10.16 l -1.1,1.738 c -9.64,14.972 -21.32,31.632 -34.87,34.002 l 37.03,21.47 45.48,-24.71 45.44,24.71 z m 49.94,-56.697 c -3.88,-10.129 -7.02,-21.078 -7.02,-32.039 V 818.129 h -13.7 c -6.21,6.016 -11.47,26.129 -11.47,26.129 -3.4,-7.262 0.49,-21.879 4.15,-26.129 h -17.65 c -4.36,5.898 -8.15,26.828 -8.15,26.828 -5.27,-6.016 -1.93,-22.312 1.34,-26.828 h -11.71 c -0.76,8.363 1.63,17.484 1.63,17.484 -6.1,1.129 -12.64,4.367 -12.61,11.2 3.09,-2.926 4.34,-2.883 8.65,-2.809 l 4.99,3.937 c -16.55,-0.519 -17.29,17.602 -4.22,26.098 -13.07,-0.418 -22.87,7.352 -18.08,21.285 -9.34,4.813 -12.62,20.571 -5.73,27.492 -4.99,5.422 -5.82,16.012 -2.63,23.278 -6.59,0 -14.02,2.64 -18.16,7.144 -0.32,-0.148 -0.69,-0.254 -1.04,-0.371 8.25,3.371 15.22,8.598 19.96,15.106 z M 2005,733.969 c 0,-24.578 -11.35,-43.219 -30.22,-53.59 l 6.78,13.769 h -6.55 l -8.68,-17.617 c -8.98,-3.41 -19.2,-5.269 -30.49,-5.269 -34.46,0 -43.57,-1.41 -56.28,-14.114 -12.8,12.704 -21.89,14.114 -56.28,14.114 -11.23,0 -21.39,1.84 -30.38,5.179 h 0.26 l 8.67,17.707 h -6.55 l -7.62,-15.476 c -1.81,0.859 -3.56,1.777 -5.29,2.789 l 6.29,12.687 h -6.49 l -4.67,-9.457 c -14.76,10.879 -23.44,27.829 -23.44,49.278 v 77.242 H 2005 Z m -170.82,141.066 10.59,-1.308 c 0.79,-5.809 -0.73,-15.641 -4.51,-21.106 l -10.24,2.969 c 2.72,6.508 3.42,12.523 4.16,19.445 m -15.22,7.754 c 0,0 9.7,0.473 12.44,-0.566 2.04,-0.848 0.66,-4.235 -1.94,-3.875 -2.76,0.34 -10.5,4.441 -10.5,4.441 m -0.66,38.559 -8.7,-31.832 2.97,51.32 13.52,11.555 6.87,-15.09 -17.37,-49.821 4.57,33.54 c 0.45,2.347 -1.47,2.601 -1.86,0.328 m -6.69,-53.028 c -4.58,-1.855 -9.24,0.641 -7.8,3.61 2.11,-1.946 8.03,-0.996 8.03,-0.996 z m -8.58,-4.25 c 2.1,-2.047 8.49,-1.277 8.49,-1.277 l 0.25,-1.262 c -2.79,-3.711 -10.52,-2.047 -8.74,2.539 m -10.02,20.469 c -2.44,1.633 -1.34,5.184 1.37,5.184 2.95,-0.075 6.9,-3.43 10.82,-5.11 0,0 -10.23,-1.363 -12.19,-0.074 m 9.7,-28.176 c 0,0 2.94,-1.261 6.64,-1.547 -0.43,-2.019 -1.98,-3.992 -4.5,-3.429 -2.08,0.461 -3.02,3.058 -2.14,4.976 m 6.88,19.203 c -4.92,-1.586 -7.09,1.95 -6.85,4.961 9.61,3.539 13.89,1.266 16.72,-0.547 2.6,-1.632 4.73,-6.253 8.23,-9.164 -0.59,-3.937 -1.81,-9.656 -3.22,-13.488 -9.84,2.539 -10.35,11.199 -6.66,16.504 -2.08,2.406 -4.26,3.016 -8.22,1.734 m 42.67,-2.82 10.54,-1.246 c 1.03,-5.824 -0.93,-18.094 -4.91,-23.977 l -10.74,3.106 c 4.29,5.644 5.87,15.656 5.11,22.117 m 18.12,-2.215 8.7,-1.097 c 1.37,-7.204 0.48,-19.696 -4.13,-26.825 l -10.13,2.957 c 4.45,6.016 6.51,18.418 5.56,24.965 m 15.58,-1.929 h 0.19 c 2.26,-0.34 4.64,0.031 6.81,0.937 4.69,-6.746 8.36,-22.016 2.73,-31.566 -3.19,-0.028 -6.33,0.519 -9.25,1.34 l -2.34,0.695 c 4.76,7.414 4.04,20.426 1.86,28.594 m 13.28,5.125 6.15,6.031 c 6.31,-5.465 14.54,-17.735 11.96,-29.367 l -6.72,-6.133 c -1.36,-1.352 -2.82,-2.363 -4.26,-3.254 4.17,10.414 -1.17,26.379 -7.13,32.723 m 36.18,-3.461 c -1.35,-1.782 -2.46,-3.907 -3.16,-6.18 l -7.49,-6.891 c 1.5,10.961 -5.85,23.93 -12.58,29.2 l 7.99,7.816 1.56,-1.59 c -2.66,-6.996 2.54,-20.691 13.68,-22.355 m -19.9,53.011 c -3.94,-7.515 -3.54,-16.191 1.08,-24.047 l -3.07,-3.015 c -13.43,1.648 -18.73,21.683 -18.73,21.683 -0.25,-1.75 -0.43,-3.578 -0.4,-5.332 -7.83,2.899 -12.81,9.852 -12.4,19.399 2.97,-1.66 6.31,-2.82 9.86,-3.461 l 0.9,5.883 c -9.38,1.636 -14.86,7.504 -16.97,14.426 -0.42,0.058 -0.84,0.132 -1.25,0.207 1.65,-0.149 3.31,-0.286 5.02,-0.286 5.55,0 10.84,0.864 15.8,2.321 3.89,-5.555 10.82,-9.524 17.77,-10.309 -1.1,-4.562 -0.57,-10.34 2.39,-17.469 m -77.02,44.696 c 6.48,-8.868 17,-15.434 29.44,-18.02 1.07,-4.68 3.58,-9.789 8.54,-13.93 -2.05,-13.769 3.87,-26.632 18.69,-30.066 1.54,-6.992 5.91,-12.312 13.2,-14.836 l -10.3,-11.898 c -3.92,-4.575 -9.06,-6.047 -13.33,-5.496 l -46.03,5.23 c 1.98,5.121 -3.31,11.051 -17.87,8.508 l 18.09,50.562 -11.05,23.496 -20.91,-17.851 -1.54,-53.07 -8.87,4.378 c -11.72,5.024 -15.12,-16.085 -4.01,-16.171 l 4.4,-0.047 c -0.27,-2.199 0.38,-4.559 2.09,-5.301 -2.09,-0.895 -2.7,-4.828 -0.08,-6.211 -2.68,-1.262 -3,-5.258 -0.87,-7.012 -2.33,-3.875 -2.68,-12.355 5.39,-14.48 6.57,-1.754 10.72,5.379 12.11,9.508 l 71.59,-22.176 c 10.16,-2.914 17.36,-1.293 25.78,6.101 l 18.69,16.34 c -2.33,-10.679 1.5,-20.32 9.63,-23.5 0,0 -1.18,-9.562 -0.79,-13.902 h -186.43 v 117.805 c 0,10.961 -3.16,21.91 -6.95,32.039 z m -12.09,163.627 49.27,-16.76 v -77.1 l -36.28,19.08 z m 119.71,9.17 c 0,18.87 -31.68,35.76 -66.61,35.76 -34.96,0 -66.64,-16.89 -66.64,-35.76 l 0.74,-4.59 13.9,-80.08 -66.04,-38.5 c -7.04,-4.13 -15.84,-15.51 -16.96,-26.932 h 12.05 c 1.99,11.402 11.03,24.092 27.91,23.332 15.25,-0.83 24.25,-10.11 33.23,-23.332 l 2.31,-3.504 3.33,-5.23 h -97.14 c 7.11,-14.321 13.93,-29.512 13.93,-46 V 733.969 c 0,-51.957 39.93,-76.688 83.15,-76.688 33.36,0 37.86,1.5 56.28,-16.902 18.36,18.402 22.83,16.902 56.28,16.902 43.21,0 83.13,24.731 83.13,76.688 v 201.965 c 0,16.488 6.75,31.679 13.88,46 h -97.19 l 3.37,5.23 2.32,3.504 c 8.91,13.222 17.96,22.502 33.21,23.332 16.8,0.76 25.89,-11.93 27.87,-23.332 h 12.04 c -1.08,11.422 -9.93,22.802 -16.93,26.932 l -66.04,38.5 13.93,80.08 0.69,4.59" /><path
         id="path66"
         style="fill:#d7dbdd;fill-opacity:1;fill-rule:evenodd;stroke:none"
         d="m 1999.29,891.832 0.08,5.914 c -18.1,0.414 -22.28,21.817 -22.28,21.817 -5.28,-15.743 8.55,-27.461 22.2,-27.731" /><path
         id="path68"
         style="fill:#d7dbdd;fill-opacity:1;fill-rule:evenodd;stroke:none"
         d="m 1976.4,855.648 -1.84,5.602 c -15.43,-3.949 -23.39,20.527 -23.39,20.527 -4.98,-17.793 12.28,-30.39 25.23,-26.129" /><path
         id="path70"
         style="fill:#d7dbdd;fill-opacity:1;fill-rule:evenodd;stroke:none"
         d="m 1987.13,878.348 c -18.45,-2.926 -26.04,18.55 -26.04,18.55 -2.04,-11.691 5.54,-23.543 17.73,-24.804 -2.74,-15.254 11.44,-23.082 23.71,-17.649 l -1.77,5.305 c -10.66,-3.535 -20.66,6.996 -13.63,18.598" /><path
         id="path72"
         style="fill:#d7dbdd;fill-opacity:1;fill-rule:evenodd;stroke:none"
         d="m 1976.08,939.645 0.15,5.898 c -24.36,5.051 -22.3,21.805 -22.3,21.805 -5.27,-15.789 8.54,-27.45 22.15,-27.703" /><path
         id="path74"
         style="fill:#d7dbdd;fill-opacity:1;fill-rule:evenodd;stroke:none"
         d="m 1821.69,694.148 -8.75,-17.707 h 6.58 l 8.72,17.707 h -6.55" /><path
         id="path76"
         style="fill:#d7dbdd;fill-opacity:1;fill-rule:evenodd;stroke:none"
         d="m 1834.84,694.148 -8.71,-17.707 h 6.61 l 8.65,17.707 h -6.55" /><path
         id="path78"
         style="fill:#d7dbdd;fill-opacity:1;fill-rule:evenodd;stroke:none"
         d="m 1887.6,694.148 -8.68,-17.707 h 6.52 l 8.72,17.707 h -6.56" /><path
         id="path80"
         style="fill:#d7dbdd;fill-opacity:1;fill-rule:evenodd;stroke:none"
         d="m 1900.84,694.148 -8.77,-17.707 h 6.59 l 8.68,17.707 h -6.5" /><path
         id="path82"
         style="fill:#d7dbdd;fill-opacity:1;fill-rule:evenodd;stroke:none"
         d="m 1874.43,694.148 -8.74,-17.707 h 6.58 l 8.71,17.707 h -6.55" /><path
         id="path84"
         style="fill:#d7dbdd;fill-opacity:1;fill-rule:evenodd;stroke:none"
         d="m 1951.48,676.441 h 6.55 l 8.72,17.707 h -6.57 l -8.7,-17.707" /><path
         id="path86"
         style="fill:#d7dbdd;fill-opacity:1;fill-rule:evenodd;stroke:none"
         d="m 1848.04,694.148 -8.69,-17.707 h 6.57 l 8.7,17.707 h -6.58" /><path
         id="path88"
         style="fill:#d7dbdd;fill-opacity:1;fill-rule:evenodd;stroke:none"
         d="m 1861.2,694.148 -8.7,-17.707 h 6.61 l 8.69,17.707 h -6.6" /><path
         id="path90"
         style="fill:#d7dbdd;fill-opacity:1;fill-rule:evenodd;stroke:none"
         d="m 1831.36,789.262 c -1.2,0 -2.24,-1.192 -2.24,-2.711 0,-1.449 1.04,-2.641 2.24,-2.641 1.26,0 2.3,1.192 2.3,2.641 0,1.519 -1.04,2.711 -2.3,2.711" /><path
         id="path92"
         style="fill:#d7dbdd;fill-opacity:1;fill-rule:evenodd;stroke:none"
         d="m 1828.7,1198.11 10.35,22.01 19.27,-10.22 21.22,20.96 21.26,-20.96 19.22,10.22 10.29,-22.01 12.76,1.98 c -3.25,-6.15 -5.73,-11.52 -8.02,-19.05 -13.96,8.16 -34.73,14.44 -55.51,14.44 -20.82,0 -41.53,-6.28 -55.52,-14.44 -2.33,7.53 -4.75,12.9 -8.06,19.05 z m 50.86,-9.64 c 27.03,0 48.69,-8.96 60.65,-18.59 0,0 3.58,21.47 15.68,40.32 l -21.77,-2.45 -11.4,24.24 -21.92,-11.39 -21.24,21.09 -21.24,-21.09 -21.97,11.39 -11.41,-24.24 -21.76,2.45 c 12.14,-18.85 15.67,-40.32 15.67,-40.32 11.95,9.63 33.63,18.59 60.71,18.59" /><path
         id="path94"
         style="fill:#d7dbdd;fill-opacity:1;fill-rule:evenodd;stroke:none"
         d="m 1901.78,1231.86 c 3.18,-0.27 5.97,2.1 6.24,5.27 0.31,3.13 -4.31,11.58 -4.31,11.58 0,0 -6.92,-7.44 -7.14,-10.63 -0.29,-3.13 2.08,-5.91 5.21,-6.22" /><path
         id="path96"
         style="fill:#d7dbdd;fill-opacity:1;fill-rule:evenodd;stroke:none"
         d="m 1937.47,1218.9 c 2.84,-1.51 6.27,-0.36 7.79,2.44 1.51,2.75 0.53,12.31 0.53,12.31 0,0 -9.22,-4.13 -10.72,-6.95 -1.44,-2.79 -0.39,-6.27 2.4,-7.8" /><path
         id="path98"
         style="fill:#d7dbdd;fill-opacity:1;fill-rule:evenodd;stroke:none"
         d="m 1857.25,1231.86 c 3.21,0.31 5.55,3.09 5.26,6.22 -0.28,3.19 -7.13,10.63 -7.13,10.63 0,0 -4.61,-8.45 -4.31,-11.58 0.24,-3.17 3.07,-5.54 6.18,-5.27" /><path
         id="path100"
         style="fill:#d7dbdd;fill-opacity:1;fill-rule:evenodd;stroke:none"
         d="m 1821.59,1218.9 c 2.82,1.53 3.89,5.01 2.37,7.8 -1.48,2.82 -10.69,6.95 -10.69,6.95 0,0 -0.95,-9.56 0.58,-12.31 1.47,-2.8 4.93,-3.95 7.74,-2.44" /><path
         id="path102"
         style="fill:#d7dbdd;fill-opacity:1;fill-rule:evenodd;stroke:none"
         d="m 2216.52,1018.4 c 2.35,-5.23 7.01,-23.412 -4.15,-37.267 -12.68,25.387 -30.16,47.117 -44.27,56.497 -3.1,2 1.69,5.56 10.38,6.7 26.35,4.98 57.2,-6.18 71.87,-10.07 -6.83,-5.13 -12.41,-7.41 -19.36,-8.29 10.67,-8.94 18.42,-16.51 23.95,-24.93 -10.37,-2.591 -16.16,3.96 -38.42,17.36 m 33.19,4.31 c 7.61,2.7 13.49,9.98 16.41,16.66 -19.34,2.81 -70.75,24.38 -112.99,6.81 15.82,15.03 30.02,16.96 31.35,38.57 6.59,-4.73 17.68,-7.38 23.91,3.88 -4.34,12.89 -15.37,2.45 -16.89,6 -2.17,4.9 13.88,-1.55 17.32,15.17 -12.48,4.3 -16.21,-5.89 -18.43,-3.53 -2.06,2.26 7.93,6.53 0.57,20.02 -13,-7.59 -6.22,-16.16 -8.96,-17.09 -3.34,-1.34 -0.72,9.13 -15.06,8.64 -1.41,-15.4 13.5,-15.91 11.02,-18.36 -2.92,-3 -6.81,8.87 -17.66,2.86 0.2,-12.45 10.25,-19.27 20.68,-16.34 -1.68,-23.66 -23.37,-19.25 -39.54,-45.89 34.21,-17.54 49.68,-48.149 70.74,-69.27 6.96,4.898 18.86,26.867 18.86,26.867 22.78,-17.66 38.82,-0.074 38.82,-0.074 -7.85,8.027 -8.14,14.127 -20.15,25.077" /><path
         id="path104"
         style="fill:#d7dbdd;fill-opacity:1;fill-rule:evenodd;stroke:none"
         d="m 1873.19,603.07 -14.81,0.559 -1.71,-5.949 1.86,-0.078 c 0.61,0 0.61,1.148 1.14,1.777 0.31,0.23 2.99,0.672 5.12,0.453 l 6.21,-0.473 c -3.67,-7.609 -13.23,-14.777 -13.11,-19.82 0.15,-2.687 2.87,-3.25 4.48,-3.148 2.99,0.089 3.95,2.211 4.73,5.441 1.79,7.5 5.43,13.227 8.05,21.797 l -1.84,-0.07 -0.12,-0.489" /><path
         id="path106"
         style="fill:#d7dbdd;fill-opacity:1;fill-rule:evenodd;stroke:none"
         d="m 1883.3,594.23 0.25,4.559 h 12.88 l -0.67,5.102 c -3.53,-0.11 -8.7,-1.27 -13.47,-1.301 l -0.87,-9.961 c 5.97,0.262 9.86,-2.34 9.86,-8.598 0,-2.32 -1.53,-6.691 -4.22,-7.011 -0.62,-0.09 -1.44,0.128 -1.83,0.441 -1.3,0.969 0.4,2.019 0.4,3.641 0,2.046 -2.12,2.789 -3.52,2.539 -2.22,-0.129 -3.03,-1.559 -3.03,-3.332 0,-3.68 5.44,-4.688 7.8,-4.688 5.27,0 11.39,2.938 11.39,8.93 0,7.871 -8.8,9.519 -14.97,9.679" /><path
         id="path108"
         style="fill:#d7dbdd;fill-opacity:1;fill-rule:evenodd;stroke:none"
         d="m 1914.18,590.16 c -4.57,0 -5.23,7.149 -5.23,10.61 0,0.992 0.91,2.359 1.91,2.359 4.18,0 5.34,-9.719 5.67,-12.457 -0.68,-0.262 -1.49,-0.512 -2.35,-0.512 m -2.91,14.328 c -4.59,0 -8.39,-3.437 -8.39,-8.136 0,-7.422 7.96,-9.864 13.87,-7.043 0.73,-5.758 -0.44,-9.899 -2.63,-10.039 -1.87,0 -1.6,1.402 -1.87,2.57 -0.49,2.262 -2.24,2.859 -4.08,2.262 -1.92,-0.551 -2.22,-2.27 -1.89,-3.532 0.86,-2.929 4.47,-3 6.19,-2.781 7.61,0.871 10.77,6.492 10.77,12.742 0,7.25 -4.14,13.957 -11.97,13.957" /><path
         id="path110"
         style="fill:#d7dbdd;fill-opacity:1;fill-rule:evenodd;stroke:none"
         d="m 1847.95,606.012 c -0.68,-0.832 -3.85,-4.813 -10.69,-9.891 l 0.56,-1.031 c 0.76,0.422 1.96,0.98 4.03,2.219 l -4.03,-14.059 c -0.21,-0.77 -1.14,-0.859 -1.6,-0.77 l -2.41,0.36 -0.44,-1.668 13.08,-2.34 0.39,1.629 -2.25,0.519 c -0.66,0.192 -1.09,0.649 -0.96,1.411 l 5.95,23.371 -1.63,0.25" /><path
         id="path112"
         style="fill:#d7dbdd;fill-opacity:1;fill-rule:evenodd;stroke:none"
         d="m 1947.02,589.391 -11.6,37.757 c 24.7,5.09 41.92,10.352 55.05,15.434 V 619.02 l 20.38,-8.211 c -17.22,-7.848 -38.58,-15.637 -63.83,-21.418 m -67.46,-22.059 c -23.08,0 -45.56,3.449 -64.82,8.168 l 12.25,39.551 c 8.13,-1.871 28.42,-4.36 52.57,-4.36 24.15,0 44.37,2.489 52.55,4.36 l 12.27,-39.551 c -19.32,-4.719 -41.84,-8.168 -64.82,-8.168 m -131.39,43.477 20.43,8.211 v 23.562 c 13.12,-5.082 30.35,-10.344 55.05,-15.434 l -11.57,-37.757 c -25.21,5.781 -46.61,13.57 -63.91,21.418 m 248.61,13.132 v 28.86 c -22.32,-10.219 -50.71,-18.52 -87.23,-21.821 l -1.67,-10.308 c 3.12,-0.434 7.03,-0.82 12.3,-1.141 -13.57,-1.883 -31.03,-2.781 -40.62,-2.781 -9.61,0 -27.06,0.898 -40.63,2.781 5.23,0.321 9.14,0.707 12.26,1.141 l -1.65,10.308 c -36.54,3.301 -64.98,11.602 -87.25,21.821 v -28.86 L 1732.02,611.5 c 22.41,-11.668 48.23,-21.18 78.03,-28.871 l -3.51,-12.09 c 17.1,-4.988 44.38,-10.09 73.02,-10.09 28.61,0 55.91,5.102 72.97,10.09 l -3.53,12.09 c 29.81,7.691 55.65,17.203 78.07,28.871 l -30.29,12.441" /><path
         id="path114"
         style="fill:#d7dbdd;fill-opacity:1;fill-rule:evenodd;stroke:none"
         d="m 1504.11,1001.04 c 5.53,8.42 13.23,15.99 23.99,24.91 -7.03,0.9 -12.54,3.18 -19.41,8.31 14.69,3.89 45.61,15.05 71.92,10.07 8.64,-1.14 13.53,-4.7 10.36,-6.7 -14.15,-9.38 -31.62,-31.11 -44.33,-56.485 -11.1,13.843 -6.44,32.025 -4.09,37.255 -22.23,-13.4 -28.04,-19.951 -38.44,-17.36 m 23.91,-3.333 c 0,0 11.9,-21.969 18.84,-26.867 21.08,21.121 36.57,51.73 70.76,69.27 -16.18,26.64 -37.91,22.18 -39.48,45.87 10.35,-2.91 20.44,3.94 20.65,16.36 -10.89,5.95 -14.75,-5.89 -17.69,-2.86 -2.44,2.5 12.46,2.96 11.03,18.35 -14.36,0.44 -11.7,-9.97 -15.09,-8.63 -2.69,0.96 4.06,9.52 -8.97,17.09 -7.32,-13.54 2.69,-17.75 0.61,-20.02 -2.2,-2.36 -5.97,7.83 -18.41,3.53 3.36,-16.72 19.46,-10.27 17.28,-15.17 -1.52,-3.55 -12.52,6.87 -16.84,-6.02 6.17,-11.24 17.3,-8.59 23.83,-3.88 1.37,-21.68 15.56,-23.46 31.42,-38.55 -42.24,17.57 -93.67,-3.98 -113.06,-6.82 2.95,-6.67 8.83,-13.95 16.42,-16.59 -11.95,-11.06 -12.24,-17.13 -20.11,-25.122 0,0 16.01,-17.601 38.81,0.059" /><path
         id="path116"
         style="fill:#d7dbdd;fill-opacity:1;fill-rule:evenodd;stroke:none"
         d="m 1861.01,1013.79 v -12.71 c 4.41,5.27 12.86,4.25 12.86,4.25 v -18.303 c 0,0 -0.28,-9.031 -3.48,-12.937 h 9.17 9.16 c -3.19,3.906 -3.49,12.937 -3.49,12.937 v 18.303 c 0,0 8.45,1.02 12.84,-4.25 v 12.71 h -18.51 -18.55" /><path
         id="path118"
         style="fill:#ffffff;fill-opacity:1;fill-rule:nonzero;stroke:none"
         d="m 2280.82,1008.33 c -2.22,2.28 -3.56,4.37 -5.4,7.25 -0.95,1.48 -1.99,3.04 -3.17,4.75 3.19,3.71 5.92,7.99 7.96,12.69 l 8.19,18.65 -20.15,2.9 c -3.41,0.5 -8.89,1.94 -15.28,3.62 -12.37,3.24 -28.21,7.4 -45.53,9.21 5.92,2.6 10.92,7.26 14.43,13.58 l 3.31,5.97 c 0,0 -0.88,8.37 -4.14,11 1.26,2.59 2.19,5.45 2.85,8.57 l 2.73,13.36 -12.88,4.41 c -1.99,0.7 -4.01,1.19 -5.98,1.51 -0.73,2.45 -1.81,5.04 -3.28,7.75 l -7.65,14.03 -13.8,-8.08 c -3.43,-2.02 -6.33,-4.31 -8.68,-6.89 -2.06,0.38 -4.26,0.57 -6.58,0.57 0,0 -7.85,0.88 -16.57,-2.27 l -11.13,11.53 -13.16,14.06 c -12.3,13.18 -28.98,17.07 -46,10.6 -6.49,6.47 -16.62,11.85 -32.33,11.85 -5.32,0 -9.99,-0.64 -12.76,-1.01 0,0 -21.64,-3.94 -33.79,-15.49 l -14.77,7.02 c -9.89,-15.56 -26.81,-20.51 -26.81,-20.51 -1.14,4.54 -3.13,8.81 -5.94,12.68 l 0.97,5.5 c 0,0.16 3.31,18.75 13.44,34.49 l 17.6,27.41 -24.94,-2.81 c 0.06,2.48 -0.05,5.39 -0.4,8.86 l -2.23,21.34 -19.55,-8.83 c -2.17,-0.98 -3.98,-1.93 -5.66,-2.83 l -3.86,8.22 -8.95,-4.65 c -0.9,2.22 -2.05,4.71 -3.63,7.59 l -10.32,18.91 -14.65,-15.79 c -1.5,-1.63 -2.76,-3.12 -3.87,-4.56 l -8.89,8.84 -8.94,-8.88 c -1.11,1.44 -2.34,2.93 -3.84,4.55 l -14.68,15.93 -10.35,-19.01 c -1.58,-2.9 -2.71,-5.36 -3.61,-7.58 l -8.93,4.64 -3.88,-8.21 c -1.69,0.9 -3.52,1.85 -5.67,2.85 l -19.62,8.82 -2.17,-21.4 c -0.36,-3.45 -0.45,-6.35 -0.39,-8.81 l -24.98,2.81 17.66,-27.43 c 10.16,-15.72 13.4,-34.28 13.41,-34.43 l 0.93,-5.49 c -2.84,-3.92 -4.82,-8.19 -5.96,-12.73 0,0 -15.97,6.83 -26.66,20.53 l -15.06,-7.18 c -17.19,11.6 -27.84,16.12 -46.36,16.64 -15.72,0.43 -25.85,-5.38 -32.32,-11.84 -17.04,6.45 -33.68,2.54 -45.94,-10.61 0,0 -8.07,-8.76 -13.18,-14.06 -5.11,-5.32 -12.62,-9.71 -12.62,-9.71 0,0 -10.7,2.4 -21.69,-0.14 -2.35,2.59 -5.27,4.89 -8.76,6.94 l -13.83,8.05 -7.61,-14.1 c -1.45,-2.69 -2.51,-5.24 -3.22,-7.68 -1.98,-0.32 -3.98,-0.81 -5.99,-1.51 l -12.79,-4.41 2.68,-13.28 c 0.64,-3.2 1.57,-6.06 2.85,-8.66 -0.74,-1.41 -1.4,-2.93 -1.95,-4.53 l -2.16,-6.45 3.29,-5.97 c 3.48,-6.31 8.47,-10.99 14.4,-13.59 -17.32,-1.81 -33.17,-5.97 -45.57,-9.22 -6.36,-1.68 -11.87,-3.12 -15.27,-3.63 l -20.25,-2.92 4.61,-10.42 3.68,-8.28 c 2.09,-4.65 4.81,-8.93 8.01,-12.61 -1.19,-1.7 -6.32,-9.69 -8.56,-11.98 l -10.22,-10.422 9.82,-10.828 c 1.22,-1.324 12.22,-12.863 30.03,-12.879 4.86,0 9.7,0.844 14.49,2.539 4.75,-7.426 10.36,-14.941 15.53,-18.641 -9.46,-11.125 -20.24,-20.765 -35.57,-28.074 l -12.82,-6.105 5.49,-14.645 c 3.6,-8.824 10.57,-18.535 24.08,-22.25 -2.89,-8.629 -4.29,-16.844 -5.51,-24.121 -2.89,-17.348 -4.11,-24.523 -19.38,-29.887 l -13.71,-4.797 3.92,-13.98 c 3.18,-11.391 7.9,-18.93 13.06,-23.879 l -9.11,-10.031 c 0,0 21.63,-16.199 42.82,-18.18 0.3,-0.039 18.39,-1.191 26.5,9.149 3.25,-11.719 8.39,-22.528 13.04,-32.348 9.58,-20.141 14.68,-32.082 8.26,-42.949 l -14.47,-24.563 28.48,1.192 c 12.43,0.519 23.99,1.257 33.97,3.738 0,-0.547 -0.03,-1.047 -0.09,-1.559 l -2.33,-21.09 24.95,5.258 c 2.64,0.793 5.08,1.813 7.34,3.032 15.46,-18.059 41.69,-32.168 77.07,-32.168 h 2.07 l -40.67,-16.704 29.6,-15.41 c 19.5,-10.148 41.17,-18.656 65.88,-25.859 l -3.45,-11.84 14.87,-4.348 c 8.58,-2.531 39.58,-10.742 77.34,-10.742 37.76,0 68.73,8.231 77.33,10.742 l 14.83,4.348 -3.44,11.82 c 24.74,7.223 46.42,15.731 65.92,25.879 l 29.62,15.41 -40.7,16.704 h 2.05 c 35.35,0 61.59,14.109 77.04,32.168 2.24,-1.188 4.71,-2.239 7.32,-3.032 l 24.94,-5.258 -2.28,21.071 c -0.05,0.5 -0.08,1.019 -0.08,1.57 9.97,-2.473 21.54,-3.211 33.96,-3.73 l 28.44,-1.192 -14.42,24.539 c -6.43,10.891 -1.32,22.821 8.24,42.961 4.66,9.801 9.79,20.633 13.05,32.36 5.49,-4.188 11.37,-6.68 17.26,-7.989 0,0 4.56,-1.371 8.93,-1.48 12.6,-0.379 18.86,3.191 27.52,8.64 l 15.7,9.879 -9.19,10.039 c 5.15,4.954 9.87,12.481 13.06,23.813 l 3.96,14.019 -13.75,4.797 c -15.28,5.364 -16.48,12.539 -19.39,29.871 -1.24,7.293 -2.59,15.508 -5.51,24.137 13.5,3.727 20.46,13.442 24.06,22.25 l 5.48,14.66 -12.81,6.09 c -15.34,7.309 -26.11,16.949 -35.58,28.074 5.19,3.711 10.8,11.231 15.58,18.641 4.76,-1.695 9.58,-2.523 14.46,-2.539 v 0 c 17.81,0 28.84,11.539 30.04,12.863 l 9.82,10.813 -10.2,10.443" /><path
         id="path120"
         style="fill:#fee80e;fill-opacity:1;fill-rule:evenodd;stroke:none"
         d="m 1879.56,657.121 c -12.79,12.711 -21.89,14.109 -56.34,14.109 -41.14,0 -69.11,24.122 -69.11,62.7 v 77.199 h 250.87 V 733.93 c 0,-38.578 -27.91,-62.7 -69.14,-62.7 -34.46,0 -43.57,-1.398 -56.28,-14.109 m -125.45,160.938 v 117.769 c 0,10.977 -3.17,21.926 -6.97,32.024 h 91.38 c 8.39,-11.512 23.6,-19.235 41.04,-19.235 17.38,0 32.59,7.723 40.99,19.235 h 91.4 c -3.88,-10.098 -7,-21.047 -7,-32.024 V 818.059 h -250.84" /><path
         id="path122"
         style="fill:#ffffff;fill-opacity:1;fill-rule:nonzero;stroke:none"
         d="M 1768.63,642.551 V 619.02 l -20.4,-8.211 c 17.27,-7.848 38.67,-15.637 63.86,-21.411 l 11.59,37.723 c -24.72,5.109 -41.93,10.379 -55.05,15.43" /><path
         id="path124"
         style="fill:#ffffff;fill-opacity:1;fill-rule:nonzero;stroke:none"
         d="m 1879.56,610.691 c -24.14,0 -44.44,2.489 -52.55,4.379 l -12.24,-39.57 c 19.23,-4.719 41.74,-8.168 64.79,-8.168 22.98,0 45.48,3.449 64.8,8.168 l -12.28,39.57 c -8.15,-1.89 -28.37,-4.379 -52.52,-4.379" /><path
         id="path126"
         style="fill:#ffffff;fill-opacity:1;fill-rule:nonzero;stroke:none"
         d="m 1990.44,642.551 c -13.12,-5.051 -30.32,-10.321 -55.03,-15.43 l 11.61,-37.723 c 25.22,5.774 46.58,13.563 63.81,21.411 l -20.39,8.211 v 23.531" /><path
         id="path128"
         style="fill:#ffffff;fill-opacity:1;fill-rule:nonzero;stroke:none"
         d="m 1687.67,1018.74 c -28,-29.931 -15.88,-47.826 -10.22,-53.353 -10.43,2.242 -25.98,15.523 -22.44,28.386 -3.32,-3.98 -6.7,-8.289 -10.21,-12.746 -6.95,-9.254 -13.17,-18.343 -18.68,-27.152 -8.49,-25.234 7.08,-51.305 33.55,-62.859 -29.44,4.324 -42.64,30.507 -42.55,47.175 -14.07,-26.558 -20.77,-50.8 -20.16,-71.164 0.27,-7.558 0.92,-14.644 1.91,-21.3 6.76,-12.832 17.62,-17.539 36.95,-19.872 -17.59,-1.117 -26.87,-0.296 -34.54,7.708 11.99,-51.454 67.94,-96.012 90.74,-134.172 -22.8,29.66 -70.03,73.808 -86.58,105.757 -1.28,-11.539 1.8,-41.117 16.18,-59.308 -21.16,20.789 -22.8,52.332 -21.44,70.769 -5.36,13.286 -8.75,28.125 -9.21,44.996 -0.43,15.54 0.67,28.981 3.03,41.102 -13.36,-19 -32.66,-26.32 -42.17,-55.242 1.85,37.312 29.71,37.89 50.54,83.148 8.08,19.817 19.79,36.899 32.79,56.313 -16.5,-5.41 -28.84,-9.254 -47.92,-30.168 13.55,32.051 91.87,68.072 127.74,102.952 -10.75,-2.28 -54.75,-3.39 -73,8.81 33.09,-8.98 106.71,1.27 134.51,20.28 -19.2,-27.61 -60.97,-29.17 -111.83,-84.08 6.55,5.09 15.18,10.32 23.01,14.02 m 38.22,3.18 c 31.98,17.26 110.12,55.26 57.15,96.23 -7.23,5.56 -15.16,10.56 -21.85,16.8 -8.27,-6.38 3.11,-22.2 5.94,-28 0,0 -17.63,-1.78 -21.86,-1.78 -27.24,0.12 -55.82,16.25 -41.35,47.19 -10.84,-2.24 -12.18,-12.65 -15.49,-21.59 -6.96,4.7 -19.03,14.8 -28.34,13.38 7.57,-24.21 39.42,-46.02 64.12,-50.97 -25,-13.6 -71.3,-23.72 -95.67,5.56 -17.11,-33.08 6.73,-46.92 30.06,-64.26 -88.91,-40.558 -75.8,-86.085 -134.13,-121.914 7.58,-3.546 41.31,3.582 44.31,4.012 -12.67,-16.426 -18.58,-23.363 -22.28,-31.34 -3.53,-7.5 -5.14,-15.953 -8.64,-34.179 -2.75,-14.407 -7.77,-28.754 -25.28,-38.289 6.86,-12.418 22.11,-2.719 28.49,-1.059 -0.87,-1.301 -3.01,-16.289 -8.74,-23.492 29.96,1.929 16.09,65.097 46.08,49.89 8.45,-4.265 10.99,-14.203 7.08,-22.339 -19.68,-40.61 25.06,-76.411 22.62,-112 11,0.089 22.39,0.378 29.59,15.242 3.73,-7.41 9.55,-17.821 12.78,-27.883 l 8.97,15.262 c 5.51,-25.243 29.06,-48.59 60.88,-50.672 -15.18,24.011 3,56.82 -33.86,91.679 4.58,3.704 15.21,10.864 19.01,15.731 -45.26,-5.32 -92.48,30.48 -71.05,47.473 14.03,11.093 20.15,-11.942 41.79,-8.071 l -8.46,7.309 c 2.98,2.93 6.36,6.769 9.88,9.64 -9.18,1.118 -19.23,6.997 -19.23,6.997 l 5.48,9.062 c -53.01,0.059 -54.37,40.609 -32.83,42.227 10.13,0.742 23.2,-17.899 55.84,-14.02 -4.18,5.035 -5.84,12.609 -7.82,18.238 7.89,0.731 17.16,0.657 24.6,4.278 -15.94,2.066 -19.98,7.398 -33.23,17.453 l 15.42,5.644 c -22.35,11.141 -20.99,30.582 -21.68,50.829 11.68,-6.727 25.44,-17.157 40.1,-12.297 3.49,1.172 5.73,2.777 5.81,6.414 -20.96,8.246 -34.37,40.508 15.79,67.615" /><path
         id="path130"
         style="fill:#ffffff;fill-opacity:1;fill-rule:nonzero;stroke:none"
         d="m 2165.07,902.707 c 2.35,-12.121 3.54,-25.578 3.03,-41.102 -0.5,-16.871 -3.86,-31.71 -9.21,-44.996 1.37,-18.437 -0.28,-49.98 -21.42,-70.769 14.34,18.211 17.44,47.769 16.18,59.308 -16.62,-31.949 -63.8,-76.097 -86.63,-105.757 22.83,38.16 78.8,82.738 90.8,134.172 -7.72,-8.004 -16.95,-8.825 -34.55,-7.723 19.31,2.348 30.14,7.055 36.91,19.887 1.01,6.656 1.67,13.742 1.93,21.316 0.64,20.348 -6.1,44.59 -20.17,71.148 0.14,-16.668 -13.07,-42.851 -42.54,-47.191 26.43,11.57 42.02,37.641 33.54,62.875 -5.49,8.809 -11.67,17.898 -18.67,27.152 -3.47,4.457 -6.88,8.75 -10.22,12.746 3.54,-12.863 -12.01,-26.144 -22.44,-28.386 5.67,5.527 17.75,23.422 -10.2,53.353 7.84,-3.7 16.48,-8.93 23,-14.02 -50.85,54.91 -92.58,56.46 -111.86,84.08 27.85,-19.01 101.48,-29.27 134.53,-20.28 -18.24,-12.2 -62.25,-11.09 -73.02,-8.81 35.86,-34.88 114.25,-70.901 127.77,-102.94 -19.06,20.902 -31.46,24.746 -47.89,30.14 13,-19.414 24.69,-36.48 32.74,-56.281 20.88,-45.274 48.75,-45.836 50.58,-83.176 -9.52,28.945 -28.81,36.254 -42.19,55.254 m 56.12,-51.648 c -3.5,18.242 -5.07,26.679 -8.61,34.164 -3.66,7.992 -9.59,14.929 -22.33,31.355 3.02,-0.43 36.82,-7.558 44.37,-4.012 -58.34,35.829 -45.22,81.356 -134.16,121.914 23.36,17.34 47.17,31.17 30.09,64.28 -24.37,-29.3 -70.7,-19.18 -95.67,-5.58 24.75,4.95 56.55,26.74 64.12,50.97 -9.35,1.42 -21.42,-8.68 -28.37,-13.37 -3.31,8.93 -4.6,19.35 -15.44,21.61 14.48,-30.97 -14.13,-47.1 -41.45,-47.22 -4.17,0 -21.79,1.78 -21.79,1.78 2.83,5.8 14.19,21.62 5.89,28 -6.67,-6.24 -14.56,-11.24 -21.81,-16.8 -53,-40.97 25.22,-78.99 57.17,-96.23 50.09,-27.107 36.75,-59.354 15.79,-67.615 0.06,-3.637 2.33,-5.242 5.82,-6.414 14.59,-4.86 28.4,5.57 40.05,12.297 -0.67,-20.231 0.73,-39.688 -21.63,-50.829 l 15.38,-5.644 c -13.27,-10.055 -17.26,-15.387 -33.2,-17.453 7.4,-3.621 16.74,-3.547 24.6,-4.293 -2.02,-5.598 -3.73,-13.188 -7.85,-18.223 32.67,-3.879 45.78,14.762 55.85,14.02 21.46,-1.618 20.2,-42.168 -32.84,-42.227 l 5.5,-9.074 c 0,0 -10.03,-5.867 -19.25,-6.985 3.5,-2.871 6.95,-6.699 9.9,-9.64 l -8.46,-7.309 c 21.59,-3.871 27.77,19.164 41.78,8.071 21.43,-16.993 -25.77,-52.793 -71.06,-47.473 3.82,-4.859 14.42,-12.027 19.04,-15.75 -36.89,-34.84 -18.77,-67.649 -33.86,-91.688 31.74,2.11 55.3,25.457 60.88,50.7 l 8.96,-15.262 c 3.21,10.062 9.09,20.473 12.76,27.883 7.16,-14.864 18.62,-15.16 29.66,-15.242 -2.5,35.589 42.22,71.39 22.59,112 -3.92,8.125 -1.39,18.074 7.06,22.339 30.02,15.207 16.09,-47.961 46.08,-49.89 -5.74,7.203 -7.88,22.191 -8.69,23.492 6.34,-1.66 21.56,-11.391 28.43,1.07 -17.48,9.524 -22.51,23.887 -25.3,38.278" /><path
         id="path132"
         style="fill:#ffffff;fill-opacity:1;fill-rule:nonzero;stroke:none"
         d="m 1920.54,967.852 c -8.39,-11.512 -23.62,-19.235 -40.98,-19.235 -4.04,0 -7.96,0.446 -11.65,1.176 1.03,-4.754 3.48,-9.641 8.54,-13.875 -2.06,-13.77 3.9,-26.66 18.68,-30.047 1.58,-7.012 5.91,-12.328 13.23,-14.84 l -10.29,-11.898 c -3.97,-4.559 -9.15,-6.016 -13.33,-5.496 l -46.01,5.242 c 1.99,5.109 -3.33,11.023 -17.9,8.484 l 18.06,50.59 -11.01,23.469 -20.88,-17.856 -1.54,-53.054 -8.99,4.383 c -11.59,5.035 -15,-16.086 -3.97,-16.176 l 4.45,-0.047 c -0.3,-2.168 0.4,-4.574 2.12,-5.348 -2.08,-0.828 -2.72,-4.765 -0.11,-6.148 -2.62,-1.262 -3,-5.274 -0.87,-7.012 -2.27,-3.906 -2.7,-12.34 5.35,-14.48 6.63,-1.739 10.79,5.375 12.15,9.504 l 71.6,-22.172 c 10.07,-2.914 17.35,-1.282 25.76,6.101 l 18.69,16.34 c -2.35,-10.68 1.48,-20.32 9.61,-23.496 0,0 -1.3,-9.789 -0.79,-13.859 l 25.04,-0.043 h 39.45 v 117.754 c 0,10.976 3.12,21.941 7,32.039 h -46.45 -44.96" /><path
         id="path134"
         style="fill:#ffffff;fill-opacity:1;fill-rule:nonzero;stroke:none"
         d="m 1813.3,769.711 1.39,-1.75 c 1.95,-2.402 3.08,-1.832 5.31,-0.551 l 3.25,1.719 c 2.03,1.531 15.36,-3.539 16.12,7.531 1.47,-8.269 -8.37,-25.672 -2.46,-35.398 l 8,-13.102 -26.12,-0.371 c -2.86,0 -4.35,-1.719 -5.14,-3.301 l -6.83,-14.168 c -1.77,-3.718 -1.65,-7.621 0.6,-10.199 l 4.62,-5.199 c 0,0 3.78,3.219 5,7.41 l -2.05,2.109 c -1.69,1.641 -1.69,3.149 -0.76,5.188 l 4.21,8.73 c 1.63,3.43 3.27,4.161 6.98,3.301 l 21.11,-4.558 c 1.56,-0.372 4.05,-1.133 5.55,1.449 2.57,4.59 7.16,4.89 11.79,4.187 11.59,-1.738 38.34,-4.508 47.89,6.633 11.2,-14.871 33.09,-14.871 31.65,-22.652 l -4.62,-25.571 h 6.97 l 4.23,26.133 c 0.48,3.039 2.35,7.231 -0.93,9.571 -1.34,1.046 -1.96,1.57 -5.01,6.808 -3.98,6.969 -3.77,17.399 -7.62,26.371 3.64,4.289 7.58,5.75 11.02,4.957 7.71,-1.886 9.81,-15.199 20.77,-26.066 -1.25,4.828 -1.77,10.129 -4.37,14.719 0,0 7.61,-5.903 9.57,-12.801 1.25,-4.34 2.52,-7.488 6.41,-9.488 2.59,-0.942 5.66,0.308 8.75,4.007 0,0 -7.23,10.27 -12.52,16.993 -7.25,9.238 -16.95,18.488 -30.17,17.418 -4.15,-0.348 -8.18,-2.239 -12,-4.508 -15,8.398 -26.66,-0.492 -31.31,-0.492 l -28.1,1.671 c -5.54,0.348 -9.89,6.758 -9.89,6.758 -0.72,23.781 -19.82,33.262 -26.41,33.262 0,0 0.62,4.289 -1.12,5.777 l -5.88,-7.367 -16.29,5.938 12.77,-10.457 -13.86,-16.114 c -1.42,-1.59 -1.2,-3.668 -0.5,-4.527" /><path
         id="path136"
         style="fill:#ffffff;fill-opacity:1;fill-rule:nonzero;stroke:none"
         d="m 1794.85,736.301 c -3.92,-3.039 -3.76,-7.289 -1.38,-12.031 l 2.36,-4.391 6.14,4.672 -1.39,3.019 c -0.99,2.121 -0.96,4.282 0.78,5.641 l 8.79,6.641 c 2.47,1.796 3.24,1.988 5.88,1.609 l 18.58,-3.91 c 0,0 -2.8,4.097 -3.76,8.269 l -17.49,2.309 c -2.48,0.32 -3.97,-0.75 -6.14,-2.379 l -12.37,-9.449" /><path
         id="path138"
         style="fill:#ffffff;fill-opacity:1;fill-rule:nonzero;stroke:none"
         d="m 1913.65,681.148 h 7.01 l 11.26,27.782 c 0.4,0.949 0.93,1.39 1.36,2.179 -5.06,1.993 -8.02,3.422 -12.24,5.84 2.83,-3.789 5.04,-5.418 3.87,-8.91 l -11.26,-26.891" /><path
         id="path140"
         style="fill:#ffffff;fill-opacity:1;fill-rule:nonzero;stroke:none"
         d="m 1891.68,1069.78 26.33,10.1 c 0,0 0,-3.23 -7.59,-8.38 -6.75,-4.68 -18.74,-9.67 -18.74,-9.67 z m 0,19.25 29.91,10.68 c 0,0 -3.58,-3.79 -11.17,-9 -6.75,-4.64 -18.74,-9.63 -18.74,-9.63 z m 0,18.09 32.72,12.06 c 0,0 -6.39,-5.18 -13.98,-10.38 -6.75,-4.68 -18.74,-9.66 -18.74,-9.66 z m 27.92,-50.44 13,74.77 -49.27,-16.74 v -77.12 l 36.27,19.09" /><path
         id="path142"
         style="fill:#ffffff;fill-opacity:1;fill-rule:nonzero;stroke:none"
         d="m 1831.91,990.535 1.1,-1.726 h 10.14 l 0.11,-1.766 c 0.13,-1.695 0.5,-3.445 1.07,-5.211 1.57,-4.844 4.69,-9.894 9.73,-13.98 5.82,-4.692 14.24,-8.11 25.45,-8.11 24.28,0 35.25,15.715 36.31,27.301 l 0.06,1.766 h 10.19 l 1.08,1.726 c 9.58,14.985 21.27,31.635 34.88,34.005 l -37.06,21.49 -45.44,-24.72 -45.47,24.72 -37.01,-21.49 c 13.55,-2.37 25.23,-19.02 34.86,-34.005" /><path
         id="path144"
         style="fill:#ffffff;fill-opacity:1;fill-rule:nonzero;stroke:none"
         d="m 1867.39,1089.03 v -7.95 c 0,0 -11.97,4.97 -18.71,9.63 -7.65,5.22 -11.2,9 -11.2,9 z m 0,18.09 v -7.98 c 0,0 -11.97,4.98 -18.71,9.66 -7.65,5.21 -14.05,10.38 -14.05,10.38 z m 0,-45.3 c 0,0 -11.97,5 -18.71,9.66 -7.65,5.16 -7.65,8.4 -7.65,8.4 l 26.36,-10.1 z m 8.29,-24.23 v 77.12 l -49.22,16.75 12.95,-74.78 36.27,-19.09" /><path
         id="path146"
         style="fill:#ffffff;fill-opacity:1;fill-rule:nonzero;stroke:none"
         d="m 1879.54,1164.44 c -28.16,0 -49.26,-9.23 -53.84,-20.04 l 53.84,-21.27 53.8,21.27 c -4.57,10.81 -25.65,20.04 -53.8,20.04" /><path
         id="path148"
         style="fill:#ffffff;fill-opacity:1;fill-rule:nonzero;stroke:none"
         d="m 1879.56,1195.3 c 20.75,0 41.51,-6.28 55.49,-14.44 2.27,7.52 4.72,12.88 8.02,19.03 l -12.76,-1.96 -10.29,22.02 -19.25,-10.24 -21.21,20.97 -21.24,-20.97 -19.24,10.24 -10.38,-22.02 -12.73,1.96 c 3.33,-6.15 5.74,-11.51 8.07,-19.03 14,8.16 34.7,14.44 55.52,14.44" /><path
         id="path150"
         style="fill:#ffffff;fill-opacity:1;fill-rule:nonzero;stroke:none"
         d="m 2230.88,1025.82 c 6.97,0.89 12.55,3.2 19.37,8.31 -14.7,3.91 -45.52,15.05 -71.83,10.05 -8.7,-1.14 -13.51,-4.68 -10.41,-6.68 14.13,-9.37 31.59,-31.1 44.28,-56.473 11.15,13.844 6.47,32.043 4.14,37.253 22.25,-13.41 28.06,-19.932 38.4,-17.38 -5.5,8.44 -13.28,16.03 -23.95,24.92" /><path
         id="path152"
         style="fill:#ffffff;fill-opacity:1;fill-rule:nonzero;stroke:none"
         d="m 1546.75,981.027 c 12.7,25.373 30.17,47.103 44.33,56.473 3.15,2 -1.73,5.54 -10.37,6.68 -26.34,5 -57.22,-6.14 -71.92,-10.05 6.89,-5.11 12.4,-7.42 19.41,-8.31 -10.71,-8.91 -18.46,-16.48 -23.96,-24.92 10.39,-2.552 16.18,3.97 38.4,17.4 -2.3,-5.25 -7,-23.429 4.11,-37.273" /><path
         id="path154"
         style="fill:#231f20;fill-opacity:1;fill-rule:evenodd;stroke:none"
         d="m 1659.45,706.391 -8.97,-15.262 c -3.23,10.062 -9.05,20.473 -12.78,27.883 -7.2,-14.864 -18.59,-15.16 -29.59,-15.242 2.44,35.589 -42.3,71.39 -22.62,112 3.92,8.125 1.37,18.074 -7.08,22.339 -29.99,15.207 -16.12,-47.961 -46.08,-49.89 5.73,7.203 7.87,22.191 8.74,23.492 -6.38,-1.66 -21.63,-11.391 -28.49,1.059 17.51,9.535 22.53,23.882 25.29,38.289 3.49,18.226 5.1,26.679 8.63,34.164 3.7,7.992 9.61,14.929 22.28,31.355 -3,-0.43 -36.73,-7.558 -44.32,-4.012 58.34,35.829 45.21,81.356 134.14,121.914 -23.32,17.34 -47.16,31.17 -30.06,64.26 24.37,-29.28 70.67,-19.16 95.67,-5.56 -24.7,4.95 -56.55,26.74 -64.11,50.97 9.3,1.42 21.37,-8.68 28.31,-13.38 3.34,8.95 4.67,19.35 15.51,21.59 -14.47,-30.94 14.11,-47.07 41.35,-47.19 4.23,0 21.86,1.78 21.86,1.78 -2.83,5.8 -14.21,21.62 -5.94,28 6.69,-6.24 14.62,-11.24 21.85,-16.8 52.97,-40.97 -25.19,-78.99 -57.17,-96.23 -50.14,-27.107 -36.73,-59.369 -15.77,-67.615 -0.08,-3.637 -2.32,-5.242 -5.81,-6.414 -14.66,-4.86 -28.42,5.582 -40.1,12.297 0.69,-20.247 -0.69,-39.688 21.68,-50.829 l -15.42,-5.613 c 13.25,-10.086 17.29,-15.418 33.23,-17.484 -7.44,-3.621 -16.69,-3.547 -24.6,-4.293 1.99,-5.614 3.64,-13.188 7.82,-18.223 -32.64,-3.879 -45.71,14.762 -55.84,14.02 -21.54,-1.618 -20.18,-42.168 32.83,-42.227 l -5.5,-9.074 c 0,0 10.04,-5.867 19.25,-6.985 -3.52,-2.851 -6.9,-6.71 -9.88,-9.64 l 8.47,-7.309 c -21.65,-3.871 -27.77,19.164 -41.8,8.071 -21.43,-16.993 25.79,-52.793 71.05,-47.473 -3.8,-4.867 -14.43,-12.027 -19.01,-15.75 36.86,-34.84 18.68,-67.649 33.85,-91.688 -31.81,2.129 -55.35,25.457 -60.87,50.7 m 41.47,39.199 c 10.25,8.121 18.73,12.18 18.3,31.832 -15.38,-7.863 -58.97,-7.442 -77.18,17.629 -5.16,7.14 0.36,10.719 5.32,5.109 12.46,-14.14 35.57,-7.738 43.99,-3.66 -1.33,4.879 -5.08,11.199 -8.23,13.91 3.15,3.102 12.08,7.719 13.89,15.668 -4.77,2.582 -23.26,4.442 -23.26,4.442 2.97,2.867 6.67,6.847 4.46,17.437 -18.9,-5.809 -42.23,2.078 -47.55,9.074 -5.21,6.875 0.11,13.324 4.5,8.762 9.4,-9.875 55.82,-21.207 73.08,-4.008 -6.4,1.766 -13.49,7.5 -14.75,11.051 15.97,1.605 28.71,11.035 29.77,22.785 -8.84,0 -25.54,0.637 -31.22,4.918 7.66,2.836 12.5,5.598 14.92,14.184 -29.21,1.765 -31.53,23.468 -31.69,27.062 19.02,-10.976 52.53,-6.09 43.87,20.93 -15.83,0.844 -31.78,26.453 11.75,49.985 39.59,21.43 84.58,44.53 80.6,82.53 -2.59,24.35 -42.65,40.94 -47.73,53.25 -16.72,-7.96 -20.08,-17.19 -12.53,-32.67 0,0 -37.26,-3.7 -40.2,19.22 -1.27,10.27 5.59,19.9 12.97,27.24 -4.19,0 -32.25,7.52 -40.71,-15.34 -15.73,10.73 -29.18,10.33 -39.78,-1 16.9,-10.03 27.37,-44.47 55.33,-54.63 -19.89,-10.78 -52.05,-6.27 -70.81,26.85 -17.76,-26.75 -27.98,-53.25 10.1,-81.52 -69.32,-31.56 -68.81,-91.845 -129.1,-120.571 6.12,-16.414 19.01,-16.414 35.44,-13.844 -26.07,-33.863 -3.85,-69.32 -45.13,-83.805 3.88,-13.808 11.63,-24.851 26.84,-20.808 -4.32,-6.743 -7.17,-6.614 -13.91,-14.02 22.56,-14.211 49.31,-3.922 55.37,41.664 1.07,8.141 12.28,3.043 8.41,-4.945 -25.72,-53.16 39.31,-93.16 16.3,-132.172 20.29,0.851 35.74,2.441 44.19,9.269 4.15,-8.168 6.63,-16.277 5.74,-24.269 11.21,2.269 15.28,8.902 16.05,16.519 7.36,-21.429 33.6,-44.308 75.59,-44.308 -22.28,31.742 -1.53,63.969 -33,100.25" /><path
         id="path156"
         style="fill:#231f20;fill-opacity:1;fill-rule:evenodd;stroke:none"
         d="m 1601.28,833.563 c 7.67,-8.004 16.95,-8.825 34.54,-7.723 -19.33,2.348 -30.19,7.055 -36.96,19.887 -0.98,6.656 -1.63,13.742 -1.9,21.3 -0.61,20.364 6.09,44.606 20.16,71.164 -0.09,-16.652 13.1,-42.839 42.55,-47.191 -26.47,11.57 -42.04,37.641 -33.55,62.875 5.51,8.809 11.73,17.898 18.68,27.152 3.49,4.457 6.89,8.75 10.21,12.746 -3.54,-12.851 12.01,-26.144 22.41,-28.371 -5.63,5.512 -17.75,23.407 10.23,53.338 -7.81,-3.7 -16.44,-8.93 -22.99,-14.02 50.83,54.91 92.63,56.46 111.83,84.08 -27.8,-19.01 -101.42,-29.27 -134.51,-20.28 18.25,-12.2 62.25,-11.09 73,-8.81 -35.87,-34.88 -114.19,-70.901 -127.75,-102.952 19.07,20.926 31.43,24.758 47.93,30.152 -13,-19.414 -24.71,-36.48 -32.79,-56.297 -20.83,-45.258 -48.69,-45.836 -50.54,-83.16 9.51,28.934 28.79,36.27 42.17,55.254 -2.36,-12.121 -3.46,-25.578 -3.04,-41.102 0.47,-16.871 3.86,-31.71 9.22,-44.996 -1.36,-18.437 0.28,-49.98 21.44,-70.769 -14.38,18.191 -17.46,47.769 -16.18,59.308 16.55,-31.949 63.78,-76.097 86.6,-105.757 -22.82,38.16 -78.77,82.718 -90.76,134.172" /><path
         id="path158"
         style="fill:#231f20;fill-opacity:1;fill-rule:evenodd;stroke:none"
         d="m 2123.96,986.91 c 16.42,-5.394 28.81,-9.226 47.88,-30.152 -13.51,32.051 -91.92,68.072 -127.78,102.952 10.77,-2.26 54.78,-3.39 73.02,8.81 -33.05,-8.99 -106.68,1.27 -134.51,20.28 19.23,-27.62 60.99,-29.17 111.84,-84.08 -6.52,5.09 -15.16,10.32 -23,14.02 27.95,-29.931 15.87,-47.826 10.2,-53.353 10.43,2.242 25.98,15.535 22.44,28.386 3.34,-3.996 6.75,-8.289 10.22,-12.746 7,-9.254 13.18,-18.343 18.67,-27.152 8.48,-25.234 -7.11,-51.305 -33.52,-62.875 29.45,4.34 42.66,30.539 42.51,47.191 14.08,-26.558 20.82,-50.8 20.18,-71.164 -0.26,-7.558 -0.92,-14.644 -1.91,-21.3 -6.79,-12.832 -17.65,-17.539 -36.94,-19.887 17.61,-1.102 26.84,-0.281 34.56,7.723 -12,-51.454 -67.95,-96.012 -90.8,-134.172 22.85,29.66 70.01,73.808 86.63,105.757 1.28,-11.539 -1.83,-41.117 -16.18,-59.308 21.15,20.789 22.79,52.332 21.42,70.789 5.35,13.266 8.71,28.105 9.21,44.976 0.51,15.524 -0.68,28.981 -3.03,41.102 13.38,-19 32.66,-26.32 42.19,-55.254 -1.83,37.324 -29.7,37.902 -50.58,83.16 -8.05,19.817 -19.73,36.883 -32.72,56.297" /><path
         id="path160"
         style="fill:#231f20;fill-opacity:1;fill-rule:evenodd;stroke:none"
         d="m 2218.06,811.711 c 0.81,-1.301 2.95,-16.289 8.69,-23.492 -29.99,1.929 -16.08,65.097 -46.08,49.89 -8.45,-4.265 -10.98,-14.214 -7.06,-22.339 19.61,-40.61 -25.09,-76.411 -22.58,-112 -11.05,0.082 -22.51,0.378 -29.66,15.242 -3.68,-7.41 -9.56,-17.821 -12.77,-27.864 l -8.97,15.243 c -5.57,-25.243 -29.13,-48.59 -60.87,-50.7 15.09,24.039 -3.05,56.848 33.88,91.688 -4.65,3.723 -15.24,10.891 -19.06,15.75 45.29,-5.32 92.49,30.48 71.06,47.473 -14.02,11.093 -20.19,-11.942 -41.78,-8.071 l 8.46,7.309 c -2.95,2.93 -6.4,6.769 -9.9,9.64 9.22,1.118 19.25,6.985 19.25,6.985 l -5.5,9.074 c 53.03,0.059 54.3,40.609 32.84,42.227 -10.07,0.742 -23.18,-17.899 -55.85,-14.02 4.12,5.035 5.83,12.609 7.85,18.223 -7.86,0.746 -17.2,0.672 -24.62,4.293 15.96,2.066 19.95,7.398 33.22,17.453 l -15.36,5.644 c 22.34,11.141 20.94,30.582 21.62,50.829 -11.66,-6.727 -25.47,-17.157 -40.06,-12.297 -3.49,1.172 -5.76,2.777 -5.83,6.414 20.97,8.246 34.32,40.508 -15.78,67.615 -31.95,17.24 -110.17,55.26 -57.17,96.23 7.25,5.56 15.12,10.56 21.79,16.8 8.32,-6.38 -3.04,-22.2 -5.87,-28 0,0 17.62,-1.78 21.79,-1.78 27.32,0.12 55.93,16.25 41.45,47.22 10.84,-2.26 12.13,-12.68 15.44,-21.61 6.95,4.69 19.02,14.79 28.37,13.37 -7.59,-24.23 -39.39,-46.02 -64.12,-50.97 24.97,-13.6 71.31,-23.72 95.67,5.56 17.08,-33.09 -6.73,-46.92 -30.09,-64.26 88.94,-40.546 75.81,-86.085 134.16,-121.914 -7.55,-3.546 -41.35,3.582 -44.37,4.012 12.74,-16.426 18.67,-23.363 22.33,-31.355 3.54,-7.485 5.11,-15.922 8.61,-34.164 2.79,-14.407 7.82,-28.754 25.3,-38.289 -6.87,-12.45 -22.09,-2.719 -28.43,-1.059 m -3.46,90.519 c 16.41,-2.57 29.32,-2.57 35.44,13.829 -60.31,28.726 -59.79,89.011 -129.1,120.571 38.1,28.27 27.82,54.77 10.13,81.52 -18.74,-33.12 -51,-37.63 -70.8,-26.85 27.89,10.16 38.42,44.6 55.32,54.65 -10.57,11.33 -24.07,11.71 -39.82,0.99 -8.51,22.85 -36.52,15.33 -40.73,15.33 7.36,-7.34 14.31,-16.95 12.99,-27.24 -2.9,-22.92 -40.17,-19.22 -40.17,-19.22 7.52,15.48 4.18,24.71 -12.55,32.67 -5.11,-12.31 -45.11,-28.9 -47.71,-53.23 -4.01,-38.02 41.03,-61.12 80.58,-82.55 43.52,-23.532 27.56,-49.141 11.8,-49.985 -8.75,-27.035 24.76,-31.906 43.83,-20.93 -0.09,-3.594 -2.51,-25.297 -31.73,-27.078 2.47,-8.57 7.29,-11.332 14.94,-14.168 -5.71,-4.281 -22.38,-4.918 -31.2,-4.918 1.04,-11.75 13.81,-21.18 29.79,-22.785 -1.27,-3.535 -8.37,-9.285 -14.76,-11.051 17.26,-17.199 63.66,-5.867 73.11,4.008 4.32,4.562 9.59,-1.887 4.45,-8.746 -5.34,-7.012 -28.65,-14.899 -47.56,-9.09 -2.17,-10.578 1.47,-14.586 4.46,-17.437 0,0 -18.49,-1.844 -23.28,-4.442 1.8,-7.949 10.77,-12.566 13.92,-15.668 -3.15,-2.711 -6.89,-9.031 -8.24,-13.91 8.48,-4.078 31.57,-10.469 43.98,3.66 5.02,5.61 10.5,2.031 5.37,-5.101 -18.22,-25.079 -61.83,-25.489 -77.22,-17.637 -0.43,-19.652 8.07,-23.692 18.3,-31.832 -31.52,-36.281 -10.69,-68.508 -32.97,-100.25 41.96,0 68.2,22.91 75.57,44.308 0.83,-7.617 4.86,-14.25 16.04,-16.519 -0.86,8.012 1.64,16.101 5.71,24.269 8.49,-6.828 23.98,-8.418 44.23,-9.269 -22.96,39.012 42.05,79.012 16.26,132.172 -3.81,7.988 7.39,13.07 8.47,4.945 6.03,-45.586 32.81,-55.875 55.39,-41.664 -6.79,7.406 -9.6,7.277 -13.94,14.02 15.2,-4.043 22.94,7 26.84,20.808 -41.25,14.485 -19.03,49.942 -45.14,83.82" /><path
         id="path162"
         style="fill:#231f20;fill-opacity:1;fill-rule:evenodd;stroke:none"
         d="m 1794.85,736.301 12.37,9.41 c 2.22,1.668 3.66,2.738 6.17,2.418 l 17.46,-2.309 c 0.96,-4.172 3.76,-8.269 3.76,-8.269 l -18.58,3.91 c -2.64,0.309 -3.41,0.187 -5.88,-1.59 l -8.79,-6.66 c -1.76,-1.359 -1.8,-3.52 -0.81,-5.641 l 1.42,-3.058 -6.14,-4.653 -2.36,4.411 c -2.38,4.742 -2.54,9.019 1.38,12.031 m 28.37,32.828 -3.22,-1.707 c -2.23,-1.293 -3.36,-1.863 -5.31,0.547 l -1.39,1.769 c -0.7,0.832 -0.92,2.91 0.5,4.5 l 13.83,16.114 -12.74,10.457 16.23,-5.977 5.94,7.406 c 1.74,-1.488 1.13,-5.769 1.13,-5.769 6.58,0 25.68,-9.489 26.41,-33.278 0,0 4.34,-6.39 9.83,-6.722 l 28.14,-1.699 c 4.66,0 16.32,8.89 31.32,0.492 3.78,2.269 7.85,4.097 12,4.57 13.22,0.977 22.92,-8.242 30.17,-17.5 5.29,-6.703 12.54,-16.973 12.54,-16.973 -3.12,-3.699 -6.18,-4.949 -8.77,-4.007 -3.89,2 -5.16,5.148 -6.41,9.488 -1.98,6.898 -9.57,12.801 -9.57,12.801 2.59,-4.629 3.12,-9.891 4.37,-14.719 -11.01,10.867 -13.07,24.18 -20.77,26.008 -3.41,0.851 -7.38,-0.61 -11.05,-4.871 3.88,-9 3.67,-19.43 7.65,-26.399 3.03,-5.211 3.66,-5.691 5.01,-6.808 3.25,-2.34 1.41,-6.532 0.92,-9.571 l -4.17,-26.14 h -7.02 l 4.62,25.578 c 1.42,7.793 -20.45,7.793 -31.65,22.652 -9.55,-11.16 -36.3,-8.371 -47.89,-6.633 -4.66,0.703 -9.22,0.403 -11.79,-4.199 -1.5,-2.57 -4.02,-1.801 -5.55,-1.437 l -21.11,4.558 c -3.71,0.86 -5.32,0.129 -6.97,-3.281 l -4.22,-8.738 c -0.93,-2.051 -0.87,-3.551 0.81,-5.2 l 1.99,-2.14 c -1.21,-4.192 -5.01,-7.379 -5.01,-7.379 l -4.6,5.187 c -2.25,2.61 -2.37,6.411 -0.6,10.11 l 6.83,14.269 c 0.82,1.582 2.28,3.301 5.14,3.301 l 26.12,0.402 -8,13.028 c -5.95,9.769 3.93,27.179 2.46,35.41 -0.75,-11.039 -14.09,-6 -16.15,-7.5 m 108.7,-60.199 -11.28,-27.789 h -6.99 l 11.26,26.91 c 1.17,3.48 -1.04,5.097 -3.87,8.898 4.19,-2.359 7.18,-3.91 12.24,-5.84 -0.43,-0.789 -0.96,-1.23 -1.36,-2.179 m -137.44,3.152 12.68,10.75 -1.93,3.848 c -1.38,2.761 -0.64,2.922 0.82,4.019 l 6.7,4.992 c 1.54,1.27 3.18,1.118 5.06,0.668 l 20.11,-4.718 h -21.21 c -4.9,-0.332 -6.32,-2.2 -8.09,-5.84 l -1.46,-2.969 -5.45,-11.211 c -1.85,-3.851 -2.82,-9 2.05,-14.801 l 3.85,-4.59 -7.81,-15.8 h 6.58 l 5.4,10.961 c 0.43,0.398 8.41,7.679 10.1,15.23 -2.3,1.879 -3.95,3.188 -2.67,5.82 l 2.45,5.239 c 0.8,1.742 1.08,2.449 3.42,1.992 l 21.09,-4.563 c 2.63,-0.73 6.49,-1.879 9.31,2.36 2.88,4.41 3.28,3.941 9.98,3.269 l 10.77,-1.136 c 14.72,-1.403 29.41,2.277 35.14,6.82 2,-4.582 5.98,-8.063 7.85,-11.621 0.68,-1.321 -0.46,-3.18 -1.37,-5.5 l -12.09,-28.871 h 18.64 l 10.55,26.351 c 0.98,2.52 2.4,4.528 3.49,5.539 l -6.05,-31.89 h 18.09 l 4.8,31.55 c 1.06,7.008 0.43,9.282 -2.94,12.161 -7.54,6.359 -7.37,19.73 -9.8,27.839 1.28,0.739 2.76,1.11 4.54,0.899 3.95,-0.348 6.91,-10.418 11.56,-16.899 9.25,-13.011 21.89,-27.371 36.36,-7.14 -1.4,2.301 -2.91,4.41 -4.66,6.41 l -4.04,4.738 c -2.35,2.621 -13.55,15.434 -18.23,20.051 -10.6,10.699 -26.91,9.063 -33.41,3.883 -14.7,7.707 -30.22,-0.391 -33.89,-0.09 l -25.33,1.527 c -1.15,0.082 -2.91,0.461 -4.14,2.442 l 4.71,1.539 c -4.41,18.332 -15.48,33.691 -34.83,36.32 0,0 -1.13,5.789 -4.09,6.91 l -5.77,-6.808 c -1.64,-0.223 -3.41,-0.731 -4.86,-1.364 l -24.7,9.192 18.55,-18.731 c 0,0 -9.63,-13.621 -12.36,-16.41 -1.83,-2.539 -1.65,-4.527 0.39,-6.969 l 3.59,-4.718 c 1.87,-2.453 3.89,-2.352 6.86,-0.84 l 4.07,2.109 c 1.77,1.489 7.71,-1.441 10.27,0.899 -1.64,-5.34 -2.45,-10.461 -2.82,-14.532 l -16.66,1.993 c -3.63,0.488 -5.28,0 -7.5,-1.719 l -14.2,-10.942 c -4.63,-3.558 -6.07,-9.691 -3.22,-15.671 l 5.75,-11.977" /><path
         id="path164"
         style="fill:#231f20;fill-opacity:1;fill-rule:evenodd;stroke:none"
         d="m 1848.68,1071.48 c 6.74,-4.66 18.71,-9.66 18.71,-9.66 v 7.96 l -26.36,10.1 c 0,0 0,-3.24 7.65,-8.4" /><path
         id="path166"
         style="fill:#231f20;fill-opacity:1;fill-rule:evenodd;stroke:none"
         d="m 1867.39,1081.08 v 7.95 l -29.91,10.68 c 0,0 3.55,-3.79 11.2,-9 6.74,-4.64 18.71,-9.63 18.71,-9.63" /><path
         id="path168"
         style="fill:#231f20;fill-opacity:1;fill-rule:evenodd;stroke:none"
         d="m 1867.39,1099.14 v 7.98 l -32.76,12.06 c 0,0 6.4,-5.18 14.05,-10.38 6.74,-4.68 18.71,-9.66 18.71,-9.66" /><path
         id="path170"
         style="fill:#231f20;fill-opacity:1;fill-rule:evenodd;stroke:none"
         d="m 1959.46,990.535 h 33.5 c -1.38,4.871 -6.59,9.775 -16.38,9.775 -9.24,0 -14.81,-5.365 -17.12,-9.775" /><path
         id="path172"
         style="fill:#231f20;fill-opacity:1;fill-rule:evenodd;stroke:none"
         d="m 1924.4,1119.18 -32.72,-12.06 v -7.98 c 0,0 11.99,4.98 18.74,9.66 7.62,5.2 13.98,10.38 13.98,10.38" /><path
         id="path174"
         style="fill:#231f20;fill-opacity:1;fill-rule:evenodd;stroke:none"
         d="m 1918.03,1079.88 -26.35,-10.1 v -7.96 c 0,0 11.99,5 18.74,9.66 7.61,5.16 7.61,8.4 7.61,8.4" /><path
         id="path176"
         style="fill:#231f20;fill-opacity:1;fill-rule:evenodd;stroke:none"
         d="m 1921.59,1099.71 -29.91,-10.68 v -7.95 c 0,0 12,4.97 18.74,9.63 7.61,5.21 11.17,9 11.17,9" /><path
         id="path178"
         style="fill:#231f20;fill-opacity:1;fill-rule:evenodd;stroke:none"
         d="m 1782.4,1000.31 c -9.77,0 -14.97,-4.904 -16.37,-9.775 h 33.54 c -2.39,4.426 -7.87,9.775 -17.17,9.775" /><path
         id="path180"
         style="fill:#231f20;fill-opacity:1;fill-rule:evenodd;stroke:none"
         d="m 1879.54,1123.13 -53.84,21.27 c 4.58,10.81 25.68,20.04 53.84,20.04 28.15,0 49.23,-9.23 53.8,-20.04 z m 40.06,-66.45 -36.27,-19.09 v 77.12 l 49.29,16.74 z m 42.43,-32.14 c -13.61,-2.37 -25.3,-19.02 -34.88,-34.005 l -1.07,-1.726 h -10.22 l -0.04,-1.766 c -1.06,-11.586 -12.03,-27.301 -36.31,-27.301 -11.2,0 -19.63,3.43 -25.45,8.11 -5.04,4.086 -8.17,9.136 -9.73,13.98 -0.57,1.75 -0.94,3.516 -1.09,5.211 l -0.09,1.766 h -10.14 l -1.1,1.726 c -9.63,14.985 -21.31,31.635 -34.86,34.005 l 37.01,21.49 45.48,-24.72 45.43,24.72 z m 49.93,-56.688 c -3.89,-10.098 -7.01,-21.063 -7.01,-32.039 V 818.059 h -13.69 c -6.23,6.027 -11.48,26.093 -11.48,26.093 -3.41,-7.23 0.5,-21.847 4.14,-26.093 h -17.63 c -4.38,5.91 -8.16,26.824 -8.16,26.824 -5.27,-6.02 -1.93,-22.297 1.34,-26.824 h -11.72 c -0.73,8.359 1.66,17.48 1.66,17.48 -6.13,1.129 -12.65,4.352 -12.64,11.168 3.11,-2.894 4.37,-2.852 8.66,-2.762 l 4.98,3.922 c -16.52,-0.535 -17.29,17.602 -4.19,26.082 -13.1,-0.418 -22.87,7.367 -18.11,21.27 -9.31,4.812 -12.59,20.574 -5.71,27.508 -4.98,5.406 -5.81,16.011 -2.62,23.261 -6.59,0 -14.02,2.629 -18.16,7.129 -0.32,-0.148 -0.7,-0.25 -1.04,-0.371 8.25,3.371 15.24,8.602 19.96,15.106 z m -6.98,-233.922 c 0,-24.559 -11.35,-43.231 -30.23,-53.559 l 6.78,13.75 h -6.55 L 1966.3,676.5 c -8.98,-3.41 -19.2,-5.27 -30.46,-5.27 -34.46,0 -43.57,-1.398 -56.28,-14.101 -12.79,12.703 -21.88,14.101 -56.28,14.101 -11.2,0 -21.39,1.829 -30.33,5.2 h 0.22 l 8.69,17.691 h -6.53 l -7.62,-15.48 c -1.83,0.859 -3.58,1.781 -5.28,2.8 l 6.26,12.68 h -6.51 l -4.65,-9.449 c -14.76,10.859 -23.42,27.816 -23.42,49.258 v 77.218 h 250.87 z m -170.77,141.031 10.56,-1.324 c 0.8,-5.778 -0.71,-15.61 -4.48,-21.09 l -10.25,2.953 c 2.73,6.492 3.41,12.551 4.17,19.461 m -15.24,7.738 c 0,0 9.72,0.457 12.46,-0.566 2.02,-0.844 0.64,-4.246 -1.97,-3.86 -2.73,0.325 -10.49,4.426 -10.49,4.426 m -0.64,38.528 -8.72,-31.786 2.98,51.289 13.51,11.555 6.88,-15.09 -17.38,-49.804 4.59,33.527 c 0.43,2.328 -1.47,2.598 -1.86,0.309 m -6.7,-53.012 c -4.56,-1.813 -9.23,0.668 -7.79,3.609 2.11,-1.914 8.02,-0.98 8.02,-0.98 z m -8.58,-4.231 c 2.12,-2.035 8.5,-1.265 8.5,-1.265 l 0.23,-1.278 c -2.79,-3.711 -10.5,-2.035 -8.73,2.543 m -10.01,20.481 c -2.44,1.637 -1.34,5.168 1.37,5.168 2.95,-0.074 6.92,-3.43 10.82,-5.11 0,0 -10.23,-1.378 -12.19,-0.058 m 9.7,-28.207 c 0,0 2.92,-1.215 6.64,-1.516 -0.43,-2.031 -2.01,-3.992 -4.5,-3.429 -2.08,0.46 -3.02,3.046 -2.14,4.945 m 6.87,19.222 c -4.91,-1.589 -7.07,1.961 -6.86,4.977 9.63,3.504 13.92,1.246 16.73,-0.551 2.58,-1.633 4.74,-6.269 8.21,-9.164 -0.56,-3.953 -1.78,-9.656 -3.19,-13.472 -9.84,2.523 -10.35,11.199 -6.69,16.472 -2.05,2.406 -4.23,3.016 -8.2,1.738 m 42.66,-2.824 10.53,-1.246 c 1.04,-5.793 -0.93,-18.094 -4.9,-23.957 l -10.74,3.102 c 4.3,5.629 5.87,15.64 5.11,22.101 m 18.12,-2.211 8.69,-1.086 c 1.39,-7.218 0.48,-19.711 -4.13,-26.808 l -10.1,2.926 c 4.42,6.031 6.51,18.429 5.54,24.968 m 15.57,-1.933 h 0.19 c 2.26,-0.34 4.64,0.047 6.81,0.937 4.69,-6.73 8.37,-21.996 2.73,-31.535 -3.19,-0.059 -6.33,0.508 -9.25,1.34 l -2.34,0.695 c 4.76,7.383 4.07,20.41 1.86,28.563 m 13.28,5.125 6.18,6.047 c 6.27,-5.481 14.51,-17.735 11.94,-29.368 l -6.73,-6.164 c -1.38,-1.336 -2.82,-2.332 -4.28,-3.222 4.19,10.383 -1.15,26.379 -7.11,32.707 m 36.15,-3.446 c -1.33,-1.796 -2.43,-3.906 -3.13,-6.179 l -7.49,-6.875 c 1.5,10.945 -5.86,23.914 -12.58,29.187 l 7.96,7.813 1.59,-1.606 c -2.66,-6.98 2.54,-20.707 13.65,-22.34 m -19.87,52.985 c -3.94,-7.52 -3.54,-16.176 1.1,-24.035 l -3.09,-3.032 c -13.43,1.68 -18.73,21.704 -18.73,21.704 -0.27,-1.797 -0.43,-3.567 -0.4,-5.348 -7.83,2.894 -12.79,9.863 -12.39,19.398 2.96,-1.648 6.3,-2.824 9.83,-3.429 l 0.92,5.851 c -9.38,1.633 -14.86,7.5 -16.94,14.422 -0.45,0.043 -0.85,0.148 -1.28,0.18 1.68,-0.137 3.31,-0.27 5.02,-0.27 5.57,0 10.84,0.86 15.8,2.317 3.89,-5.539 10.82,-9.52 17.75,-10.293 -1.08,-4.543 -0.55,-10.325 2.41,-17.465 m -77,44.676 c 6.48,-8.868 16.99,-15.43 29.44,-18 1.05,-4.68 3.58,-9.805 8.52,-13.934 -2.05,-13.77 3.87,-26.633 18.69,-30.047 1.54,-7.012 5.91,-12.328 13.19,-14.84 l -10.29,-11.898 c -3.92,-4.559 -9.06,-6.016 -13.33,-5.496 l -46.01,5.242 c 1.99,5.109 -3.31,11.023 -17.87,8.484 l 18.09,50.59 -11.04,23.469 -20.92,-17.856 -1.53,-53.054 -8.89,4.383 c -11.69,5.035 -15.09,-16.086 -3.99,-16.176 l 4.41,-0.047 c -0.28,-2.168 0.37,-4.574 2.08,-5.301 -2.08,-0.875 -2.72,-4.812 -0.08,-6.211 -2.65,-1.246 -3.01,-5.258 -0.87,-6.996 -2.33,-3.906 -2.68,-12.34 5.39,-14.48 6.59,-1.739 10.72,5.375 12.09,9.504 l 71.59,-22.172 c 10.15,-2.914 17.35,-1.282 25.76,6.101 l 18.69,16.34 c -2.35,-10.68 1.5,-20.32 9.64,-23.496 0,0 -1.18,-9.598 -0.81,-13.902 h -186.36 v 117.754 c 0,10.976 -3.17,21.941 -6.94,32.039 z m -12.09,163.598 49.25,-16.74 v -77.12 l -36.28,19.09 z m 119.67,9.18 c 0,18.85 -31.66,35.72 -66.59,35.72 -34.95,0 -66.61,-16.87 -66.61,-35.72 l 0.72,-4.62 13.91,-80.06 -66.03,-38.49 c -7.02,-4.11 -15.81,-15.49 -16.93,-26.925 h 12.05 c 1.99,11.425 11.02,24.105 27.86,23.315 15.24,-0.8 24.27,-10.07 33.24,-23.315 l 2.31,-3.492 3.32,-5.211 h -97.09 c 7.13,-14.336 13.92,-29.531 13.92,-46.019 V 733.93 c 0,-51.95 39.89,-76.68 83.1,-76.68 33.36,0 37.86,1.52 56.28,-16.898 18.36,18.418 22.84,16.898 56.28,16.898 43.16,0 83.09,24.73 83.09,76.68 v 201.883 c 0,16.488 6.76,31.683 13.89,46.019 h -97.16 l 3.34,5.211 2.32,3.492 c 8.93,13.245 17.99,22.515 33.24,23.315 16.79,0.79 25.86,-11.89 27.85,-23.315 h 12.02 c -1.07,11.435 -9.91,22.815 -16.92,26.925 l -66.02,38.49 13.93,80.06 0.68,4.62" /><path
         id="path182"
         style="fill:#231f20;fill-opacity:1;fill-rule:evenodd;stroke:none"
         d="m 1999.25,891.758 0.1,5.898 c -18.12,0.43 -22.26,21.789 -22.26,21.789 -5.31,-15.73 8.52,-27.449 22.16,-27.687" /><path
         id="path184"
         style="fill:#231f20;fill-opacity:1;fill-rule:evenodd;stroke:none"
         d="m 1976.37,855.578 -1.81,5.582 c -15.45,-3.949 -23.44,20.528 -23.44,20.528 -4.94,-17.782 12.3,-30.375 25.25,-26.11" /><path
         id="path186"
         style="fill:#231f20;fill-opacity:1;fill-rule:evenodd;stroke:none"
         d="m 1987.11,878.273 c -18.46,-2.925 -26.04,18.551 -26.04,18.551 -2.04,-11.691 5.53,-23.558 17.75,-24.804 -2.76,-15.27 11.41,-23.082 23.68,-17.645 l -1.77,5.316 c -10.66,-3.582 -20.66,6.965 -13.62,18.582" /><path
         id="path188"
         style="fill:#231f20;fill-opacity:1;fill-rule:evenodd;stroke:none"
         d="m 1976.06,939.543 0.17,5.91 c -24.36,5.02 -22.33,21.789 -22.33,21.789 -5.26,-15.789 8.57,-27.449 22.16,-27.699" /><path
         id="path190"
         style="fill:#231f20;fill-opacity:1;fill-rule:evenodd;stroke:none"
         d="m 1821.71,694.121 -8.72,-17.691 h 6.55 l 8.7,17.691 h -6.53" /><path
         id="path192"
         style="fill:#231f20;fill-opacity:1;fill-rule:evenodd;stroke:none"
         d="m 1834.85,694.121 -8.69,-17.691 h 6.61 l 8.63,17.691 h -6.55" /><path
         id="path194"
         style="fill:#231f20;fill-opacity:1;fill-rule:evenodd;stroke:none"
         d="m 1887.6,694.121 -8.68,-17.691 h 6.54 l 8.7,17.691 h -6.56" /><path
         id="path196"
         style="fill:#231f20;fill-opacity:1;fill-rule:evenodd;stroke:none"
         d="m 1900.81,694.121 -8.74,-17.691 h 6.59 l 8.66,17.691 h -6.51" /><path
         id="path198"
         style="fill:#231f20;fill-opacity:1;fill-rule:evenodd;stroke:none"
         d="m 1874.43,694.121 -8.71,-17.691 h 6.55 l 8.71,17.691 h -6.55" /><path
         id="path200"
         style="fill:#231f20;fill-opacity:1;fill-rule:evenodd;stroke:none"
         d="m 1951.46,676.43 h 6.57 l 8.7,17.691 h -6.56 l -8.71,-17.691" /><path
         id="path202"
         style="fill:#231f20;fill-opacity:1;fill-rule:evenodd;stroke:none"
         d="m 1848.06,694.121 -8.69,-17.691 h 6.56 l 8.71,17.691 h -6.58" /><path
         id="path204"
         style="fill:#231f20;fill-opacity:1;fill-rule:evenodd;stroke:none"
         d="m 1861.2,694.121 -8.7,-17.691 h 6.61 l 8.69,17.691 h -6.6" /><path
         id="path206"
         style="fill:#231f20;fill-opacity:1;fill-rule:evenodd;stroke:none"
         d="m 1831.37,789.18 c -1.18,0 -2.24,-1.168 -2.24,-2.668 0,-1.461 1.06,-2.66 2.24,-2.66 1.25,0 2.31,1.199 2.31,2.66 0,1.5 -1.06,2.668 -2.31,2.668" /><path
         id="path208"
         style="fill:#231f20;fill-opacity:1;fill-rule:evenodd;stroke:none"
         d="m 1828.7,1197.93 10.38,22 19.24,-10.22 21.24,20.97 21.24,-20.97 19.22,10.22 10.26,-22 12.79,1.96 c -3.28,-6.15 -5.75,-11.5 -8.02,-19.03 -13.98,8.16 -34.74,14.44 -55.49,14.44 -20.82,0 -41.53,-6.28 -55.52,-14.44 -2.33,7.53 -4.76,12.88 -8.07,19.03 z m 50.86,-9.64 c 27.03,0 48.67,-8.95 60.63,-18.58 0,0 3.58,21.46 15.69,40.3 l -21.79,-2.44 -11.38,24.24 -21.91,-11.39 -21.24,21.08 -21.24,-21.08 -21.95,11.39 -11.4,-24.24 -21.77,2.44 c 12.13,-18.84 15.67,-40.3 15.67,-40.3 11.93,9.63 33.63,18.58 60.69,18.58" /><path
         id="path210"
         style="fill:#231f20;fill-opacity:1;fill-rule:evenodd;stroke:none"
         d="m 1901.78,1231.66 c 3.16,-0.27 5.97,2.13 6.24,5.25 0.31,3.14 -4.31,11.6 -4.31,11.6 0,0 -6.92,-7.44 -7.14,-10.62 -0.3,-3.12 2.08,-5.91 5.21,-6.23" /><path
         id="path212"
         style="fill:#231f20;fill-opacity:1;fill-rule:evenodd;stroke:none"
         d="m 1937.47,1218.73 c 2.81,-1.52 6.24,-0.41 7.76,2.42 1.53,2.78 0.53,12.33 0.53,12.33 0,0 -9.19,-4.15 -10.71,-6.97 -1.44,-2.78 -0.39,-6.25 2.42,-7.78" /><path
         id="path214"
         style="fill:#231f20;fill-opacity:1;fill-rule:evenodd;stroke:none"
         d="m 1857.25,1231.66 c 3.22,0.32 5.55,3.11 5.27,6.23 -0.29,3.18 -7.14,10.62 -7.14,10.62 0,0 -4.61,-8.46 -4.31,-11.6 0.25,-3.12 3.07,-5.52 6.18,-5.25" /><path
         id="path216"
         style="fill:#231f20;fill-opacity:1;fill-rule:evenodd;stroke:none"
         d="m 1821.62,1218.73 c 2.8,1.53 3.87,5 2.37,7.78 -1.48,2.82 -10.69,6.97 -10.69,6.97 0,0 -0.98,-9.55 0.56,-12.33 1.47,-2.83 4.95,-3.94 7.76,-2.42" /><path
         id="path218"
         style="fill:#231f20;fill-opacity:1;fill-rule:evenodd;stroke:none"
         d="m 2216.42,1018.28 c 2.34,-5.23 7.01,-23.393 -4.13,-37.253 -12.69,25.373 -30.15,47.103 -44.28,56.473 -3.09,2 1.71,5.54 10.41,6.68 26.31,5 57.13,-6.14 71.83,-10.05 -6.84,-5.11 -12.39,-7.42 -19.37,-8.27 10.67,-8.95 18.45,-16.52 23.95,-24.96 -10.34,-2.552 -16.15,3.98 -38.41,17.38 m 33.19,4.31 c 7.6,2.7 13.48,9.95 16.41,16.66 -19.35,2.78 -70.73,24.36 -112.98,6.79 15.82,15.02 30.03,16.96 31.38,38.56 6.56,-4.72 17.65,-7.38 23.89,3.88 -4.36,12.86 -15.35,2.45 -16.9,5.98 -2.15,4.93 13.88,-1.51 17.3,15.2 -12.46,4.27 -16.19,-5.9 -18.41,-3.54 -2.06,2.25 7.91,6.54 0.57,20.01 -12.97,-7.59 -6.22,-16.15 -8.96,-17.11 -3.32,-1.31 -0.71,9.13 -15.04,8.66 -1.41,-15.42 13.47,-15.89 11.03,-18.34 -2.95,-2.99 -6.84,8.85 -17.67,2.85 0.19,-12.45 10.26,-19.28 20.67,-16.34 -1.7,-23.65 -23.37,-19.24 -39.54,-45.87 34.21,-17.54 49.69,-48.125 70.74,-69.273 6.95,4.93 18.83,26.867 18.83,26.867 22.78,-17.644 38.8,-0.074 38.8,-0.074 -7.84,8.04 -8.12,14.14 -20.12,25.09" /><path
         id="path220"
         style="fill:#231f20;fill-opacity:1;fill-rule:evenodd;stroke:none"
         d="m 1873.19,603.07 -14.83,0.551 -1.69,-5.93 1.86,-0.101 c 0.62,0 0.62,1.16 1.16,1.789 0.29,0.23 2.98,0.672 5.1,0.453 l 6.21,-0.473 c -3.65,-7.609 -13.22,-14.769 -13.1,-19.82 0.14,-2.687 2.87,-3.219 4.5,-3.148 2.99,0.109 3.92,2.211 4.7,5.449 1.81,7.492 5.43,13.191 8.05,21.781 l -1.84,-0.062 -0.12,-0.489" /><path
         id="path222"
         style="fill:#231f20;fill-opacity:1;fill-rule:evenodd;stroke:none"
         d="m 1883.33,594.219 0.22,4.57 h 12.88 l -0.68,5.102 c -3.52,-0.121 -8.69,-1.27 -13.43,-1.301 l -0.9,-9.961 c 5.97,0.262 9.86,-2.34 9.86,-8.59 0,-2.328 -1.53,-6.68 -4.22,-7.008 -0.62,-0.09 -1.44,0.117 -1.83,0.43 -1.29,0.969 0.4,2.039 0.4,3.641 0,2.078 -2.12,2.808 -3.53,2.546 -2.21,-0.136 -3,-1.578 -3,-3.339 0,-3.668 5.45,-4.688 7.78,-4.688 5.29,0 11.39,2.938 11.39,8.93 0,7.879 -8.82,9.5 -14.94,9.668" /><path
         id="path224"
         style="fill:#231f20;fill-opacity:1;fill-rule:evenodd;stroke:none"
         d="m 1914.2,590.16 c -4.59,0 -5.25,7.149 -5.25,10.621 0,0.981 0.88,2.36 1.91,2.36 4.18,0 5.33,-9.731 5.67,-12.469 -0.68,-0.262 -1.49,-0.512 -2.33,-0.512 m -2.93,14.328 c -4.62,0 -8.41,-3.437 -8.41,-8.136 0,-7.422 7.97,-9.864 13.88,-7.051 0.72,-5.762 -0.45,-9.891 -2.63,-10.031 -1.86,0 -1.59,1.402 -1.86,2.589 -0.49,2.243 -2.26,2.84 -4.08,2.243 -1.93,-0.563 -2.22,-2.262 -1.89,-3.551 0.86,-2.91 4.46,-2.969 6.19,-2.762 7.58,0.859 10.76,6.492 10.76,12.742 0,7.239 -4.15,13.957 -11.96,13.957" /><path
         id="path226"
         style="fill:#231f20;fill-opacity:1;fill-rule:evenodd;stroke:none"
         d="m 1847.97,606.012 c -0.69,-0.852 -3.87,-4.813 -10.7,-9.91 l 0.57,-0.993 c 0.75,0.403 1.96,0.961 4.02,2.2 l -4.02,-14.071 c -0.23,-0.758 -1.16,-0.828 -1.61,-0.758 l -2.39,0.34 -0.45,-1.648 13.08,-2.34 0.4,1.656 -2.26,0.492 c -0.67,0.192 -1.08,0.668 -0.97,1.43 l 5.96,23.352 -1.63,0.25" /><path
         id="path228"
         style="fill:#231f20;fill-opacity:1;fill-rule:evenodd;stroke:none"
         d="m 1946.99,589.398 -11.6,37.723 c 24.72,5.109 41.92,10.359 55.05,15.43 V 619.02 l 20.38,-8.211 c -17.22,-7.848 -38.58,-15.637 -63.83,-21.411 m -67.43,-22.066 c -23.05,0 -45.56,3.449 -64.79,8.168 l 12.24,39.57 c 8.11,-1.89 28.41,-4.379 52.55,-4.379 24.15,0 44.37,2.489 52.52,4.379 l 12.28,-39.57 c -19.32,-4.719 -41.82,-8.168 -64.8,-8.168 m -131.33,43.477 20.4,8.211 v 23.531 c 13.13,-5.071 30.33,-10.321 55.05,-15.43 l -11.59,-37.723 c -25.19,5.774 -46.61,13.563 -63.86,21.411 m 248.52,13.101 v 28.871 c -22.31,-10.23 -50.71,-18.519 -87.22,-21.801 l -1.66,-10.32 c 3.1,-0.441 7.04,-0.82 12.28,-1.16 -13.53,-1.852 -31.01,-2.75 -40.59,-2.75 -9.6,0 -27.06,0.898 -40.61,2.75 5.23,0.34 9.14,0.719 12.24,1.16 l -1.65,10.32 c -36.52,3.282 -64.95,11.571 -87.2,21.801 V 623.91 l -30.27,-12.422 c 22.41,-11.656 48.21,-21.168 78.03,-28.847 l -3.53,-12.09 c 17.08,-5 44.37,-10.129 72.99,-10.129 28.61,0 55.88,5.129 72.96,10.129 l -3.52,12.09 c 29.78,7.679 55.64,17.191 78.05,28.847 l -30.3,12.422" /><path
         id="path230"
         style="fill:#231f20;fill-opacity:1;fill-rule:evenodd;stroke:none"
         d="m 1504.21,1000.9 c 5.53,8.44 13.27,16.01 24.01,24.92 -7.03,0.89 -12.54,3.2 -19.43,8.31 14.7,3.91 45.61,15.05 71.92,10.05 8.64,-1.14 13.52,-4.68 10.35,-6.66 -14.14,-9.39 -31.61,-31.12 -44.31,-56.477 -11.11,13.844 -6.41,32.007 -4.11,37.237 -22.22,-13.41 -28.01,-19.932 -38.43,-17.38 m 23.93,-3.326 c 0,0 11.9,-21.937 18.81,-26.855 21.09,21.136 36.58,51.721 70.76,69.261 -16.18,26.63 -37.89,22.16 -39.5,45.87 10.39,-2.94 20.44,3.92 20.65,16.34 -10.87,5.97 -14.75,-5.9 -17.68,-2.85 -2.43,2.49 12.45,2.92 11.04,18.32 -14.35,0.45 -11.72,-9.95 -15.09,-8.64 -2.69,0.98 4.05,9.53 -8.97,17.11 -7.31,-13.53 2.69,-17.75 0.62,-20.01 -2.21,-2.36 -5.97,7.81 -18.42,3.54 3.38,-16.71 19.48,-10.27 17.29,-15.2 -1.53,-3.53 -12.52,6.88 -16.84,-5.98 6.19,-11.26 17.3,-8.6 23.81,-3.89 1.4,-21.68 15.57,-23.49 31.43,-38.55 -42.24,17.57 -93.64,-3.99 -113.05,-6.82 2.99,-6.68 8.85,-13.93 16.46,-16.58 -11.99,-11.05 -12.27,-17.12 -20.11,-25.14 0,0 15.98,-17.57 38.79,0.074" /><path
         id="path232"
         style="fill:#231f20;fill-opacity:1;fill-rule:evenodd;stroke:none"
         d="m 1861.04,1013.68 v -12.72 c 4.38,5.27 12.84,4.24 12.84,4.24 v -18.305 c 0,0 -0.29,-9.032 -3.49,-12.907 h 9.17 9.16 c -3.19,3.875 -3.49,12.907 -3.49,12.907 v 18.305 c 0,0 8.45,1.03 12.84,-4.24 v 12.72 h -18.51 -18.52" /></g></g></svg>