<?xml version="1.0" standalone="no"?>
<!DOCTYPE svg PUBLIC "-//W3C//DTD SVG 20010904//EN"
 "http://www.w3.org/TR/2001/REC-SVG-20010904/DTD/svg10.dtd">
<svg version="1.0" xmlns="http://www.w3.org/2000/svg"
 width="450.000000pt" height="320.000000pt" viewBox="0 0 450.000000 320.000000"
 preserveAspectRatio="xMidYMid meet">
<metadata>
Created by potrace 1.15, written by Peter Selinger 2001-2017
</metadata>
<g transform="translate(0.000000,320.000000) scale(0.100000,-0.100000)"
fill="#000000" stroke="none">
<path d="M2902 3090 c-242 -65 -432 -259 -497 -505 -21 -79 -21 -251 0 -330
66 -250 250 -436 497 -505 145 -40 358 -21 485 43 69 36 164 109 207 161 l36
44 -84 66 c-47 36 -86 66 -88 66 -2 0 -27 -21 -55 -48 -230 -216 -587 -157
-718 120 -96 203 -55 433 104 581 57 53 109 82 188 102 105 27 250 12 343 -35
l40 -20 0 -115 0 -115 115 0 115 0 0 164 0 165 -37 31 c-48 40 -180 104 -258
125 -35 10 -114 18 -190 21 -108 3 -143 1 -203 -16z"/>
<path d="M860 2970 l0 -110 28 -1 c15 0 61 0 102 0 41 1 81 -3 89 -8 8 -5 103
-256 211 -558 l197 -548 108 0 109 0 207 555 207 555 111 3 112 3 -3 107 -3
107 -195 3 -195 2 -165 -481 c-90 -264 -167 -482 -170 -484 -4 -2 -81 213
-172 478 l-165 482 -207 3 -206 2 0 -110z"/>
<path d="M952 1358 l3 -103 108 -3 107 -3 0 -444 0 -445 -110 0 -111 0 3 -107
3 -108 508 -3 507 -2 0 110 0 110 -285 0 -285 0 0 263 c0 291 6 334 62 439 33
62 99 128 158 158 31 16 123 40 152 40 7 0 9 -32 6 -100 l-5 -100 114 0 113 0
0 200 0 200 -127 0 c-144 0 -201 -12 -291 -60 -57 -30 -147 -113 -183 -170
-16 -25 -17 -24 -23 50 -3 41 -7 98 -9 125 l-2 50 -208 3 -208 2 3 -102z"/>
<path d="M2250 1345 l0 -115 100 0 100 0 0 -353 c0 -379 3 -412 55 -525 30
-65 110 -150 172 -184 84 -46 155 -61 267 -56 84 3 111 8 160 31 78 36 134 83
182 153 l39 57 17 -104 c9 -57 17 -105 17 -107 1 -1 81 -1 179 0 l177 3 3 108
3 107 -89 0 -89 0 -6 203 c-4 111 -7 358 -7 550 l0 347 -230 0 -230 0 0 -115
0 -115 115 0 115 0 0 -274 c0 -293 -6 -352 -46 -433 -79 -163 -272 -246 -417
-180 -64 29 -108 82 -134 161 -15 44 -17 112 -21 504 l-3 452 -215 0 -214 0 0
-115z"/>
<path d="M497 363 c-3 -4 -6 -56 -6 -115 l-2 -108 121 0 121 0 -3 113 -3 112
-112 3 c-61 1 -114 -1 -116 -5z"/>
</g>
</svg>
